<svg width="26" height="11" viewBox="0 0 26 11" fill="none" xmlns="http://www.w3.org/2000/svg">
<g clip-path="url(#clip0_2970_10799)">
<path d="M13 26C20.1797 26 26 20.1797 26 13C26 5.8203 20.1797 0 13 0C5.8203 0 0 5.8203 0 13C0 20.1797 5.8203 26 13 26Z" fill="#D80027"/>
<path d="M7.11445 7.91174L8.23672 11.3649H11.8676L8.93242 13.5028L10.0547 16.9559L7.11445 14.8231L4.17422 16.9559L5.30156 13.5028L2.36133 11.3649H5.99219L7.11445 7.91174Z" fill="#FFDA44"/>
<path d="M19.4187 9.54183L18.8194 10.7657L19.7944 11.7153L18.4487 11.5223L17.8495 12.7411L17.6159 11.4004L16.2651 11.2075L17.4737 10.5727L17.2401 9.22699L18.2151 10.1766L19.4187 9.54183Z" fill="#FFDA44"/>
<path d="M15.4479 5.83478L15.3463 7.19064L16.6107 7.70353L15.2854 8.02853L15.1889 9.38947L14.4729 8.23165L13.1475 8.55665L14.026 7.51564L13.3049 6.3629L14.5693 6.87579L15.4479 5.83478Z" fill="#FFDA44"/>
</g>
<defs>
<clipPath id="clip0_2970_10799">
<rect width="26" height="26" fill="white"/>
</clipPath>
</defs>
</svg>
