<svg width="26" height="26" viewBox="0 0 26 26" fill="none" xmlns="http://www.w3.org/2000/svg">
<g clip-path="url(#clip0_2970_10789)">
<path d="M13 26C20.1797 26 26 20.1797 26 13C26 5.8203 20.1797 0 13 0C5.8203 0 0 5.8203 0 13C0 20.1797 5.8203 26 13 26Z" fill="#F0F0F0"/>
<path d="M25.9998 13C25.9998 7.41046 22.4719 2.6454 17.5215 0.808594V25.1915C22.4719 23.3546 25.9998 18.5895 25.9998 13Z" fill="#D80027"/>
<path d="M0 13C0 18.5895 3.52793 23.3546 8.47828 25.1914V0.808594C3.52793 2.6454 0 7.41046 0 13Z" fill="#0052B4"/>
</g>
<defs>
<clipPath id="clip0_2970_10789">
<rect width="26" height="26" fill="white"/>
</clipPath>
</defs>
</svg>
