<svg width="26" height="26" viewBox="0 0 26 26" fill="none" xmlns="http://www.w3.org/2000/svg">
<g clip-path="url(#clip0_2970_10784)">
<path d="M0 13.0001C0 14.5902 0.286051 16.1135 0.80859 17.5218L13 18.6522L25.1914 17.5218C25.7139 16.1135 26 14.5902 26 13.0001C26 11.4099 25.7139 9.88666 25.1914 8.47834L13 7.3479L0.80859 8.47834C0.286051 9.88666 0 11.4099 0 13.0001H0Z" fill="#FFDA44"/>
<path d="M25.1914 8.47828C23.3546 3.52793 18.5895 0 13 0C7.41046 0 2.6454 3.52793 0.808594 8.47828H25.1914Z" fill="#D80027"/>
<path d="M0.808594 17.5217C2.6454 22.4721 7.41046 26 13 26C18.5895 26 23.3546 22.4721 25.1914 17.5217H0.808594Z" fill="#D80027"/>
</g>
<defs>
<clipPath id="clip0_2970_10784">
<rect width="26" height="26" fill="white"/>
</clipPath>
</defs>
</svg>
