<svg width="25" height="24" viewBox="0 0 25 24" fill="none" xmlns="http://www.w3.org/2000/svg">
<path d="M9.34437 21.006C8.71557 20.972 8.12385 20.6978 7.69137 20.24C7.17396 19.7423 6.71225 19.1897 6.31437 18.592C5.69285 17.702 5.20156 16.7279 4.85537 15.699C4.46357 14.5922 4.25746 13.4281 4.24537 12.254C4.21493 11.102 4.50023 9.96356 5.07037 8.96202C5.48794 8.24012 6.08356 7.63728 6.80037 7.21102C7.50925 6.78659 8.31818 6.55813 9.14437 6.54902C9.76719 6.58587 10.3792 6.72823 10.9544 6.97002C11.4134 7.17202 11.8954 7.31402 12.3904 7.39202C12.9364 7.27764 13.4699 7.11018 13.9834 6.89202C14.591 6.65476 15.2344 6.52188 15.8864 6.49902C15.9734 6.49902 16.0594 6.49902 16.1424 6.50902C17.5724 6.55002 18.9024 7.25202 19.7424 8.40902C19.0868 8.75965 18.5413 9.28521 18.1665 9.92728C17.7917 10.5693 17.6023 11.3028 17.6194 12.046C17.6128 12.6144 17.7268 13.1776 17.9538 13.6987C18.1808 14.2198 18.5157 14.6868 18.9364 15.069C19.3193 15.4338 19.7652 15.7262 20.2524 15.932C20.1524 16.232 20.0374 16.522 19.9154 16.814C19.6384 17.4593 19.2966 18.0748 18.8954 18.651C18.516 19.2283 18.0743 19.7622 17.5784 20.243C17.126 20.6919 16.523 20.9567 15.8864 20.986C15.3467 20.9621 14.8166 20.8355 14.3244 20.613C13.7936 20.3818 13.2231 20.2551 12.6444 20.24C12.0493 20.2518 11.462 20.3777 10.9144 20.611C10.4414 20.8244 9.93612 20.9572 9.41937 21.004L9.34437 21.006ZM12.4944 6.49902C12.4194 6.49902 12.3444 6.49902 12.2694 6.49002C12.2536 6.37099 12.2452 6.25109 12.2444 6.13102C12.2771 5.13216 12.6674 4.17826 13.3444 3.44302C13.723 3.02048 14.1819 2.67749 14.6944 2.43402C15.1719 2.18818 15.6938 2.04028 16.2294 1.99902C16.2444 2.13002 16.2444 2.25802 16.2444 2.38002C16.2303 3.36319 15.8609 4.30805 15.2044 5.04002C14.8865 5.46624 14.4792 5.81772 14.011 6.06977C13.5428 6.32182 13.0252 6.46833 12.4944 6.49902Z" fill="white"/>
</svg>
