<svg width="40" height="40" viewBox="0 0 40 40" fill="none" xmlns="http://www.w3.org/2000/svg">
<circle cx="20" cy="20" r="20" fill="#8DC351"/>
<path fill-rule="evenodd" clip-rule="evenodd" d="M26.5173 13.2635C25.5162 10.776 23.1387 10.6516 20.2607 11.1491L19.2597 7.6665L17.1325 8.28839L18.1335 11.6466C17.9307 11.697 17.7074 11.7678 17.4719 11.8425L17.4719 11.8425L17.4719 11.8425C17.126 11.9521 16.7539 12.0701 16.3817 12.1441L15.3806 8.66153L13.2534 9.28342L14.2544 12.766C14.0042 12.8282 13.7852 12.8904 13.5662 12.9526L13.5662 12.9526C13.3472 13.0148 13.1283 13.077 12.878 13.1391L10 14.1342L10.6257 16.373C10.6257 16.373 12.2524 15.8755 12.1272 15.8755C13.0031 15.6267 13.3785 15.9998 13.6288 16.4974L14.755 20.4775H15.0052L14.755 20.6018L16.3817 26.1988C16.3817 26.4476 16.3817 26.9451 15.756 27.1939L14.2544 27.6914L14.5047 30.3033L17.2576 29.5571L18.7592 29.1839L19.7602 32.6665L21.8874 32.0446L20.8864 28.562C21.512 28.4377 22.0126 28.3133 22.6382 28.0645L23.6393 31.5471L25.7665 30.9252L24.7654 27.4426C28.2691 26.1988 30.5215 24.5819 29.8958 21.0993C29.3953 18.363 27.7686 17.4924 25.5162 17.6168C26.7675 16.373 27.2681 15.1292 26.5173 13.2635ZM25.7665 21.7212C26.4283 24.0237 22.909 25.0697 21.0372 25.6261C20.7856 25.7008 20.5638 25.7668 20.3859 25.8257L19.0094 21.0993C19.2068 21.0503 19.4538 20.9776 19.7361 20.8946C21.6017 20.3458 25.0057 19.3445 25.7665 21.7212ZM18.7327 18.8848C20.2287 18.4622 23.4538 17.5512 22.7633 15.3779C22.1974 13.1276 19.0713 14.1344 17.5539 14.6232C17.3939 14.6747 17.2518 14.7205 17.1325 14.7561L18.3838 18.9849C18.4843 18.9549 18.6019 18.9217 18.7327 18.8848Z" fill="white"/>
</svg>
