<svg width="40" height="40" viewBox="0 0 40 40" fill="none" xmlns="http://www.w3.org/2000/svg">
<rect width="40" height="40" rx="20" fill="#F3BA2F"/>
<path d="M22.608 27.2099V29.6551L20.4225 30.909L18.3013 29.6551V27.2099L20.4225 28.4639L22.608 27.2099ZM10.9092 18.746L13.0304 19.9999V24.2005L16.6943 26.3322V28.7773L10.9092 25.4545V18.746ZM29.9358 18.746V25.4545L24.0864 28.7773V26.3322L27.7503 24.2005V19.9999L29.9358 18.746ZM24.0864 15.4231L26.2719 16.677V19.1222L22.608 21.2538V25.5172L20.4868 26.7711L18.3656 25.5172V21.2538L14.5731 19.1222V16.677L16.7586 15.4231L20.4225 17.5548L24.0864 15.4231ZM14.5731 20.8777L16.6943 22.1316V24.5767L14.5731 23.3228V20.8777ZM26.2719 20.8777V23.3228L24.1507 24.5767V22.1316L26.2719 20.8777ZM13.0304 13.2914L15.2159 14.5454L13.0304 15.7993V18.2444L10.9092 16.9905V14.5454L13.0304 13.2914ZM27.8146 13.2914L30.0001 14.5454V16.9905L27.8146 18.2444V15.7993L25.6934 14.5454L27.8146 13.2914ZM20.4225 13.2914L22.608 14.5454L20.4225 15.7993L18.3013 14.5454L20.4225 13.2914ZM20.4225 9.09082L26.2719 12.4137L24.1507 13.6676L20.4868 11.536L16.7586 13.6676L14.6374 12.4137L20.4225 9.09082Z" fill="white"/>
</svg>
