<svg width="40" height="40" viewBox="0 0 40 40" fill="none" xmlns="http://www.w3.org/2000/svg">
<rect width="40" height="40" rx="20" fill="#1E293B"/>
<g clip-path="url(#clip0_4094_4344)">
<path d="M21.4199 25.5002C21.4199 25.2339 21.6447 25.0176 21.9387 25.0176C22.2327 25.0176 22.4575 25.2339 22.4575 25.5002C22.4575 25.7665 22.2327 25.9995 21.9387 25.9995C21.6447 25.9995 21.4199 25.7832 21.4199 25.5002ZM21.5237 25.5002C21.5237 25.7166 21.7139 25.8997 21.956 25.8997C22.1808 25.8997 22.371 25.7333 22.371 25.5002C22.371 25.2839 22.1808 25.1174 21.956 25.1174C21.6966 25.1174 21.5237 25.3005 21.5237 25.5002Z" fill="#E31837"/>
<path d="M22.1977 25.7836H22.0939L21.921 25.534H21.8172V25.7836H21.748V25.2344H22.0074C22.0593 25.2344 22.1112 25.2344 22.1458 25.2677C22.1977 25.2843 22.215 25.3342 22.215 25.3842C22.215 25.484 22.1285 25.534 22.0247 25.534L22.1977 25.7836ZM21.921 25.4674C22.0074 25.4674 22.1112 25.484 22.1112 25.3842C22.1112 25.3176 22.042 25.3009 21.9729 25.3009H21.8172V25.4674H21.921Z" fill="#E31837"/>
<path d="M19.4652 25.9997C23.0967 23.0039 28.1982 20.0913 30.9997 19.0427C30.5674 18.7764 29.893 18.3936 29.1321 17.9775C25.5178 19.1259 21.2982 21.6724 17.5283 24.5517C18.1682 25.0178 18.8426 25.5004 19.4652 25.9997Z" fill="#E31837"/>
<path d="M17.8051 17.8611C17.269 17.6114 16.681 17.3784 16.2314 17.1787C14.8653 17.8278 13.0841 18.8098 10.8359 20.3576C11.3201 20.6073 11.8389 20.9069 12.3923 21.2064C14.1217 19.9748 15.8683 18.8098 17.8051 17.8611Z" fill="#012169"/>
<path d="M21.0394 16.4296C20.3822 16.0801 18.0995 15.2646 16.5258 14.915C16.0589 15.0815 15.4018 15.3311 14.9521 15.5142C15.5228 15.664 17.6499 16.2132 19.4657 17.0953C19.9326 16.879 20.5897 16.6127 21.0394 16.4296Z" fill="#E31837"/>
<path d="M13.309 16.2129C11.2857 17.1116 9.15865 18.3433 8 19.0589C8.41504 19.242 8.83008 19.3918 9.40075 19.6581C11.9602 17.9938 13.9662 16.9785 14.7617 16.6456C14.191 16.4459 13.6549 16.3128 13.309 16.2129Z" fill="#012169"/>
<path d="M22.5607 15.914C23.0276 15.7642 23.5637 15.6311 24.0306 15.4979C22.6818 14.9487 20.987 14.3662 19.4652 14C19.2231 14.0666 18.4968 14.2497 17.9953 14.3994C18.5141 14.5492 20.2261 14.932 22.5607 15.914ZM14.0352 22.172C14.5885 22.4882 15.1765 22.9209 15.7472 23.2871C19.5344 20.4577 23.2697 18.2774 27.3682 17.0458C26.7976 16.7628 26.2961 16.5132 25.6562 16.2136C23.2006 16.8128 18.9983 18.4272 14.0352 22.172Z" fill="#E31837"/>
</g>
<defs>
<clipPath id="clip0_4094_4344">
<rect width="23" height="12" fill="white" transform="translate(8 14)"/>
</clipPath>
</defs>
</svg>
