<svg width="41" height="41" viewBox="0 0 41 41" fill="none" xmlns="http://www.w3.org/2000/svg">
<rect width="26" height="26" rx="13" fill="#F5B300"/>
<path d="M8.92179 6.9936C9.35146 7.11078 9.78113 7.1889 10.2108 7.30608C10.6405 7.42327 11.0701 7.50139 11.4998 7.61857C11.617 7.65763 11.6561 7.61857 11.6951 7.50139C11.8514 6.83735 12.0076 6.21237 12.1639 5.54834C12.2029 5.43115 12.242 5.39209 12.3592 5.43115C12.7498 5.54834 13.1013 5.62646 13.4919 5.70458C13.6091 5.74364 13.6091 5.7827 13.5701 5.86082C13.4138 6.4858 13.2576 7.14984 13.1013 7.77482C13.1013 7.81388 13.1013 7.85294 13.0623 7.93106C13.3748 8.00918 13.7263 8.08731 14.0388 8.16543C14.0779 8.16543 14.1169 8.08731 14.156 8.04824C14.2732 7.54045 14.3903 7.07172 14.5466 6.56392C14.5856 6.40768 14.6247 6.25143 14.6638 6.09519C14.6638 6.01707 14.7028 5.97801 14.781 6.01707C15.1716 6.13425 15.5622 6.21237 15.9918 6.32956C16.0309 6.32956 16.0309 6.36862 16.07 6.36862C15.9528 6.87641 15.8356 7.34515 15.7184 7.81388C15.6794 8.00918 15.6403 8.20449 15.5622 8.39979C15.5231 8.51698 15.5622 8.55604 15.6794 8.5951C16.109 8.79041 16.5387 8.98571 16.9684 9.18102C17.359 9.41538 17.7105 9.72787 17.984 10.1185C18.3355 10.7044 18.3746 11.3294 18.2183 11.9544C18.1011 12.384 17.9449 12.7746 17.6324 13.0871C17.398 13.3215 17.0856 13.4777 16.7731 13.5949C16.734 13.5949 16.6949 13.634 16.6168 13.634C16.7731 13.7512 16.9293 13.8293 17.0856 13.9465C17.5543 14.298 17.8668 14.7277 18.023 15.2745C18.1011 15.7042 18.0621 16.173 17.9449 16.6026C17.7887 17.1495 17.5934 17.6182 17.2418 18.0479C16.8121 18.5557 16.2653 18.8291 15.6403 18.9072C14.82 19.0244 14.0388 18.9463 13.2576 18.8291C13.1404 18.79 13.0623 18.8291 13.0232 18.9463C12.867 19.5713 12.7107 20.2353 12.5545 20.8603C12.5154 21.0165 12.5154 21.0556 12.3201 20.9775C11.9686 20.8993 11.5779 20.7822 11.2264 20.704C11.1092 20.665 11.1092 20.6259 11.1483 20.5478C11.3045 19.8838 11.4608 19.2197 11.6561 18.5947C11.6561 18.5166 11.6951 18.4776 11.617 18.4385C11.3045 18.3604 10.992 18.2823 10.6405 18.2041C10.5624 18.5557 10.4452 18.9072 10.367 19.2588C10.2889 19.6103 10.1717 19.9619 10.0936 20.3134C10.0546 20.3916 10.0546 20.4306 9.93738 20.3916C9.54677 20.2744 9.15615 20.1962 8.76554 20.1181C8.64836 20.0791 8.64836 20.04 8.68742 19.9619C8.84367 19.2978 8.99991 18.6338 9.19522 18.0088C9.19522 17.9698 9.23428 17.9307 9.23428 17.8526C8.33587 17.6182 7.43747 17.3838 6.5 17.1495C6.57812 16.9932 6.61718 16.8761 6.69531 16.7198C6.85155 16.3683 7.00779 16.0167 7.12498 15.7042C7.16404 15.587 7.2031 15.587 7.32028 15.587C7.59371 15.6652 7.9062 15.7433 8.17963 15.7823C8.49212 15.8605 8.72648 15.7042 8.76554 15.4308C9.27334 13.4387 9.78113 11.4466 10.2499 9.41538C10.328 9.10289 10.1327 8.75134 9.78113 8.63416C9.42958 8.51698 9.07803 8.43886 8.76554 8.36073C8.68742 8.36073 8.64836 8.32167 8.68742 8.24355C8.8046 7.81388 8.92179 7.34515 9.03897 6.91547C8.88273 7.03266 8.88273 7.03266 8.92179 6.9936ZM10.9139 16.6417C10.953 16.6417 10.992 16.6807 10.992 16.6807C11.617 16.837 12.281 17.0323 12.9451 17.0714C13.4138 17.1104 13.8435 17.1104 14.2732 16.9542C15.0153 16.7198 15.3278 15.7433 14.8981 15.1183C14.7028 14.8058 14.3903 14.6105 14.0779 14.4152C13.3748 14.0246 12.5545 13.8683 11.7732 13.7121C11.6561 13.673 11.6561 13.7121 11.617 13.8293C11.5389 14.2199 11.4217 14.5714 11.3436 14.9621C11.1873 15.5089 11.0701 16.0558 10.9139 16.6417ZM14.195 12.6575C14.2732 12.6575 14.4685 12.6184 14.6247 12.5793C15.3669 12.4231 15.7575 11.5637 15.3669 10.8997C15.1716 10.5482 14.82 10.3138 14.4685 10.1575C13.9216 9.92318 13.3748 9.80599 12.7888 9.64975C12.6717 9.61069 12.6326 9.64975 12.5935 9.76693C12.3982 10.5872 12.2029 11.3684 11.9686 12.1887C11.9295 12.2668 11.9686 12.3059 12.0467 12.345C12.2029 12.384 12.3201 12.4231 12.4763 12.4621C13.0623 12.5403 13.5701 12.6575 14.195 12.6575Z" fill="white"/>
<rect x="14" y="14" width="26" height="26" rx="13" stroke="url(#paint0_linear_4094_1176)" stroke-width="2"/>
<path d="M39.611 30.1448C37.8746 37.1091 30.82 41.3475 23.8541 39.6108C16.891 37.8746 12.6522 30.8204 14.3894 23.8566C16.1251 16.8914 23.1796 12.6528 30.1434 14.389C37.1089 16.1252 41.3475 23.1802 39.6108 30.1449L39.611 30.1448H39.611Z" fill="#50AF95"/>
<path fill-rule="evenodd" clip-rule="evenodd" d="M28.6467 28.4736C28.5548 28.4805 28.0798 28.5088 27.0203 28.5088C26.1776 28.5088 25.5792 28.4835 25.3693 28.4736C22.1126 28.3303 19.6818 27.7635 19.6818 27.0848C19.6818 26.4061 22.1126 25.84 25.3693 25.6945V27.909C25.5823 27.9243 26.1921 27.9604 27.0348 27.9604C28.0461 27.9604 28.5525 27.9182 28.6437 27.9098V25.696C31.8935 25.8408 34.3189 26.4076 34.3189 27.0848C34.3189 27.762 31.8942 28.3288 28.6437 28.4728L28.6467 28.4736ZM28.6467 25.467V23.4853H33.1821V20.4634H20.834V23.4853H25.3686V25.4662C21.6829 25.6355 18.9111 26.3655 18.9111 27.2403C18.9111 28.1151 21.6829 28.8443 25.3686 29.0144V35.3647H28.646V29.0121C32.3233 28.8428 35.0904 28.1136 35.0904 27.2395C35.0904 26.3655 32.3256 25.6363 28.646 25.4662L28.6467 25.467Z" fill="white"/>
<defs>
<linearGradient id="paint0_linear_4094_1176" x1="27" y1="14" x2="27" y2="40" gradientUnits="userSpaceOnUse">
<stop stop-color="#280000"/>
<stop offset="0.560034" stop-color="#090000"/>
</linearGradient>
</defs>
</svg>
