<svg width="168" height="142" viewBox="0 0 168 142" fill="none" xmlns="http://www.w3.org/2000/svg">
<rect x="11" width="120" height="120" rx="60" fill="#1E293B"/>
<circle cx="10" cy="18" r="2" fill="#D3C4FC"/>
<circle cx="143" cy="34" r="2" fill="#D3C4FC"/>
<circle cx="5" cy="119" r="2" fill="#D3C4FC"/>
<g filter="url(#filter0_d_2970_16446)">
<path d="M122.91 24C124.661 24 126 25.3054 126 27.0126V92.9874C126 94.6946 124.661 96 122.91 96H19.0899C17.339 96 16 94.6946 16 92.9874V27.0126C16 25.3054 17.339 24 19.0899 24H122.91Z" fill="#334155"/>
</g>
<rect x="74" y="38" width="42" height="10" rx="2" fill="#475569"/>
<rect x="74" y="56" width="38" height="6" rx="2" fill="#475569"/>
<rect x="74" y="66" width="30" height="6" rx="2" fill="#475569"/>
<rect x="74" y="76" width="33" height="6" rx="2" fill="#475569"/>
<g filter="url(#filter1_d_2970_16446)">
<circle cx="117" cy="89" r="20" fill="#FF3B30"/>
<circle cx="117" cy="89" r="20" stroke="url(#paint0_linear_2970_16446)" stroke-width="3"/>
</g>
<path d="M122 88H112C110.895 88 110 88.8954 110 90V96C110 97.1046 110.895 98 112 98H122C123.105 98 124 97.1046 124 96V90C124 88.8954 123.105 88 122 88Z" stroke="white" stroke-width="1.5" stroke-linecap="round" stroke-linejoin="round"/>
<path d="M117 94C117.552 94 118 93.5523 118 93C118 92.4477 117.552 92 117 92C116.448 92 116 92.4477 116 93C116 93.5523 116.448 94 117 94Z" stroke="white" stroke-width="2" stroke-linecap="round" stroke-linejoin="round"/>
<path d="M113 88V84C113 82.9391 113.421 81.9217 114.172 81.1716C114.922 80.4214 115.939 80 117 80C118.061 80 119.078 80.4214 119.828 81.1716C120.579 81.9217 121 82.9391 121 84V88" stroke="white" stroke-width="1.5" stroke-linecap="round" stroke-linejoin="round"/>
<mask id="mask0_2970_16446" style="mask-type:alpha" maskUnits="userSpaceOnUse" x="26" y="36" width="40" height="48">
<rect x="26" y="36" width="40" height="48" rx="4" fill="#F8F5FF"/>
</mask>
<g mask="url(#mask0_2970_16446)">
<rect x="26" y="36" width="40" height="48" rx="4" fill="#D3C4FC"/>
<path d="M39.9256 55.8767C39.8915 55.8761 39.8589 55.8624 39.8345 55.8384C39.8101 55.8145 39.7958 55.7821 39.7945 55.7479L39.6207 49.1446L37.2443 48.0057C37.2216 47.9956 37.2025 47.9789 37.1895 47.9577C37.1764 47.9365 37.1701 47.9119 37.1712 47.887C37.1714 47.8625 37.1787 47.8385 37.1921 47.8179C37.2055 47.7973 37.2244 47.781 37.2468 47.7709L38.8621 47.0285L37.2317 46.18C37.2089 46.167 37.1904 46.1477 37.1783 46.1244C37.1663 46.1011 37.1612 46.0748 37.1636 46.0487C37.1664 46.0226 37.1771 45.998 37.1942 45.9782C37.2113 45.9583 37.234 45.9441 37.2594 45.9376L38.9503 45.4806C38.8143 45.1801 38.4967 44.4856 38.3858 44.2053C38.3752 44.1699 38.3771 44.1319 38.3914 44.0978C38.4056 44.0637 38.4313 44.0357 38.464 44.0185C38.8873 43.8266 45.5503 45.1927 45.6183 45.2053C48.7179 45.8417 52.4526 46.68 52.6366 47.0487C52.9264 47.6295 52.6794 54.7101 52.6492 55.5156C52.6479 55.5487 52.6343 55.5801 52.6109 55.6035C52.5875 55.6269 52.5562 55.6406 52.5232 55.6419L39.9231 55.8742L39.9256 55.8767ZM37.6072 47.8921L39.8046 48.9451C39.8263 48.9551 39.8447 48.9712 39.8576 48.9913C39.8706 49.0114 39.8775 49.0348 39.8777 49.0587L40.0516 55.6115L52.3997 55.3843C52.5106 52.2455 52.6038 47.5562 52.3997 47.1648C52.2309 46.9906 50.0057 46.3719 45.5301 45.4553C42.0021 44.7331 39.3183 44.2811 38.6832 44.2533C38.8672 44.6851 39.2427 45.5033 39.2452 45.5159C39.2532 45.5331 39.2574 45.5519 39.2574 45.5709C39.2575 45.59 39.2534 45.6088 39.2455 45.6261C39.2376 45.6434 39.226 45.6587 39.2116 45.6711C39.1972 45.6835 39.1803 45.6925 39.162 45.6977L37.65 46.1068L39.2175 46.9249C39.2389 46.9364 39.2568 46.9536 39.2692 46.9745C39.2816 46.9954 39.2881 47.0193 39.288 47.0436C39.2867 47.0683 39.2787 47.0921 39.265 47.1125C39.2512 47.133 39.2322 47.1493 39.2099 47.1598L37.6072 47.8921Z" fill="#FF3B30"/>
<path d="M60 69.2376C58.5321 71.0873 56.7133 72.6276 54.6485 73.7696C52.5837 74.9116 50.3137 75.6327 47.9694 75.8914C46.6604 76.0362 45.3396 76.0362 44.0306 75.8914C41.6866 75.6326 39.4169 74.9117 37.3521 73.7702C35.2874 72.6286 33.4684 71.0891 32 69.2401C34.4889 67.4728 37.24 66.1094 40.1523 65.1998C43.9611 64.0147 48.0389 64.0147 51.8477 65.1998C54.7592 66.1101 57.5101 67.4726 60 69.2376Z" fill="#FF3B30"/>
<path d="M50.3984 55.8085C50.7386 53.6773 54.2717 53.152 54.0953 55.6646C54.0702 56.5374 53.7372 57.373 53.1553 58.0231C52.5505 58.6392 51.5753 58.9322 50.7865 58.5786" fill="white"/>
<path d="M51.5224 58.8614C51.2509 58.8634 50.982 58.8074 50.7337 58.6973C50.718 58.6905 50.7039 58.6806 50.6921 58.6682C50.6803 58.6558 50.6711 58.6412 50.665 58.6252C50.6589 58.6092 50.656 58.5922 50.6566 58.5751C50.6571 58.558 50.661 58.5411 50.6682 58.5256C50.6825 58.4943 50.7084 58.47 50.7405 58.4577C50.7725 58.4454 50.8081 58.4462 50.8395 58.4599C51.5376 58.773 52.4498 58.5559 53.0622 57.9322C53.725 57.2554 53.9215 56.3211 53.9669 55.6595C54.0274 54.7908 53.604 54.2202 52.8354 54.1444C51.8904 54.0383 50.7085 54.7075 50.527 55.8464C50.5215 55.8804 50.5027 55.9109 50.4749 55.9312C50.4471 55.9515 50.4124 55.9601 50.3784 55.955C50.3444 55.9494 50.314 55.9306 50.2937 55.9027C50.2734 55.8748 50.2649 55.8401 50.27 55.806C50.4766 54.5232 51.8022 53.7631 52.8656 53.8868C53.5788 53.9676 54.3096 54.4853 54.2264 55.6898C54.176 56.3994 53.9744 57.3994 53.2487 58.1317C52.7922 58.5941 52.1715 58.8565 51.5224 58.8614Z" fill="#FF3B30"/>
<path d="M41.5985 55.8085C41.2583 53.6773 37.7278 53.152 37.9017 55.6646C37.9288 56.5374 38.2625 57.3727 38.8441 58.0231C39.449 58.6392 40.4242 58.9322 41.213 58.5786" fill="white"/>
<path d="M40.4749 58.8614C40.1519 58.8554 39.8332 58.7854 39.5374 58.6554C39.2416 58.5254 38.9743 58.3379 38.7512 58.1039C38.0304 57.3716 37.8213 56.3716 37.7734 55.662C37.6877 54.4575 38.421 53.9399 39.1342 53.8591C40.1951 53.7353 41.5232 54.4954 41.7273 55.7782C41.7323 55.7957 41.7335 55.8141 41.7309 55.8321C41.7283 55.8501 41.7219 55.8674 41.7121 55.8827C41.7024 55.8981 41.6895 55.9112 41.6743 55.9212C41.6591 55.9312 41.642 55.9379 41.624 55.9407C41.6061 55.9436 41.5877 55.9426 41.5702 55.9379C41.5527 55.9331 41.5363 55.9247 41.5223 55.9132C41.5082 55.9016 41.4968 55.8872 41.4887 55.8709C41.4806 55.8546 41.476 55.8368 41.4753 55.8186C41.2913 54.6797 40.1094 54.0081 39.1644 54.1166C38.3958 54.205 37.975 54.7782 38.0355 55.6317C38.0808 56.2984 38.2749 57.2327 38.9402 57.9044C39.55 58.5281 40.4648 58.7453 41.1603 58.4322C41.176 58.425 41.193 58.421 41.2102 58.4204C41.2275 58.4198 41.2447 58.4227 41.2609 58.4288C41.277 58.4349 41.2918 58.4441 41.3044 58.456C41.317 58.4678 41.3271 58.482 41.3342 58.4978C41.3479 58.5293 41.3487 58.565 41.3364 58.5971C41.3242 58.6292 41.2998 58.6552 41.2687 58.6695C41.0208 58.7896 40.7501 58.855 40.4749 58.8614Z" fill="#FF3B30"/>
<path d="M42.0703 66.4597C42.0703 66.4597 43.0254 68.5455 45.8151 68.5455C46.5921 68.5668 47.3613 68.3858 48.0477 68.0202C48.734 67.6546 49.3141 67.117 49.7312 66.4597L49.3582 58.2681H42.4433L42.0703 66.4597Z" fill="white"/>
<path d="M45.8143 68.6768C42.9742 68.6768 41.9612 66.5355 41.9511 66.5153C41.9433 66.496 41.939 66.4755 41.9385 66.4547L42.3014 58.263C42.3033 58.2295 42.3179 58.198 42.3423 58.175C42.3667 58.152 42.3989 58.1392 42.4324 58.1393H49.3574C49.3909 58.1392 49.4231 58.152 49.4475 58.175C49.4719 58.198 49.4865 58.2295 49.4885 58.263L49.8614 66.4547C49.8615 66.4782 49.8563 66.5015 49.8463 66.5229C49.4147 67.198 48.8172 67.7506 48.1112 68.1278C47.4051 68.505 46.6142 68.694 45.8143 68.6768ZM42.2006 66.4345C42.3266 66.687 43.2867 68.4167 45.8143 68.4167C46.561 68.4334 47.2997 68.2595 47.961 67.9114C48.6222 67.5634 49.1843 67.0525 49.5943 66.4269L49.2289 58.3994H42.566L42.2006 66.4345Z" fill="#FF3B30"/>
<path d="M42.4432 61.7757C42.9772 62.5514 43.6951 63.1822 44.5323 63.6115C45.9032 64.3691 47.952 65.2251 49.6152 64.97L49.3405 61.5055C48.1235 61.6581 46.8928 61.6666 45.6739 61.5308C44.6004 61.4348 43.4915 61.3313 42.5087 60.9171C42.3399 60.8414 42.2315 61.4399 42.4432 61.7757Z" fill="#FF3B30"/>
<path d="M45.7171 62.3211H46.2841C47.5758 62.3217 48.8149 61.8086 49.7293 60.8942C50.6436 59.9799 51.1583 58.7393 51.1603 57.445V49.7003H40.8408V57.445C40.8428 58.7393 41.3575 59.9799 42.2719 60.8942C43.1862 61.8086 44.4253 62.3217 45.7171 62.3211Z" fill="white"/>
<path d="M51.1604 49.7V57.4447C51.1604 58.0862 51.0342 58.7215 50.7891 59.3142C50.5441 59.9068 50.1848 60.4453 49.732 60.8989C49.2792 61.3524 48.7416 61.7121 48.15 61.9573C47.5584 62.2026 46.9244 62.3287 46.2841 62.3284H45.7171C45.0769 62.3287 44.4428 62.2026 43.8512 61.9573C43.2596 61.7121 42.7221 61.3524 42.2692 60.8989C41.8164 60.4453 41.4572 59.9068 41.2121 59.3142C40.967 58.7215 40.8409 58.0862 40.8409 57.4447V49.7H51.1604ZM51.1604 49.4474H40.8409C40.774 49.4474 40.7099 49.4741 40.6627 49.5214C40.6154 49.5688 40.5889 49.633 40.5889 49.7V57.4447C40.5909 58.8089 41.1326 60.1168 42.0953 61.0814C43.058 62.0461 44.3632 62.589 45.7247 62.591H46.2917C47.6519 62.587 48.9551 62.0433 49.9162 61.0788C50.8772 60.1143 51.4179 58.8076 51.4199 57.4447V49.7C51.4199 49.633 51.3934 49.5688 51.3461 49.5214C51.2989 49.4741 51.2348 49.4474 51.1679 49.4474H51.1604Z" fill="#FF3B30"/>
<path d="M46.0814 57.4878C45.8481 57.489 45.6149 57.4747 45.3834 57.4449C45.3345 57.44 45.2876 57.4232 45.2467 57.3959C45.2059 57.3686 45.1723 57.3316 45.149 57.2883C44.7887 56.6873 45.7412 54.1268 45.9353 53.6192C45.9412 53.6033 45.9501 53.5886 45.9617 53.5761C45.9733 53.5637 45.9872 53.5536 46.0027 53.5466C46.0181 53.5395 46.0348 53.5356 46.0518 53.5351C46.0688 53.5346 46.0857 53.5374 46.1016 53.5435C46.134 53.5559 46.1601 53.5807 46.1743 53.6124C46.1884 53.6441 46.1895 53.6802 46.1772 53.7127C45.7463 54.8414 45.144 56.7732 45.3708 57.1545C45.3884 57.1822 45.401 57.1848 45.4136 57.1873C45.8735 57.2369 46.3373 57.2369 46.7971 57.1873C46.814 57.1852 46.8312 57.1865 46.8476 57.191C46.864 57.1956 46.8793 57.2034 46.8927 57.214C46.906 57.2246 46.9172 57.2377 46.9254 57.2526C46.9337 57.2676 46.9389 57.284 46.9408 57.3009C46.9432 57.3177 46.9423 57.3348 46.938 57.3513C46.9337 57.3677 46.9262 57.3831 46.9159 57.3965C46.9055 57.4099 46.8926 57.4212 46.8778 57.4295C46.863 57.4378 46.8467 57.443 46.8299 57.4449C46.5815 57.474 46.3315 57.4884 46.0814 57.4878Z" fill="#FF3B30"/>
<path d="M37.5139 73.9494C37.4823 73.9496 37.4517 73.9381 37.428 73.9172C37.4043 73.8962 37.3891 73.8672 37.3854 73.8357L36.7579 69.1717C36.7536 69.1373 36.7632 69.1025 36.7844 69.075C36.8057 69.0476 36.8369 69.0297 36.8713 69.0253C36.9053 69.0209 36.9397 69.0302 36.967 69.0509C36.9944 69.0717 37.0125 69.1024 37.0175 69.1364L37.6349 73.8029C37.6392 73.837 37.63 73.8714 37.6093 73.8988C37.5885 73.9262 37.5579 73.9444 37.524 73.9494H37.5139Z" fill="#FF3B30"/>
</g>
<defs>
<filter id="filter0_d_2970_16446" x="0" y="16" width="142" height="104" filterUnits="userSpaceOnUse" color-interpolation-filters="sRGB">
<feFlood flood-opacity="0" result="BackgroundImageFix"/>
<feColorMatrix in="SourceAlpha" type="matrix" values="0 0 0 0 0 0 0 0 0 0 0 0 0 0 0 0 0 0 127 0" result="hardAlpha"/>
<feOffset dy="8"/>
<feGaussianBlur stdDeviation="8"/>
<feColorMatrix type="matrix" values="0 0 0 0 0.0588235 0 0 0 0 0.0901961 0 0 0 0 0.164706 0 0 0 0.08 0"/>
<feBlend mode="normal" in2="BackgroundImageFix" result="effect1_dropShadow_2970_16446"/>
<feBlend mode="normal" in="SourceGraphic" in2="effect1_dropShadow_2970_16446" result="shape"/>
</filter>
<filter id="filter1_d_2970_16446" x="71.3" y="45.5" width="95.8" height="95.8" filterUnits="userSpaceOnUse" color-interpolation-filters="sRGB">
<feFlood flood-opacity="0" result="BackgroundImageFix"/>
<feColorMatrix in="SourceAlpha" type="matrix" values="0 0 0 0 0 0 0 0 0 0 0 0 0 0 0 0 0 0 127 0" result="hardAlpha"/>
<feOffset dx="2.2" dy="4.4"/>
<feGaussianBlur stdDeviation="13.2"/>
<feComposite in2="hardAlpha" operator="out"/>
<feColorMatrix type="matrix" values="0 0 0 0 0.0588235 0 0 0 0 0.0901962 0 0 0 0 0.164706 0 0 0 0.08 0"/>
<feBlend mode="normal" in2="BackgroundImageFix" result="effect1_dropShadow_2970_16446"/>
<feBlend mode="normal" in="SourceGraphic" in2="effect1_dropShadow_2970_16446" result="shape"/>
</filter>
<linearGradient id="paint0_linear_2970_16446" x1="117" y1="69" x2="117" y2="109" gradientUnits="userSpaceOnUse">
<stop stop-color="#280000"/>
<stop offset="0.560034" stop-color="#090000"/>
</linearGradient>
</defs>
</svg>
