<svg width="26" height="26" viewBox="0 0 26 26" fill="none" xmlns="http://www.w3.org/2000/svg">
<path d="M18.4163 8.66683V5.41683C18.4163 5.12951 18.3022 4.85396 18.099 4.6508C17.8959 4.44763 17.6203 4.3335 17.333 4.3335H6.49967C5.92504 4.3335 5.37394 4.56177 4.96761 4.9681C4.56128 5.37443 4.33301 5.92553 4.33301 6.50016M4.33301 6.50016C4.33301 7.0748 4.56128 7.6259 4.96761 8.03223C5.37394 8.43856 5.92504 8.66683 6.49967 8.66683H19.4997C19.787 8.66683 20.0625 8.78097 20.2657 8.98413C20.4689 9.18729 20.583 9.46284 20.583 9.75016V13.0002M4.33301 6.50016V19.5002C4.33301 20.0748 4.56128 20.6259 4.96761 21.0322C5.37394 21.4386 5.92504 21.6668 6.49967 21.6668H19.4997C19.787 21.6668 20.0625 21.5527 20.2657 21.3495C20.4689 21.1464 20.583 20.8708 20.583 20.5835V17.3335" stroke="#FF0008" stroke-width="1.5" stroke-linecap="round" stroke-linejoin="round"/>
<path d="M21.666 13V17.3333H17.3327C16.758 17.3333 16.2069 17.1051 15.8006 16.6987C15.3943 16.2924 15.166 15.7413 15.166 15.1667C15.166 14.592 15.3943 14.0409 15.8006 13.6346C16.2069 13.2283 16.758 13 17.3327 13H21.666Z" stroke="#FF0008" stroke-width="1.5" stroke-linecap="round" stroke-linejoin="round"/>
</svg>
