<svg width="97" height="40" viewBox="0 0 97 40" fill="none" xmlns="http://www.w3.org/2000/svg">
<line x1="0.5" y1="19.5" x2="96.5" y2="19.5" stroke="#334155" stroke-linecap="round" stroke-dasharray="4 4"/>
<path d="M94 13.5C92 13.5 88.3067 17.7907 88 18C87.6095 18.2665 84.4324 18.7027 84 19C83.6017 19.2739 83.3012 22.7072 82.7983 23.1667C82.363 23.5643 80.5642 23.6944 80.0517 24.2222C79.5391 24.75 79.0003 29.5 78.0898 29.5C77.5487 29.5 75.8677 27.125 75.4767 27.125C74.6947 27.125 75.4813 39 74.1661 39C73.3627 39 72.7444 34.7778 72.2042 34.25C71.7438 33.8001 70.951 33.1508 70.6347 32.6667C70.2508 32.0792 69.2467 29.5389 69.0207 29.025C68.7886 28.4972 66.2849 24.75 65.3316 24.75C64.1074 24.75 60.7428 29.2792 60.0406 29.5C59.3385 29.7208 55.8632 29.8151 54.9398 29.5C54.3678 29.3048 49.2849 10.5 47.877 10.5C46.7205 10.5 44.593 13.1389 43.9533 13.1389C43.029 13.1389 39.1191 1.00001 38.0677 1C36.7732 0.999979 32.413 17.7076 31.7897 18.4167C31.2993 18.9746 25.5275 22.6389 25.1194 23.1667C24.5421 23.9133 22.2443 30.5556 21.1335 30.5556C19.6593 30.5556 13.6839 13.1389 11.7787 13.1389C10.2031 13.1389 7.22796 21.9 3.99998 21.9" stroke="#1DCE5C" stroke-width="1.5" stroke-linecap="round"/>
</svg>
