<svg width="97" height="40" viewBox="0 0 97 40" fill="none" xmlns="http://www.w3.org/2000/svg">
<line x1="0.5" y1="19.5" x2="96.5" y2="19.5" stroke="#334155" stroke-linecap="round" stroke-dasharray="4 4"/>
<path d="M4 26.8611C6.76684 26.8611 8.65913 14.775 9.53368 14.775C10.0586 14.775 11.0716 18.3657 11.3782 18.575C11.7688 18.8415 13.2515 19.2277 13.6839 19.525C14.0822 19.7989 13.6988 22.7072 14.2017 23.1667C14.6369 23.5643 16.4358 23.6944 16.9483 24.2222C17.4609 24.75 17.9997 29.5 18.9102 29.5C19.4512 29.5 21.1323 27.125 21.5233 27.125C22.3053 27.125 21.5186 39 22.8339 39C23.6373 39 24.2556 34.7778 24.7958 34.25C25.2562 33.8001 26.049 33.1508 26.3653 32.6667C26.7492 32.0792 27.7533 29.5389 27.9793 29.025C28.2114 28.4972 30.7151 24.75 31.6684 24.75C32.8926 24.75 36.2572 29.2792 36.9594 29.5C37.6615 29.7208 41.1368 29.8151 42.0602 29.5C42.6322 29.3048 47.7151 10.5 49.1229 10.5C50.2795 10.5 52.407 13.1389 53.0467 13.1389C53.971 13.1389 57.8809 1.00001 58.9323 1C60.2268 0.999979 64.587 17.7076 65.2102 18.4167C65.7007 18.9746 71.4725 22.6389 71.8806 23.1667C72.4579 23.9133 74.7557 30.5556 75.8665 30.5556C77.3407 30.5556 83.3161 13.1389 85.2213 13.1389C86.7969 13.1389 89.772 21.9 93 21.9" stroke="#E82C81" stroke-width="1.5" stroke-linecap="round"/>
</svg>
