<svg width="40" height="40" viewBox="0 0 40 40" fill="none" xmlns="http://www.w3.org/2000/svg">
<rect width="40" height="40" rx="20" fill="#FF3B30"/>
<path d="M25 12.5H15C13.1583 12.5 11.6666 13.9833 11.6666 15.8083V24.1917C11.6666 26.0167 13.1583 27.5 15 27.5H25C26.8416 27.5 28.3333 26.0167 28.3333 24.1917V15.8083C28.3333 13.9833 26.8416 12.5 25 12.5ZM17.0833 15.975C18.1416 15.975 19.0083 16.8417 19.0083 17.9C19.0083 18.9583 18.1416 19.825 17.0833 19.825C16.025 19.825 15.1583 18.9583 15.1583 17.9C15.1583 16.8417 16.025 15.975 17.0833 15.975ZM20.3083 23.8833C20.2333 23.9667 20.1166 24.0167 20 24.0167H14.1666C14.05 24.0167 13.9333 23.9667 13.8583 23.8833C13.7833 23.8 13.7416 23.6833 13.75 23.5667C13.8916 22.1667 15.0083 21.0583 16.4083 20.925C16.85 20.8833 17.3083 20.8833 17.75 20.925C19.15 21.0583 20.275 22.1667 20.4083 23.5667C20.425 23.6833 20.3833 23.8 20.3083 23.8833ZM25.8333 23.9583H24.1666C23.825 23.9583 23.5416 23.675 23.5416 23.3333C23.5416 22.9917 23.825 22.7083 24.1666 22.7083H25.8333C26.175 22.7083 26.4583 22.9917 26.4583 23.3333C26.4583 23.675 26.175 23.9583 25.8333 23.9583ZM25.8333 20.625H22.5C22.1583 20.625 21.875 20.3417 21.875 20C21.875 19.6583 22.1583 19.375 22.5 19.375H25.8333C26.175 19.375 26.4583 19.6583 26.4583 20C26.4583 20.3417 26.175 20.625 25.8333 20.625ZM25.8333 17.2917H21.6666C21.325 17.2917 21.0416 17.0083 21.0416 16.6667C21.0416 16.325 21.325 16.0417 21.6666 16.0417H25.8333C26.175 16.0417 26.4583 16.325 26.4583 16.6667C26.4583 17.0083 26.175 17.2917 25.8333 17.2917Z" fill="white"/>
</svg>
