<svg width="40" height="40" viewBox="0 0 40 40" fill="none" xmlns="http://www.w3.org/2000/svg">
<rect width="40" height="40" rx="20" fill="#1E293B"/>
<g clip-path="url(#clip0_2970_10889)">
<path d="M15.8428 23.5985C15.2505 24.1744 14.6581 24.4362 14.0118 24.4362C12.6655 24.4362 11.6962 23.4415 11.6962 22.0803C11.6962 20.7191 12.6655 19.7244 14.0118 19.7244C14.6581 19.7244 15.3043 19.9861 15.8428 20.562V20.6144L16.7045 19.6197V19.5673C15.9505 18.782 15.0889 18.3632 14.0118 18.3632C12.9348 18.3632 11.9654 18.7296 11.2653 19.3579C10.5114 20.0385 10.0806 20.9809 10.0806 22.1326C10.0806 23.2844 10.4575 24.2268 11.2653 24.9074C11.9654 25.5356 12.9348 25.9021 14.0118 25.9021C15.0889 25.9021 15.9505 25.4833 16.6506 24.6456L15.8428 23.5985Z" fill="#004685"/>
<path d="M17.6108 25.7155H19.1187V18.4383H17.6108V25.7155Z" fill="#004685"/>
<path d="M25.1109 24.1565C24.68 24.4182 24.3031 24.5229 23.9799 24.5229C23.4953 24.5229 23.2799 24.2612 23.2799 23.6853V19.8111H24.8416V18.4499H23.2799V16.1987L21.772 16.984V18.4499H20.4795V19.8635H21.772V23.9471C21.772 25.0465 22.4721 25.8318 23.4953 25.8318C24.1954 25.8318 24.6262 25.6224 24.8416 25.5177L25.2186 24.1041L25.1109 24.1565Z" fill="#004685"/>
<path d="M26.3892 25.7155H27.897V18.4383H26.3892V25.7155Z" fill="#004685"/>
<path d="M28.8037 17.1974C27.4036 15.2603 25.0879 14.1085 22.7183 14.1085C20.3488 14.1085 18.0331 15.2603 16.633 17.1974L16.5791 17.3021H18.3563C19.541 16.098 21.1028 15.4697 22.7183 15.4697C24.3339 15.4697 25.8957 16.098 27.0804 17.3021H28.8576L28.8037 17.1974Z" fill="#EE1C25"/>
</g>
<defs>
<clipPath id="clip0_2970_10889">
<rect width="19" height="12" fill="white" transform="translate(10 14)"/>
</clipPath>
</defs>
</svg>
