<svg width="159" height="154" viewBox="0 0 159 154" fill="none" xmlns="http://www.w3.org/2000/svg">
<rect x="8" y="1" width="120" height="120" rx="60" fill="#1E293B"/>
<circle cx="7" cy="19" r="2" fill="#D3C4FC"/>
<circle cx="140" cy="35" r="2" fill="#D3C4FC"/>
<circle cx="2" cy="120" r="2" fill="#D3C4FC"/>
<g filter="url(#filter0_d_3022_25265)">
<rect x="27" y="8" width="82" height="105" rx="4" fill="#334155"/>
</g>
<path d="M74.2249 33.1205V34.3749H63.2735V26.294C63.2735 23.181 65.781 20.5691 68.8435 20.6212C71.4699 20.6671 73.6522 22.5997 74.1284 25.1404C74.242 25.7503 74.7799 26.1832 75.3896 26.1832C76.2031 26.1832 76.8111 25.4283 76.6557 24.6174C75.9248 20.8015 72.5762 17.9242 68.5927 18.0015C64.1836 18.0866 60.6934 21.8398 60.6934 26.3209V35.6864C60.6934 36.4099 61.2705 36.9962 61.9826 36.9962H75.5125C76.2246 36.9962 76.8017 36.4099 76.8017 35.6864V33.1216H74.2249V33.1205Z" fill="white"/>
<path d="M76.3122 46H60.6878C59.7563 46 59 45.2322 59 44.2858V31.5905C59 30.6441 59.7563 29.8764 60.6878 29.8764H76.3122C77.2437 29.8764 78 30.6441 78 31.5905V44.2858C78 45.2322 77.2454 46 76.3122 46Z" fill="#7A4DF5"/>
<path d="M69.8904 37.8186C70.3968 37.3219 70.6926 36.5589 70.5999 35.7227C70.4804 34.6453 69.701 33.7813 68.7413 33.6623C67.4623 33.5024 66.3808 34.6224 66.3808 36.0267C66.3808 36.7412 66.6629 37.3825 67.1074 37.8186C67.1138 37.8248 67.1162 37.8361 67.1138 37.845L66.1733 40.7152C65.9875 41.2815 66.3608 41.8823 66.8976 41.8823H70.1027C70.6394 41.8823 71.0127 41.2815 70.8265 40.7152L69.886 37.845C69.8816 37.8361 69.884 37.8262 69.8904 37.8186Z" fill="white"/>
<rect x="35" y="84" width="66" height="20" rx="3" fill="#475569"/>
<path d="M43.6595 98L41.8117 96.5975L43.4246 94.6115L41 93.9271L41.7049 91.6494L44.0227 92.648L43.8625 90H46.1482L45.988 92.648L48.2951 91.6494L49 93.9271L46.5861 94.6115L48.1883 96.5975L46.3405 98L45.0053 95.8008L43.6595 98Z" fill="#64748B"/>
<path d="M58.6595 98L56.8117 96.5975L58.4246 94.6115L56 93.9271L56.7049 91.6494L59.0227 92.648L58.8625 90H61.1482L60.988 92.648L63.2951 91.6494L64 93.9271L61.5861 94.6115L63.1883 96.5975L61.3405 98L60.0053 95.8008L58.6595 98Z" fill="#64748B"/>
<path d="M73.6595 98L71.8117 96.5975L73.4246 94.6115L71 93.9271L71.7049 91.6494L74.0227 92.648L73.8625 90H76.1482L75.988 92.648L78.2951 91.6494L79 93.9271L76.5861 94.6115L78.1883 96.5975L76.3405 98L75.0053 95.8008L73.6595 98Z" fill="#64748B"/>
<path d="M88.6595 98L86.8117 96.5975L88.4246 94.6115L86 93.9271L86.7049 91.6494L89.0227 92.648L88.8625 90H91.1482L90.988 92.648L93.2951 91.6494L94 93.9271L91.5861 94.6115L93.1883 96.5975L91.3405 98L90.0053 95.8008L88.6595 98Z" fill="#64748B"/>
<rect x="35" y="58" width="66" height="20" rx="3" fill="#475569"/>
<path d="M43.6595 72L41.8117 70.5975L43.4246 68.6115L41 67.9271L41.7049 65.6494L44.0227 66.648L43.8625 64H46.1482L45.988 66.648L48.2951 65.6494L49 67.9271L46.5861 68.6115L48.1883 70.5975L46.3405 72L45.0053 69.8008L43.6595 72Z" fill="#64748B"/>
<path d="M58.6595 72L56.8117 70.5975L58.4246 68.6115L56 67.9271L56.7049 65.6494L59.0227 66.648L58.8625 64H61.1482L60.988 66.648L63.2951 65.6494L64 67.9271L61.5861 68.6115L63.1883 70.5975L61.3405 72L60.0053 69.8008L58.6595 72Z" fill="#64748B"/>
<path d="M73.6595 72L71.8117 70.5975L73.4246 68.6115L71 67.9271L71.7049 65.6494L74.0227 66.648L73.8625 64H76.1482L75.988 66.648L78.2951 65.6494L79 67.9271L76.5861 68.6115L78.1883 70.5975L76.3405 72L75.0053 69.8008L73.6595 72Z" fill="#64748B"/>
<path d="M88.6595 72L86.8117 70.5975L88.4246 68.6115L86 67.9271L86.7049 65.6494L89.0227 66.648L88.8625 64H91.1482L90.988 66.648L93.2951 65.6494L94 67.9271L91.5861 68.6115L93.1883 70.5975L91.3405 72L90.0053 69.8008L88.6595 72Z" fill="#64748B"/>
<g filter="url(#filter1_d_3022_25265)">
<circle cx="108" cy="101" r="20" fill="#1DCE5C"/>
<circle cx="108" cy="101" r="20" stroke="url(#paint0_linear_3022_25265)" stroke-width="3"/>
</g>
<path d="M102 101L107 106L117 96" stroke="white" stroke-width="3" stroke-linecap="round" stroke-linejoin="round"/>
<defs>
<filter id="filter0_d_3022_25265" x="11" y="0" width="114" height="137" filterUnits="userSpaceOnUse" color-interpolation-filters="sRGB">
<feFlood flood-opacity="0" result="BackgroundImageFix"/>
<feColorMatrix in="SourceAlpha" type="matrix" values="0 0 0 0 0 0 0 0 0 0 0 0 0 0 0 0 0 0 127 0" result="hardAlpha"/>
<feOffset dy="8"/>
<feGaussianBlur stdDeviation="8"/>
<feColorMatrix type="matrix" values="0 0 0 0 0.0588235 0 0 0 0 0.0901961 0 0 0 0 0.164706 0 0 0 0.08 0"/>
<feBlend mode="normal" in2="BackgroundImageFix" result="effect1_dropShadow_3022_25265"/>
<feBlend mode="normal" in="SourceGraphic" in2="effect1_dropShadow_3022_25265" result="shape"/>
</filter>
<filter id="filter1_d_3022_25265" x="62.3" y="57.5" width="95.8" height="95.8" filterUnits="userSpaceOnUse" color-interpolation-filters="sRGB">
<feFlood flood-opacity="0" result="BackgroundImageFix"/>
<feColorMatrix in="SourceAlpha" type="matrix" values="0 0 0 0 0 0 0 0 0 0 0 0 0 0 0 0 0 0 127 0" result="hardAlpha"/>
<feOffset dx="2.2" dy="4.4"/>
<feGaussianBlur stdDeviation="13.2"/>
<feComposite in2="hardAlpha" operator="out"/>
<feColorMatrix type="matrix" values="0 0 0 0 0.0588235 0 0 0 0 0.0901962 0 0 0 0 0.164706 0 0 0 0.08 0"/>
<feBlend mode="normal" in2="BackgroundImageFix" result="effect1_dropShadow_3022_25265"/>
<feBlend mode="normal" in="SourceGraphic" in2="effect1_dropShadow_3022_25265" result="shape"/>
</filter>
<linearGradient id="paint0_linear_3022_25265" x1="108" y1="81" x2="108" y2="121" gradientUnits="userSpaceOnUse">
<stop stop-color="#280000"/>
<stop offset="0.560034" stop-color="#090000"/>
</linearGradient>
</defs>
</svg>
