<svg width="16" height="16" viewBox="0 0 16 16" fill="none" xmlns="http://www.w3.org/2000/svg">
<path d="M15.3337 10.6465C15.3337 13.2265 13.247 15.3132 10.667 15.3132L11.367 14.1465" stroke="white" stroke-linecap="round" stroke-linejoin="round"/>
<path d="M0.666992 5.31315C0.666992 2.73315 2.75366 0.646484 5.33366 0.646484L4.63366 1.81315" stroke="white" stroke-linecap="round" stroke-linejoin="round"/>
<path d="M4.41309 8.71289H6.28642C6.69975 8.71289 7.03975 9.08623 7.03975 9.46623C7.03975 9.87956 6.70642 10.2196 6.28642 10.2196H4.41309V8.71289Z" stroke="white" stroke-miterlimit="10" stroke-linecap="round" stroke-linejoin="round"/>
<path d="M4.41309 10.2197H6.55975C7.03309 10.2197 7.41975 10.5531 7.41975 10.9731C7.41975 11.3864 7.03309 11.7264 6.55975 11.7264H4.41309V10.2197Z" stroke="white" stroke-miterlimit="10" stroke-linecap="round" stroke-linejoin="round"/>
<path d="M5.61328 11.7197V12.4664" stroke="white" stroke-miterlimit="10" stroke-linecap="round" stroke-linejoin="round"/>
<path d="M5.61328 7.96631V8.71297" stroke="white" stroke-miterlimit="10" stroke-linecap="round" stroke-linejoin="round"/>
<path d="M9.89952 10.2198C9.89952 12.4931 8.05952 14.3331 5.78619 14.3331C3.51285 14.3331 1.67285 12.4931 1.67285 10.2198C1.67285 7.94647 3.51285 6.10645 5.78619 6.10645C5.89285 6.10645 5.99285 6.11313 6.10619 6.11979C8.12619 6.27313 9.73952 7.88645 9.89285 9.90645C9.89285 10.0065 9.89952 10.1065 9.89952 10.2198Z" stroke="white" stroke-miterlimit="10" stroke-linecap="round" stroke-linejoin="round"/>
<path d="M14.3331 5.77983C14.3331 8.05316 12.4931 9.89319 10.2198 9.89319H9.89311C9.73978 7.87319 8.12645 6.25982 6.10645 6.10649V5.77983C6.10645 3.50649 7.94645 1.6665 10.2198 1.6665C12.4931 1.6665 14.3331 3.50649 14.3331 5.77983Z" stroke="white" stroke-miterlimit="10" stroke-linecap="round" stroke-linejoin="round"/>
</svg>
