<svg width="21" height="20" viewBox="0 0 21 20" fill="none" xmlns="http://www.w3.org/2000/svg">
<path d="M19.2913 13.3081C19.2913 16.5331 16.683 19.1414 13.458 19.1414L14.333 17.6831" stroke="white" stroke-width="1.5" stroke-linecap="round" stroke-linejoin="round"/>
<path d="M0.958008 6.64144C0.958008 3.41644 3.56634 0.808105 6.79134 0.808105L5.91634 2.26644" stroke="white" stroke-width="1.5" stroke-linecap="round" stroke-linejoin="round"/>
<path d="M5.6416 10.8916H7.98327C8.49994 10.8916 8.92494 11.3583 8.92494 11.8333C8.92494 12.3499 8.50827 12.7749 7.98327 12.7749H5.6416V10.8916Z" stroke="white" stroke-width="1.5" stroke-miterlimit="10" stroke-linecap="round" stroke-linejoin="round"/>
<path d="M5.6416 12.7754H8.32494C8.9166 12.7754 9.39994 13.1921 9.39994 13.7171C9.39994 14.2337 8.9166 14.6587 8.32494 14.6587H5.6416V12.7754Z" stroke="white" stroke-width="1.5" stroke-miterlimit="10" stroke-linecap="round" stroke-linejoin="round"/>
<path d="M7.1416 14.6504V15.5837" stroke="white" stroke-width="1.5" stroke-miterlimit="10" stroke-linecap="round" stroke-linejoin="round"/>
<path d="M7.1416 9.9585V10.8918" stroke="white" stroke-width="1.5" stroke-miterlimit="10" stroke-linecap="round" stroke-linejoin="round"/>
<path d="M12.5001 12.775C12.5001 15.6167 10.2001 17.9167 7.35847 17.9167C4.5168 17.9167 2.2168 15.6167 2.2168 12.775C2.2168 9.93334 4.5168 7.6333 7.35847 7.6333C7.4918 7.6333 7.6168 7.64165 7.75847 7.64998C10.2835 7.84165 12.3001 9.85831 12.4918 12.3833C12.4918 12.5083 12.5001 12.6333 12.5001 12.775Z" stroke="white" stroke-width="1.5" stroke-miterlimit="10" stroke-linecap="round" stroke-linejoin="round"/>
<path d="M18.0421 7.22515C18.0421 10.0668 15.7421 12.3669 12.9005 12.3669H12.4921C12.3005 9.84185 10.2838 7.82514 7.75879 7.63347V7.22515C7.75879 4.38348 10.0588 2.0835 12.9005 2.0835C15.7421 2.0835 18.0421 4.38348 18.0421 7.22515Z" stroke="white" stroke-width="1.5" stroke-miterlimit="10" stroke-linecap="round" stroke-linejoin="round"/>
</svg>
