<svg width="40" height="40" viewBox="0 0 40 40" fill="none" xmlns="http://www.w3.org/2000/svg">
<g clip-path="url(#clip0_4094_1876)">
<path d="M20 0C31.0467 0 40 8.95509 40 20C40 31.0467 31.0467 40 20 40C8.95509 40 0 31.0458 0 20C0 8.95509 8.95509 0 20 0Z" fill="#F5AC37"/>
<path d="M20.7368 21.4123H28.3365C28.4985 21.4123 28.575 21.4123 28.5867 21.1999C28.6488 20.4268 28.6488 19.6492 28.5867 18.8752C28.5867 18.7249 28.512 18.6628 28.3491 18.6628H13.2245C13.0373 18.6628 12.9869 18.7249 12.9869 18.9004V21.1252C12.9869 21.4123 12.9869 21.4123 13.2866 21.4123H20.7368ZM27.738 16.0626C27.7596 16.0059 27.7596 15.9438 27.738 15.888C27.6111 15.6117 27.4608 15.348 27.2862 15.1005C27.0234 14.6775 26.7138 14.2878 26.361 13.9377C26.1945 13.7262 26.0019 13.5363 25.7859 13.3752C24.7041 12.4545 23.418 11.8029 22.0355 11.4753C21.338 11.3187 20.6252 11.244 19.9106 11.2503H13.1984C13.0112 11.2503 12.986 11.325 12.986 11.4879V15.9249C12.986 16.1121 12.986 16.1625 13.2236 16.1625H27.648C27.648 16.1625 27.7731 16.1373 27.7983 16.0626H27.7371H27.738ZM27.738 24.0124C27.5256 23.989 27.3114 23.989 27.099 24.0124H13.2371C13.0499 24.0124 12.9869 24.0124 12.9869 24.2626V28.6006C12.9869 28.8005 12.9869 28.8509 13.2371 28.8509H19.637C19.943 28.8743 20.249 28.8527 20.5487 28.7888C21.4775 28.7222 22.3911 28.5205 23.2623 28.1884C23.5791 28.0786 23.8851 27.9355 24.174 27.7636H24.2613C25.7616 26.9833 26.9802 25.7575 27.7488 24.2527C27.7488 24.2527 27.8361 24.0637 27.738 24.0142V24.0124ZM10.4749 31.1V31.0253V28.1128V27.1255V24.1879C10.4749 24.025 10.4749 24.0007 10.2751 24.0007H7.5625C7.4122 24.0007 7.3501 24.0007 7.3501 23.8009V21.4258H10.2499C10.4119 21.4258 10.4749 21.4258 10.4749 21.2134V18.8635C10.4749 18.7132 10.4749 18.6763 10.2751 18.6763H7.5625C7.4122 18.6763 7.3501 18.6763 7.3501 18.4764V16.2768C7.3501 16.1391 7.3501 16.1022 7.5499 16.1022H10.2373C10.4245 16.1022 10.4749 16.1022 10.4749 15.8646V9.12716C10.4749 8.92735 10.4749 8.87695 10.7251 8.87695H20.0996C20.78 8.90395 21.4559 8.97865 22.1246 9.10196C23.5026 9.35666 24.8265 9.84896 26.037 10.5519C26.8398 11.0244 27.5787 11.595 28.2366 12.252C28.7316 12.7659 29.178 13.3221 29.574 13.9143C29.9673 14.5146 30.294 15.1563 30.5505 15.8268C30.582 16.0014 30.7494 16.1193 30.924 16.0896H33.1615C33.4486 16.0896 33.4486 16.0896 33.4612 16.365V18.4152C33.4612 18.6151 33.3865 18.6655 33.1858 18.6655H31.4604C31.2858 18.6655 31.2354 18.6655 31.248 18.8905C31.3164 19.6519 31.3164 20.416 31.248 21.1774C31.248 21.3898 31.248 21.415 31.4865 21.415H33.4603C33.5476 21.5275 33.4603 21.64 33.4603 21.7534C33.4729 21.8983 33.4729 22.045 33.4603 22.1899V23.7028C33.4603 23.9152 33.3982 23.9782 33.2101 23.9782H30.8475C30.6828 23.9467 30.5226 24.052 30.4848 24.2158C29.9223 25.6783 29.0223 26.9896 27.8595 28.0408C27.4347 28.4233 26.9883 28.7834 26.5221 29.1155C26.0217 29.4035 25.5348 29.7032 25.0218 29.9408C24.0777 30.3656 23.0877 30.6788 22.0715 30.8777C21.1067 31.0505 20.1284 31.1288 19.1465 31.1153H10.4713V31.1027L10.4749 31.1Z" fill="#FEFEFD"/>
</g>
<defs>
<clipPath id="clip0_4094_1876">
<rect width="40" height="40" fill="white"/>
</clipPath>
</defs>
</svg>
