<svg width="40" height="40" viewBox="0 0 40 40" fill="none" xmlns="http://www.w3.org/2000/svg">
<rect width="40" height="40" rx="20" fill="#1E293B"/>
<g clip-path="url(#clip0_4006_12165)">
<path d="M26.9407 13.3344C25.6294 12.7029 24.242 12.2541 22.8154 12C22.6377 12.3307 22.4301 12.7755 22.2869 13.1293C20.7487 12.8913 19.2247 12.8913 17.7148 13.1293C17.5717 12.7756 17.3594 12.3307 17.1801 12C15.7521 12.2542 14.3635 12.7041 13.0515 13.3377C10.4408 17.3988 9.73301 21.3588 10.0869 25.2628C11.8185 26.5938 13.4966 27.4025 15.1465 27.9316C15.5565 27.3512 15.919 26.7367 16.2301 26.0945C15.6377 25.8623 15.0667 25.5763 14.5237 25.2396C14.6666 25.1306 14.8061 25.017 14.9421 24.899C18.2322 26.4831 21.8072 26.4831 25.0582 24.899C25.1947 25.0162 25.3342 25.1298 25.4765 25.2396C24.9326 25.5771 24.3605 25.8638 23.7669 26.0962C24.0798 26.741 24.4417 27.3561 24.8506 27.9332C26.502 27.4041 28.1817 26.5955 29.9133 25.2628C30.3286 20.7371 29.2041 16.8133 26.9407 13.3344V13.3344ZM16.6784 22.8619C15.6907 22.8619 14.8807 21.9128 14.8807 20.757C14.8807 19.6012 15.6734 18.6505 16.6784 18.6505C17.6834 18.6505 18.4934 19.5995 18.4761 20.757C18.4777 21.9128 17.6834 22.8619 16.6784 22.8619ZM23.3218 22.8619C22.3341 22.8619 21.5241 21.9128 21.5241 20.757C21.5241 19.6012 22.3168 18.6505 23.3218 18.6505C24.3268 18.6505 25.1368 19.5995 25.1195 20.757C25.1195 21.9128 24.3268 22.8619 23.3218 22.8619Z" fill="#5865F2"/>
</g>
<defs>
<clipPath id="clip0_4006_12165">
<rect width="20" height="16" fill="white" transform="translate(10 12)"/>
</clipPath>
</defs>
</svg>
