<svg width="161" height="156" viewBox="0 0 161 156" fill="none" xmlns="http://www.w3.org/2000/svg">
<rect x="8" y="1" width="120" height="120" rx="60" fill="#1E293B"/>
<circle cx="7" cy="19" r="2" fill="#D3C4FC"/>
<circle cx="140" cy="35" r="2" fill="#D3C4FC"/>
<circle cx="2" cy="120" r="2" fill="#D3C4FC"/>
<g filter="url(#filter0_d_3022_25371)">
<rect x="27" y="8" width="82" height="105" rx="4" fill="#334155"/>
</g>
<g filter="url(#filter1_d_3022_25371)">
<circle cx="110" cy="103" r="20" fill="#FF3B30"/>
<circle cx="110" cy="103" r="20" stroke="url(#paint0_linear_3022_25371)" stroke-width="3"/>
</g>
<path d="M104.167 98.8333H105C105.442 98.8333 105.866 98.6577 106.179 98.3452C106.491 98.0326 106.667 97.6087 106.667 97.1666C106.667 96.9456 106.754 96.7337 106.911 96.5774C107.067 96.4211 107.279 96.3333 107.5 96.3333H112.5C112.721 96.3333 112.933 96.4211 113.089 96.5774C113.246 96.7337 113.333 96.9456 113.333 97.1666C113.333 97.6087 113.509 98.0326 113.821 98.3452C114.134 98.6577 114.558 98.8333 115 98.8333H115.833C116.275 98.8333 116.699 99.0089 117.012 99.3215C117.324 99.634 117.5 100.058 117.5 100.5V108C117.5 108.442 117.324 108.866 117.012 109.178C116.699 109.491 116.275 109.667 115.833 109.667H104.167C103.725 109.667 103.301 109.491 102.988 109.178C102.676 108.866 102.5 108.442 102.5 108V100.5C102.5 100.058 102.676 99.634 102.988 99.3215C103.301 99.0089 103.725 98.8333 104.167 98.8333" stroke="white" stroke-width="2" stroke-linecap="round" stroke-linejoin="round"/>
<path d="M110 106.333C111.381 106.333 112.5 105.214 112.5 103.833C112.5 102.453 111.381 101.333 110 101.333C108.619 101.333 107.5 102.453 107.5 103.833C107.5 105.214 108.619 106.333 110 106.333Z" stroke="white" stroke-width="2" stroke-linecap="round" stroke-linejoin="round"/>
<path d="M56.7193 54.2688C56.6559 54.2677 56.5954 54.242 56.5502 54.1971C56.5049 54.1522 56.4783 54.0914 56.476 54.0273L56.153 41.6461L51.7398 39.5107C51.6976 39.4918 51.6622 39.4604 51.638 39.4207C51.6137 39.381 51.6019 39.3348 51.604 39.2882C51.6045 39.2421 51.6179 39.1972 51.6428 39.1586C51.6677 39.12 51.7029 39.0894 51.7444 39.0704L54.7443 37.6784L51.7164 36.0875C51.6741 36.0632 51.6397 36.027 51.6173 35.9833C51.5949 35.9396 51.5854 35.8903 51.59 35.8413C51.5951 35.7924 51.6149 35.7463 51.6467 35.709C51.6785 35.6718 51.7207 35.6453 51.7678 35.633L54.9082 34.776C54.6554 34.2126 54.0657 32.9106 53.8598 32.385C53.84 32.3187 53.8436 32.2474 53.8701 32.1834C53.8966 32.1195 53.9442 32.0669 54.0049 32.0346C54.7911 31.6748 67.1652 34.2363 67.2915 34.26C73.048 35.4531 79.9838 37.025 80.3255 37.7163C80.8637 38.8053 80.405 52.0814 80.3489 53.5918C80.3466 53.6538 80.3212 53.7127 80.2778 53.7566C80.2344 53.8005 80.1762 53.8261 80.1149 53.8285L56.7146 54.2641L56.7193 54.2688ZM52.4137 39.2977L56.4947 41.272C56.5349 41.2909 56.5691 41.3209 56.5931 41.3587C56.6171 41.3964 56.6301 41.4402 56.6304 41.4851L56.9533 53.7717L79.8856 53.3455C80.0915 47.4603 80.2646 38.668 79.8856 37.9341C79.572 37.6074 75.4395 36.4474 67.1277 34.7287C60.5757 33.3746 55.5914 32.5271 54.4121 32.475C54.7537 33.2846 55.451 34.8186 55.4557 34.8423C55.4706 34.8747 55.4784 34.9099 55.4785 34.9455C55.4786 34.9812 55.471 35.0165 55.4563 35.0489C55.4417 35.0813 55.4202 35.1101 55.3934 35.1333C55.3666 35.1565 55.3352 35.1735 55.3013 35.1832L52.4932 35.9502L55.4042 37.4843C55.444 37.5058 55.4772 37.5379 55.5003 37.5771C55.5234 37.6163 55.5355 37.6612 55.5353 37.7068C55.5328 37.753 55.518 37.7976 55.4925 37.836C55.4669 37.8744 55.4316 37.905 55.3902 37.9246L52.4137 39.2977Z" fill="white"/>
<path d="M94 79.3205C91.2739 82.7888 87.8962 85.6768 84.0615 87.818C80.2268 89.9593 76.0111 91.3114 71.6574 91.7964C69.2265 92.0679 66.7735 92.0679 64.3425 91.7964C59.9894 91.3112 55.7742 89.9595 51.9396 87.8192C48.1051 85.6788 44.727 82.792 42 79.3252C46.6223 76.0116 51.7315 73.4551 57.14 71.7497C64.2134 69.5276 71.7866 69.5276 78.86 71.7497C84.2671 73.4566 89.3759 76.0112 94 79.3205Z" fill="white"/>
<path d="M76.1689 54.141C76.8008 50.1449 83.3622 49.1601 83.0346 53.8711C82.9879 55.5077 82.3694 57.0745 81.2889 58.2933C80.1657 59.4486 78.3545 59.9978 76.8897 59.335" fill="#334155"/>
<path d="M78.2564 59.8652C77.7521 59.8689 77.2527 59.7639 76.7915 59.5575C76.7625 59.5446 76.7362 59.5261 76.7143 59.5029C76.6924 59.4797 76.6752 59.4523 76.6639 59.4223C76.6526 59.3923 76.6473 59.3604 76.6483 59.3283C76.6493 59.2962 76.6567 59.2647 76.6699 59.2355C76.6964 59.1769 76.7446 59.1312 76.8041 59.1082C76.8636 59.0852 76.9297 59.0867 76.9881 59.1124C78.2845 59.6995 79.9787 59.2923 81.1159 58.1228C82.3468 56.8539 82.7118 55.1021 82.796 53.8616C82.9084 52.2329 82.1221 51.1628 80.6947 51.0208C78.9397 50.8219 76.7447 52.0766 76.4078 54.212C76.3974 54.2758 76.3626 54.3329 76.311 54.371C76.2593 54.4091 76.1949 54.4251 76.1316 54.4156C76.0686 54.4051 76.0121 54.3699 75.9744 54.3176C75.9368 54.2654 75.921 54.2002 75.9304 54.1362C76.3142 51.731 78.7759 50.3058 80.7509 50.5378C82.0753 50.6894 83.4325 51.66 83.2781 53.9184C83.1845 55.2489 82.8101 57.1238 81.4622 58.4969C80.6145 59.3639 79.4618 59.8559 78.2564 59.8652Z" fill="white"/>
<path d="M59.8264 54.141C59.1946 50.1449 52.6378 49.1601 52.9608 53.8711C53.0111 55.5078 53.631 57.0739 54.7111 58.2933C55.8343 59.4486 57.6455 59.9978 59.1103 59.335" fill="#334155"/>
<path d="M57.7387 59.8652C57.1389 59.854 56.5472 59.7227 55.9977 59.4789C55.4483 59.2351 54.952 58.8836 54.5376 58.4448C53.1991 57.0718 52.8106 55.1968 52.7217 53.8664C52.5626 51.6079 53.9245 50.6373 55.2489 50.4858C57.2192 50.2538 59.6856 51.6789 60.0647 54.0842C60.074 54.117 60.0762 54.1514 60.0714 54.1852C60.0665 54.219 60.0547 54.2514 60.0365 54.2802C60.0184 54.309 59.9945 54.3335 59.9662 54.3523C59.938 54.371 59.9062 54.3835 59.8729 54.3889C59.8396 54.3943 59.8055 54.3925 59.7729 54.3836C59.7403 54.3747 59.71 54.3589 59.6839 54.3372C59.6578 54.3156 59.6365 54.2886 59.6215 54.258C59.6065 54.2275 59.598 54.194 59.5967 54.1599C59.255 52.0246 57.0601 50.7651 55.3051 50.9687C53.8777 51.1344 53.0961 52.2092 53.2084 53.8095C53.2927 55.0595 53.653 56.8113 54.8886 58.0708C56.0211 59.2402 57.72 59.6474 59.0117 59.0603C59.0409 59.0469 59.0724 59.0394 59.1044 59.0383C59.1365 59.0372 59.1684 59.0425 59.1984 59.054C59.2285 59.0654 59.2559 59.0827 59.2793 59.1049C59.3027 59.1272 59.3215 59.1538 59.3346 59.1834C59.36 59.2425 59.3615 59.3094 59.3388 59.3695C59.316 59.4297 59.2708 59.4785 59.2129 59.5054C58.7526 59.7305 58.2499 59.8532 57.7387 59.8652Z" fill="white"/>
<path d="M60.7021 74.1121C60.7021 74.1121 62.4759 78.0229 67.6567 78.0229C69.0997 78.0627 70.5283 77.7234 71.8029 77.0379C73.0776 76.3525 74.1549 75.3444 74.9295 74.1121L74.2368 58.7527H61.3948L60.7021 74.1121Z" fill="#334155"/>
<path d="M67.6549 78.2691C62.3805 78.2691 60.4991 74.2541 60.4804 74.2162C60.466 74.18 60.4581 74.1415 60.457 74.1025L61.131 58.7432C61.1345 58.6804 61.1618 58.6213 61.207 58.5782C61.2523 58.535 61.3121 58.5111 61.3743 58.5112H74.2351C74.2973 58.5111 74.3571 58.535 74.4024 58.5782C74.4476 58.6213 74.4749 58.6804 74.4784 58.7432L75.1711 74.1025C75.1712 74.1467 75.1616 74.1904 75.143 74.2304C74.3415 75.4962 73.2318 76.5324 71.9206 77.2396C70.6094 77.9468 69.1405 78.3013 67.6549 78.2691ZM60.9438 74.0647C61.1778 74.5381 62.9609 77.7814 67.6549 77.7814C69.0418 77.8127 70.4137 77.4866 71.6417 76.834C72.8697 76.1813 73.9135 75.2235 74.675 74.0505L73.9964 58.9988H61.6224L60.9438 74.0647Z" fill="white"/>
<path d="M61.3941 65.3295C62.3859 66.784 63.719 67.9667 65.2739 68.7716C67.8198 70.192 71.6247 71.7971 74.7135 71.3189L74.2034 64.8229C71.9433 65.109 69.6577 65.1249 67.3939 64.8702C65.4002 64.6903 63.341 64.4962 61.5158 63.7197C61.2022 63.5777 61.001 64.6998 61.3941 65.3295Z" fill="white"/>
<path d="M67.4748 66.352H68.5278C70.9267 66.3533 73.228 65.3911 74.9261 63.6767C76.6241 61.9624 77.58 59.6362 77.5837 57.2093V42.688H58.4189V57.2093C58.4227 59.6362 59.3786 61.9624 61.0766 63.6767C62.7746 65.3911 65.0759 66.3533 67.4748 66.352Z" fill="#334155"/>
<path d="M77.584 42.6875V57.2088C77.584 58.4117 77.3497 59.6028 76.8945 60.7141C76.4394 61.8254 75.7722 62.835 74.9313 63.6854C74.0903 64.5358 73.0919 65.2102 71.9933 65.6701C70.8946 66.13 69.7171 66.3663 68.5281 66.3657H67.4751C66.286 66.3663 65.1086 66.13 64.0099 65.6701C62.9112 65.2102 61.9128 64.5358 61.0719 63.6854C60.2309 62.835 59.5638 61.8254 59.1086 60.7141C58.6534 59.6028 58.4192 58.4117 58.4192 57.2088V42.6875H77.584ZM77.584 42.214H58.4192C58.2951 42.214 58.176 42.2639 58.0882 42.3527C58.0005 42.4415 57.9512 42.5619 57.9512 42.6875V57.2088C57.9549 59.7668 58.961 62.219 60.7489 64.0278C62.5368 65.8365 64.9606 66.8544 67.4891 66.8581H68.5421C71.0681 66.8506 73.4884 65.8311 75.2733 64.0228C77.0582 62.2144 78.0623 59.7644 78.066 57.2088V42.6875C78.066 42.5619 78.0167 42.4415 77.9289 42.3527C77.8412 42.2639 77.7221 42.214 77.598 42.214H77.584Z" fill="white"/>
<path d="M68.151 57.2897C67.7175 57.292 67.2845 57.2651 66.8546 57.2092C66.7638 57.2 66.6767 57.1685 66.6008 57.1173C66.5249 57.0661 66.4626 56.9969 66.4193 56.9156C65.7501 55.7888 67.5192 50.9878 67.8795 50.0361C67.8904 50.0061 67.9071 49.9787 67.9286 49.9553C67.9501 49.9319 67.9759 49.9131 68.0047 49.8999C68.0334 49.8867 68.0644 49.8794 68.096 49.8784C68.1275 49.8774 68.1589 49.8827 68.1884 49.8941C68.2485 49.9174 68.2971 49.9639 68.3234 50.0233C68.3497 50.0828 68.3516 50.1504 68.3288 50.2113C67.5285 52.3277 66.41 55.9497 66.8312 56.6647C66.8639 56.7168 66.8873 56.7215 66.9107 56.7262C67.7647 56.8191 68.6261 56.8191 69.4801 56.7262C69.5115 56.7223 69.5433 56.7247 69.5738 56.7333C69.6042 56.7419 69.6327 56.7565 69.6575 56.7763C69.6823 56.7961 69.703 56.8208 69.7183 56.8487C69.7337 56.8767 69.7434 56.9075 69.7468 56.9393C69.7514 56.9708 69.7497 57.0029 69.7418 57.0337C69.7338 57.0645 69.7198 57.0933 69.7006 57.1185C69.6814 57.1437 69.6573 57.1647 69.6299 57.1803C69.6025 57.1959 69.5722 57.2057 69.5409 57.2092C69.0796 57.2639 68.6154 57.2908 68.151 57.2897Z" fill="white"/>
<path d="M52.2399 88.1551C52.1811 88.1555 52.1243 88.134 52.0803 88.0947C52.0362 88.0554 52.0081 88.001 52.0012 87.942L50.8358 79.1971C50.8279 79.1324 50.8456 79.0672 50.8851 79.0157C50.9245 78.9643 50.9826 78.9307 51.0464 78.9224C51.1096 78.9143 51.1735 78.9316 51.2242 78.9705C51.275 79.0095 51.3086 79.067 51.3179 79.1308L52.4645 87.8805C52.4725 87.9444 52.4555 88.009 52.417 88.0603C52.3785 88.1117 52.3216 88.1457 52.2586 88.1551H52.2399Z" fill="white"/>
<path d="M83 25H93.5C94.6046 25 95.5 25.8954 95.5 27V35.5" stroke="#9774F7" stroke-width="2" stroke-linecap="round"/>
<path d="M83 75.5H93.5C94.6046 75.5 95.5 74.6046 95.5 73.5V65" stroke="#9774F7" stroke-width="2" stroke-linecap="round"/>
<path d="M53.5 25H43C41.8954 25 41 25.8954 41 27V35.5" stroke="#9774F7" stroke-width="2" stroke-linecap="round"/>
<path d="M53.5 75.5H43C41.8954 75.5 41 74.6046 41 73.5V65" stroke="#9774F7" stroke-width="2" stroke-linecap="round"/>
<defs>
<filter id="filter0_d_3022_25371" x="11" y="0" width="114" height="137" filterUnits="userSpaceOnUse" color-interpolation-filters="sRGB">
<feFlood flood-opacity="0" result="BackgroundImageFix"/>
<feColorMatrix in="SourceAlpha" type="matrix" values="0 0 0 0 0 0 0 0 0 0 0 0 0 0 0 0 0 0 127 0" result="hardAlpha"/>
<feOffset dy="8"/>
<feGaussianBlur stdDeviation="8"/>
<feColorMatrix type="matrix" values="0 0 0 0 0.0588235 0 0 0 0 0.0901961 0 0 0 0 0.164706 0 0 0 0.08 0"/>
<feBlend mode="normal" in2="BackgroundImageFix" result="effect1_dropShadow_3022_25371"/>
<feBlend mode="normal" in="SourceGraphic" in2="effect1_dropShadow_3022_25371" result="shape"/>
</filter>
<filter id="filter1_d_3022_25371" x="64.3" y="59.5" width="95.8" height="95.8" filterUnits="userSpaceOnUse" color-interpolation-filters="sRGB">
<feFlood flood-opacity="0" result="BackgroundImageFix"/>
<feColorMatrix in="SourceAlpha" type="matrix" values="0 0 0 0 0 0 0 0 0 0 0 0 0 0 0 0 0 0 127 0" result="hardAlpha"/>
<feOffset dx="2.2" dy="4.4"/>
<feGaussianBlur stdDeviation="13.2"/>
<feComposite in2="hardAlpha" operator="out"/>
<feColorMatrix type="matrix" values="0 0 0 0 0.0588235 0 0 0 0 0.0901962 0 0 0 0 0.164706 0 0 0 0.08 0"/>
<feBlend mode="normal" in2="BackgroundImageFix" result="effect1_dropShadow_3022_25371"/>
<feBlend mode="normal" in="SourceGraphic" in2="effect1_dropShadow_3022_25371" result="shape"/>
</filter>
<linearGradient id="paint0_linear_3022_25371" x1="110" y1="83" x2="110" y2="123" gradientUnits="userSpaceOnUse">
<stop stop-color="#280000"/>
<stop offset="0.560034" stop-color="#090000"/>
</linearGradient>
</defs>
</svg>
