<svg width="142" height="137" viewBox="0 0 142 137" fill="none" xmlns="http://www.w3.org/2000/svg">
<rect x="8" y="1" width="120" height="120" rx="60" fill="#1E293B"/>
<circle cx="7" cy="19" r="2" fill="#D3C4FC"/>
<circle cx="140" cy="35" r="2" fill="#D3C4FC"/>
<circle cx="2" cy="120" r="2" fill="#D3C4FC"/>
<g filter="url(#filter0_d_3022_25450)">
<rect x="27" y="8" width="82" height="105" rx="4" fill="#334155"/>
</g>
<path d="M50.2986 77.1438C48.3449 71.9225 45.0617 58.9097 56.239 51.5858C67.7265 44.0282 79.1364 50.2621 82.8092 54.5463C86.7165 59.1435 88.3581 65.3774 86.0924 69.5862C83.5903 74.2607 75.386 74.0268 74.291 68.2606C73.665 64.989 73.665 61.0913 68.3525 60.3918C63.5846 59.7676 60.2239 63.586 61.1619 69.5862C62.1775 75.8182 66.0849 80.4154 74.917 84" stroke="#CBD5E1" stroke-width="2" stroke-linecap="round" stroke-linejoin="round"/>
<path d="M63.1167 84C60.3498 81.9691 58.1219 79.2991 56.6221 76.216C55.1299 73.1349 54.4018 69.7351 54.5191 66.3127C54.833 54.8593 65.3824 53.5337 68.9777 53.8448C71.947 54.0786 79.4496 55.7946 80.7791 66.3127" stroke="#CBD5E1" stroke-width="2" stroke-linecap="round" stroke-linejoin="round"/>
<path d="M67.6494 66.39C67.6494 70.2857 69.9151 80.4946 83.0442 78.4675" stroke="#CBD5E1" stroke-width="2" stroke-linecap="round" stroke-linejoin="round"/>
<path d="M46 53.2999C48.6024 49.6908 52.0652 46.7831 56.0823 44.839C60.0917 42.893 64.5229 41.9728 68.9768 42.1576C82.1059 42.548 90 53.924 90 53.924" stroke="#CBD5E1" stroke-width="2" stroke-linecap="round" stroke-linejoin="round"/>
<path d="M51.9404 40.2098C59.1291 35.6126 71.634 33.6647 83.4355 40.2098" stroke="#CBD5E1" stroke-width="2" stroke-linecap="round" stroke-linejoin="round"/>
<path d="M91 20H99C100.105 20 101 20.8954 101 22V30" stroke="#9774F7" stroke-width="2" stroke-linecap="round"/>
<path d="M91 101H99C100.105 101 101 100.105 101 99V91" stroke="#9774F7" stroke-width="2" stroke-linecap="round"/>
<path d="M49 20H41C39.8954 20 39 20.8954 39 22V30" stroke="#9774F7" stroke-width="2" stroke-linecap="round"/>
<path d="M49 101H41C39.8954 101 39 100.105 39 99V91" stroke="#9774F7" stroke-width="2" stroke-linecap="round"/>
<path d="M125.919 86.9915L125.95 86.9934C127.763 87.1064 129.211 88.6972 128.975 90.5213C128.647 93.5484 127.83 98.9106 125.716 105.802L125.919 86.9915ZM125.919 86.9915H125.888M125.919 86.9915H125.888M125.888 86.9915C125.806 86.9915 125.625 86.9686 125.339 86.9012C125.068 86.8376 124.757 86.7479 124.438 86.6466C123.82 86.4505 123.217 86.2259 122.886 86.1023C121.754 85.5877 120.383 84.7357 118.886 83.8055C118.243 83.4057 117.576 82.9914 116.895 82.5833C115.788 81.9193 114.658 81.2839 113.597 80.813C112.555 80.3508 111.478 80 110.5 80C109.525 80 108.45 80.3435 107.408 80.7996C106.346 81.2641 105.217 81.8918 104.108 82.5514C103.347 83.004 102.604 83.4656 101.89 83.9087C100.473 84.7889 99.1733 85.5962 98.0854 86.115C97.8304 86.2226 97.2319 86.4466 96.5963 86.6453C96.2734 86.7462 95.9547 86.8363 95.6772 86.9002C95.3825 86.968 95.196 86.9915 95.1122 86.9915H95.0811M125.888 86.9915H95.0811M95.0811 86.9915L95.05 86.9934M95.0811 86.9915L95.05 86.9934M95.05 86.9934C93.2374 87.1064 91.7889 88.6972 92.0246 90.5213C92.3533 93.5486 93.1705 98.9111 95.2841 105.803L95.2865 105.811M95.05 86.9934L95.2865 105.811M95.2865 105.811L95.289 105.819M95.2865 105.811L95.289 105.819M95.289 105.819C98.1485 114.628 106.007 119.851 108.95 121.563L108.959 121.568M95.289 105.819L108.959 121.568M108.959 121.568L108.968 121.573M108.959 121.568L108.968 121.573M108.968 121.573C109.995 122.142 111.167 122.142 112.193 121.573L112.202 121.568M108.968 121.573L112.202 121.568M112.202 121.568L112.211 121.563M112.202 121.568L112.211 121.563M112.211 121.563C115.152 119.852 123.02 114.625 125.716 105.803L112.211 121.563Z" fill="#FF3B30" stroke="url(#paint0_linear_3022_25450)" stroke-width="2"/>
<path d="M115.167 98.1667H106.834C105.913 98.1667 105.167 98.9129 105.167 99.8334V104.833C105.167 105.754 105.913 106.5 106.834 106.5H115.167C116.087 106.5 116.834 105.754 116.834 104.833V99.8334C116.834 98.9129 116.087 98.1667 115.167 98.1667Z" stroke="white" stroke-width="1.5" stroke-linecap="round" stroke-linejoin="round"/>
<path d="M111 103.167C111.461 103.167 111.834 102.794 111.834 102.333C111.834 101.873 111.461 101.5 111 101.5C110.54 101.5 110.167 101.873 110.167 102.333C110.167 102.794 110.54 103.167 111 103.167Z" stroke="white" stroke-width="2" stroke-linecap="round" stroke-linejoin="round"/>
<path d="M107.667 98.1667V94.8333C107.667 93.9493 108.018 93.1014 108.643 92.4763C109.268 91.8512 110.116 91.5 111 91.5C111.884 91.5 112.732 91.8512 113.357 92.4763C113.982 93.1014 114.334 93.9493 114.334 94.8333V98.1667" stroke="white" stroke-width="1.5" stroke-linecap="round" stroke-linejoin="round"/>
<defs>
<filter id="filter0_d_3022_25450" x="11" y="0" width="114" height="137" filterUnits="userSpaceOnUse" color-interpolation-filters="sRGB">
<feFlood flood-opacity="0" result="BackgroundImageFix"/>
<feColorMatrix in="SourceAlpha" type="matrix" values="0 0 0 0 0 0 0 0 0 0 0 0 0 0 0 0 0 0 127 0" result="hardAlpha"/>
<feOffset dy="8"/>
<feGaussianBlur stdDeviation="8"/>
<feColorMatrix type="matrix" values="0 0 0 0 0.0588235 0 0 0 0 0.0901961 0 0 0 0 0.164706 0 0 0 0.08 0"/>
<feBlend mode="normal" in2="BackgroundImageFix" result="effect1_dropShadow_3022_25450"/>
<feBlend mode="normal" in="SourceGraphic" in2="effect1_dropShadow_3022_25450" result="shape"/>
</filter>
<linearGradient id="paint0_linear_3022_25450" x1="110.5" y1="81" x2="110.5" y2="121" gradientUnits="userSpaceOnUse">
<stop stop-color="#280000"/>
<stop offset="0.560034" stop-color="#090000"/>
</linearGradient>
</defs>
</svg>
