<svg width="40" height="40" viewBox="0 0 40 40" fill="none" xmlns="http://www.w3.org/2000/svg">
<rect width="40" height="40" rx="20" fill="#1E293B"/>
<g clip-path="url(#clip0_4094_3445)">
<path d="M27.4222 15.4985C27.2463 15.172 26.97 14.7522 26.543 14.4257C26.3672 14.2624 26.1411 14.1458 25.8397 14.0991C25.6137 14.0525 25.3876 13.9825 25.1364 13.9825H25.0862C24.7848 13.9825 24.2071 14.0292 23.8806 14.4723C23.7047 14.6356 23.6545 14.8921 23.7047 15.172C23.755 15.3819 23.8806 15.5452 24.1066 15.5918C24.1066 15.5918 24.1568 15.5918 24.2824 15.6385C24.2322 15.6385 24.1568 15.7551 24.1568 15.7551C24.0313 15.9184 23.755 16.1749 22.9512 16.1749H22.901C22.4991 16.1749 22.1474 16.0583 21.7455 15.5918C21.5195 15.2653 21.3437 14.7755 21.3437 13.9359C21.3437 13.516 21.2934 13.1195 21.1678 12.863C21.1176 12.6531 20.9418 12.4898 20.766 12.3732C20.6404 12.2566 20.4645 12.2099 20.2385 12.1633C20.0124 12 19.6608 12 19.3845 12C19.0328 12 18.857 12.0466 18.7565 12.2099C18.7565 12.2099 18.7565 12.2566 18.7063 12.2566H18.4802C18.3044 12.2566 18.1286 12.3032 17.9528 12.3032C17.6011 12.3499 17.4253 12.4665 17.1992 12.6297C17.149 12.6764 16.9732 12.8397 16.8978 13.0496C16.8476 13.2128 16.8978 13.3294 16.9481 13.3761C16.9481 13.3761 16.9481 13.4227 16.9983 13.4227C17.1239 13.3061 17.2997 13.2595 17.576 13.2595C17.9276 13.2595 18.4551 13.4227 18.6058 13.6793C18.8319 14.0525 18.7817 14.3324 18.7314 14.7055C18.6058 15.6152 18.2039 16.105 17.4504 16.1983H17.0485C16.4708 16.1983 16.0689 16.035 15.8931 15.7085C15.7675 15.5918 15.7675 15.5452 15.7675 15.5452C15.7675 15.5452 15.8178 15.5452 15.8931 15.4985C16.1192 15.3819 16.2448 15.2886 16.295 15.0787C16.3452 14.8688 16.295 14.5889 16.1192 14.379C15.8178 14.0991 15.4159 13.9592 14.9135 13.9592C14.6121 13.9592 14.386 14.0058 14.2102 14.0758C13.5069 14.2391 13.0046 14.6589 12.6027 15.4752C12.3013 16.0117 12.0752 16.758 12.025 17.5044C11.9747 18.2507 11.9747 18.9038 12.025 19.4869C12.1506 20.4431 12.3264 21.0496 12.5525 21.6327C12.7785 22.2857 13.1302 22.8688 13.4818 23.4052C13.6074 23.6152 13.6576 23.7318 13.7079 23.7784C13.7581 23.7318 13.8335 23.6618 13.8837 23.5685C14.0093 23.4519 14.4112 22.9854 14.5116 22.8222C14.6875 22.7055 14.8633 22.4023 14.9638 22.1691L15.014 22.0525L15.1396 22.1691C15.2652 22.2857 15.3154 22.379 15.3154 22.5423C15.3154 22.7055 15.2652 22.8688 15.1898 23.1953C15.0642 23.5219 14.8884 23.9417 14.6623 24.2682C14.6623 24.3149 14.6121 24.3848 14.6121 24.3848C14.4865 24.5948 14.4363 24.7114 14.4865 24.758C14.5368 24.758 14.7126 24.7114 14.8884 24.5481C15.1145 24.4548 15.5163 24.1283 16.0187 23.4286C16.4206 22.9388 16.722 22.4023 16.9983 21.8192L17.0485 21.7026L17.1741 21.7493C17.2244 21.7493 17.2997 21.7959 17.2997 21.8659C17.3499 21.9825 17.3499 22.0758 17.3499 22.2391C17.2997 22.6122 17.0485 23.1487 16.8978 23.5219C16.5964 24.1749 16.0187 24.9213 15.6168 25.4577C15.6168 25.4577 15.4912 25.5743 15.4912 25.621C15.5415 25.6676 15.6168 25.7376 15.7173 25.7843L15.8931 25.9009C16.4708 26.3207 16.9983 26.7172 17.6765 27.0204C18.2039 27.3003 19.284 27.8367 19.9873 27.9767C20.6906 27.8134 21.7707 27.277 22.2981 27.0204C23.0014 26.6472 23.5038 26.3207 24.0815 25.9009L24.2573 25.7843C24.3829 25.7376 24.4331 25.621 24.4834 25.621C24.4834 25.621 24.4331 25.5743 24.4331 25.5044L24.3829 25.4577C23.981 24.9213 23.4033 24.1749 23.1019 23.5219C22.9261 23.1487 22.7 22.5656 22.6498 22.2391C22.6498 22.0758 22.6498 21.9592 22.7 21.8659C22.7 21.8192 22.7503 21.8192 22.8256 21.7493C22.8758 21.7026 22.9512 21.7026 22.9512 21.7026L23.0014 21.8192C23.3028 22.4023 23.6294 22.8921 23.981 23.4286C24.5085 24.1283 24.9104 24.4548 25.0862 24.5481C25.262 24.6647 25.4379 24.758 25.4881 24.758H25.5634C25.6137 24.7114 25.5634 24.5948 25.4379 24.3848C25.4379 24.3382 25.3876 24.2682 25.3876 24.2682C25.1616 23.895 24.9857 23.5219 24.8601 23.1953C24.7346 22.8688 24.6843 22.7055 24.6843 22.5423C24.6843 22.379 24.7346 22.2157 24.8601 22.1691L24.9857 22.1224L25.036 22.2391C25.1616 22.449 25.3876 22.7755 25.4379 22.8921C25.5634 23.0554 25.9653 23.4752 26.0658 23.6385L26.2416 23.8017C26.2919 23.7551 26.3672 23.6385 26.4677 23.4752V23.4286C26.8193 22.8921 27.0956 22.309 27.397 21.656C27.6231 21.0029 27.7989 20.4665 27.9245 19.5102C27.9747 18.9271 28.0501 18.2741 27.9245 17.5277C27.9245 16.7813 27.7738 16.035 27.4222 15.4985Z" fill="url(#paint0_radial_4094_3445)"/>
</g>
<defs>
<radialGradient id="paint0_radial_4094_3445" cx="0" cy="0" r="1" gradientUnits="userSpaceOnUse" gradientTransform="translate(12.4387 14.8821) scale(17.6636 16.4019)">
<stop stop-color="#20C4F4"/>
<stop offset="0.304" stop-color="#09B4F0"/>
<stop offset="0.5" stop-color="#00AEEF"/>
<stop offset="0.8" stop-color="#0092C8"/>
<stop offset="1" stop-color="#006E98"/>
</radialGradient>
<clipPath id="clip0_4094_3445">
<rect width="16" height="16" fill="white" transform="translate(12 12)"/>
</clipPath>
</defs>
</svg>
