<svg width="40" height="40" viewBox="0 0 40 40" fill="none" xmlns="http://www.w3.org/2000/svg">
<rect width="40" height="40" rx="20" fill="#1E293B"/>
<path d="M20 27.5C24.1421 27.5 27.5 24.1421 27.5 20C27.5 15.8579 24.1421 12.5 20 12.5C15.8579 12.5 12.5 15.8579 12.5 20C12.5 24.1421 15.8579 27.5 20 27.5Z" stroke="#FF3B30" stroke-width="1.5" stroke-linecap="round" stroke-linejoin="round"/>
<path d="M21.6988 16.8755C21.4346 16.7287 21.1354 16.6565 20.8333 16.6667H19.1667C18.7246 16.6667 18.3007 16.8423 17.9882 17.1548C17.6756 17.4674 17.5 17.8913 17.5 18.3333C17.5 18.7754 17.6756 19.1993 17.9882 19.5118C18.3007 19.8244 18.7246 20 19.1667 20H20H20.8333C21.2754 20 21.6993 20.1756 22.0118 20.4882C22.3244 20.8007 22.5 21.2246 22.5 21.6667C22.5 22.1087 22.3244 22.5326 22.0118 22.8452C21.6993 23.1577 21.2754 23.3333 20.8333 23.3333H19.1667C18.8646 23.3435 18.5654 23.2713 18.3012 23.1245M20 15V16.6667M20 23.3333V25" stroke="#FF3B30" stroke-width="1.5" stroke-linecap="round" stroke-linejoin="round"/>
</svg>
