<svg width="40" height="40" viewBox="0 0 40 40" fill="none" xmlns="http://www.w3.org/2000/svg">
<rect width="40" height="40" rx="20" fill="#1E293B"/>
<path d="M23.75 26.75H16.25C13.25 26.75 12.5 26 12.5 23V17C12.5 14 13.25 13.25 16.25 13.25H23.75C26.75 13.25 27.5 14 27.5 17V23C27.5 26 26.75 26.75 23.75 26.75Z" stroke="#64748B" stroke-width="1.5" stroke-linecap="round" stroke-linejoin="round"/>
<path d="M21.5 17H25.25" stroke="#64748B" stroke-width="1.5" stroke-linecap="round" stroke-linejoin="round"/>
<path d="M22.25 20H25.25" stroke="#64748B" stroke-width="1.5" stroke-linecap="round" stroke-linejoin="round"/>
<path d="M23.75 23H25.25" stroke="#64748B" stroke-width="1.5" stroke-linecap="round" stroke-linejoin="round"/>
<path d="M17.3751 19.4679C18.1248 19.4679 18.7326 18.8602 18.7326 18.1104C18.7326 17.3607 18.1248 16.7529 17.3751 16.7529C16.6254 16.7529 16.0176 17.3607 16.0176 18.1104C16.0176 18.8602 16.6254 19.4679 17.3751 19.4679Z" stroke="#64748B" stroke-width="1.5" stroke-linecap="round" stroke-linejoin="round"/>
<path d="M20 23.2478C19.895 22.1603 19.0325 21.3053 17.945 21.2078C17.57 21.1703 17.1875 21.1703 16.805 21.2078C15.7175 21.3128 14.855 22.1603 14.75 23.2478" stroke="#64748B" stroke-width="1.5" stroke-linecap="round" stroke-linejoin="round"/>
</svg>
