<svg width="51" height="48" viewBox="0 0 51 48" fill="none" xmlns="http://www.w3.org/2000/svg">
<path d="M50.778 45.4326L44.4356 35.2925C44.4265 35.279 44.4265 35.2593 44.4336 35.2458C46.1696 31.9253 47.1652 28.143 47.1835 24.1221C47.2488 10.9883 36.7703 0.148916 23.8612 0.00156822C10.6909 -0.149931 -0.0558815 10.6947 0.000218647 24.1055C0.0532588 37.3025 10.7347 48.062 23.7071 47.9997C28.9112 47.9769 33.7205 46.2347 37.6149 43.3022C37.6261 43.2929 37.6424 43.2898 37.6567 43.295L49.143 47.5079C50.3853 47.9645 51.4849 46.5636 50.778 45.4326Z" fill="#1DCE5C"/>
<path d="M20.5753 25.2457C20.5191 24.1686 21.2545 23.2122 22.2779 23.058C25.6689 22.5487 27.2387 21.0719 27.2387 18.8879V18.8098C27.2387 16.6369 25.6386 15.123 22.9589 15.123C21.2002 15.123 19.6732 15.7336 18.2638 16.8739C17.4321 17.5486 16.2528 17.4762 15.5316 16.675L15.4888 16.6286C14.6669 15.7169 14.757 14.2717 15.6796 13.4724C17.5926 11.8191 19.9655 10.7754 23.0686 10.7754C28.2798 10.7754 31.7769 13.8024 31.7769 18.6527V18.7308C31.7769 23.6091 28.4421 25.8219 24.3246 26.5635C24.3068 26.5663 24.2943 26.5812 24.2925 26.5998L24.1098 28.1518C24.0037 29.0422 23.2781 29.7113 22.4178 29.7113C21.5576 29.7113 20.832 29.0422 20.7259 28.1518L20.5753 25.2457ZM22.326 31.4204C23.7024 31.4204 24.8193 32.584 24.8193 34.0189V34.1351C24.8193 35.571 23.7024 36.7346 22.326 36.7346C20.9497 36.7346 19.8336 35.571 19.8336 34.1351V34.0189C19.8318 32.584 20.9479 31.4204 22.326 31.4204Z" fill="white"/>
</svg>
