<svg width="70" height="70" viewBox="0 0 70 70" fill="none" xmlns="http://www.w3.org/2000/svg">
<path d="M14 29.1475C14 20.7818 20.7818 14 29.1475 14H40.8525C49.2182 14 56 20.7818 56 29.1475V40.8525C56 49.2182 49.2182 56 40.8525 56H29.1475C20.7818 56 14 49.2182 14 40.8525V29.1475Z" fill="#FF3B30"/>
<path d="M45.1723 34.7209L31.1711 26.6373C30.9852 26.5731 30.8158 26.4686 30.6749 26.3312C30.5342 26.1939 30.4255 26.0272 30.3566 25.8429C30.2878 25.6587 30.2606 25.4616 30.277 25.2656C30.2933 25.0697 30.3527 24.8798 30.4511 24.7095L30.4638 24.6876L45.5948 32.6552L46.3882 31.281C46.5307 31.0899 46.6279 30.8689 46.6725 30.6347C46.717 30.4005 46.7078 30.1592 46.6454 29.9291C46.583 29.699 46.4692 29.486 46.3125 29.3063C46.1557 29.1266 45.9602 28.9848 45.7407 28.8916L31.3684 23.4408C30.8305 23.3476 30.2769 23.4217 29.7825 23.6531C29.2881 23.8845 28.8766 24.262 28.6037 24.7346L21.4217 37.1741C21.1565 37.6335 21.0847 38.1795 21.2221 38.692C21.3595 39.2045 21.6949 39.6414 22.1545 39.9068L37.1723 48.5773C37.6319 48.8427 38.178 48.9146 38.6905 48.7774C39.2031 48.6402 39.64 48.305 39.9052 47.8456L45.9124 37.4408L45.9409 37.3942C46.1973 36.9501 46.2667 36.4223 46.1339 35.9269C46.0011 35.4315 45.6768 35.0091 45.2326 34.7526L45.1707 34.7184L45.1723 34.7209ZM38.7724 41.804C38.3128 41.5385 37.9775 41.1012 37.8402 40.5885C37.7029 40.0759 37.7749 39.5297 38.0404 39.0702C38.3058 38.6108 38.743 38.2756 39.2558 38.1385C39.7685 38.0014 40.3148 38.0736 40.7744 38.3391C41.002 38.4706 41.2015 38.6457 41.3615 38.8542C41.5214 39.0628 41.6387 39.3008 41.7067 39.5546C41.7747 39.8085 41.792 40.0732 41.7577 40.3337C41.7233 40.5943 41.638 40.8454 41.5065 41.073C41.3751 41.3005 41.2001 41.4998 40.9915 41.6597C40.783 41.8196 40.545 41.9368 40.2911 42.0047C40.0372 42.0726 39.7724 42.0898 39.5119 42.0554C39.2513 42.0209 39 41.9355 38.7724 41.804Z" fill="white"/>
</svg>
