<svg width="20" height="20" viewBox="0 0 20 20" fill="none" xmlns="http://www.w3.org/2000/svg">
<path d="M6.66634 11.6667L4.99967 11.6667C4.55765 11.6667 4.13372 11.4911 3.82116 11.1785C3.5086 10.866 3.33301 10.442 3.33301 10L3.33301 4.16667C3.33301 3.72464 3.5086 3.30072 3.82116 2.98816C4.13372 2.67559 4.55765 2.5 4.99967 2.5L14.9997 2.5C15.4417 2.5 15.8656 2.6756 16.1782 2.98816C16.4907 3.30072 16.6663 3.72464 16.6663 4.16667L16.6663 10C16.6663 10.442 16.4907 10.866 16.1782 11.1785C15.8656 11.4911 15.4417 11.6667 14.9997 11.6667L13.333 11.6667" stroke="white" stroke-width="1.5" stroke-linecap="round" stroke-linejoin="round"/>
<path d="M10 5.8335L10 17.5002L7.5 15.0002M12.5 15.0002L10 17.5002" stroke="white" stroke-width="1.5" stroke-linecap="round" stroke-linejoin="round"/>
</svg>
