<svg width="49" height="48" viewBox="0 0 49 48" fill="none" xmlns="http://www.w3.org/2000/svg">
<rect x="0.5" width="48" height="48" rx="24" fill="#FF3B30"/>
<path d="M29.5 20V17C29.5 16.7348 29.3946 16.4804 29.2071 16.2929C29.0196 16.1054 28.7652 16 28.5 16H18.5C17.9696 16 17.4609 16.2107 17.0858 16.5858C16.7107 16.9609 16.5 17.4696 16.5 18M16.5 18C16.5 18.5304 16.7107 19.0391 17.0858 19.4142C17.4609 19.7893 17.9696 20 18.5 20H30.5C30.7652 20 31.0196 20.1054 31.2071 20.2929C31.3946 20.4804 31.5 20.7348 31.5 21V24M16.5 18V30C16.5 30.5304 16.7107 31.0391 17.0858 31.4142C17.4609 31.7893 17.9696 32 18.5 32H30.5C30.7652 32 31.0196 31.8946 31.2071 31.7071C31.3946 31.5196 31.5 31.2652 31.5 31V28" stroke="white" stroke-width="1.5" stroke-linecap="round" stroke-linejoin="round"/>
<path d="M32.5 24V28H28.5C27.9696 28 27.4609 27.7893 27.0858 27.4142C26.7107 27.0391 26.5 26.5304 26.5 26C26.5 25.4696 26.7107 24.9609 27.0858 24.5858C27.4609 24.2107 27.9696 24 28.5 24H32.5Z" stroke="white" stroke-width="1.5" stroke-linecap="round" stroke-linejoin="round"/>
</svg>
