<svg width="20" height="20" viewBox="0 0 20 20" fill="none" xmlns="http://www.w3.org/2000/svg">
<path d="M6.66634 8.33333L4.99967 8.33333C4.55765 8.33333 4.13372 8.50893 3.82116 8.82149C3.5086 9.13405 3.33301 9.55797 3.33301 10L3.33301 15.8333C3.33301 16.2754 3.5086 16.6993 3.82116 17.0118C4.13372 17.3244 4.55765 17.5 4.99967 17.5L14.9997 17.5C15.4417 17.5 15.8656 17.3244 16.1782 17.0118C16.4907 16.6993 16.6663 16.2754 16.6663 15.8333L16.6663 10C16.6663 9.55797 16.4907 9.13405 16.1782 8.82149C15.8656 8.50893 15.4417 8.33333 14.9997 8.33333L13.333 8.33333" stroke="white" stroke-width="1.5" stroke-linecap="round" stroke-linejoin="round"/>
<path d="M10 14.1665L10 2.49984L7.5 4.99984M12.5 4.99984L10 2.49984" stroke="white" stroke-width="1.5" stroke-linecap="round" stroke-linejoin="round"/>
</svg>
