<svg width="228" height="54" viewBox="0 0 228 54" fill="none" xmlns="http://www.w3.org/2000/svg">
<path d="M55.1147 39.3033V14.5164H65.5803C65.8213 14.5164 66.1426 14.5279 66.5443 14.5508C66.9574 14.5623 67.3246 14.5967 67.6459 14.6541C69.1262 14.8836 70.3369 15.3713 71.2779 16.1172C72.2303 16.8631 72.9303 17.8041 73.3779 18.9402C73.8254 20.0648 74.0492 21.3213 74.0492 22.7098C74.0492 24.7869 73.5328 26.5656 72.5 28.0459C71.4672 29.5148 69.8492 30.4213 67.6459 30.7656L65.5803 30.9033H59.7967V39.3033H55.1147ZM69.0918 39.3033L64.2033 29.2164L69.0229 28.2869L74.3934 39.3033H69.0918ZM59.7967 26.5311H65.3738C65.6147 26.5311 65.8787 26.5197 66.1656 26.4967C66.4525 26.4738 66.7164 26.4279 66.9574 26.359C67.5885 26.1869 68.0762 25.9 68.4205 25.4984C68.7647 25.0852 69 24.632 69.1262 24.1385C69.2639 23.6336 69.3328 23.1574 69.3328 22.7098C69.3328 22.2623 69.2639 21.7918 69.1262 21.2984C69 20.7934 68.7647 20.3402 68.4205 19.9385C68.0762 19.5254 67.5885 19.2328 66.9574 19.0607C66.7164 18.9918 66.4525 18.9459 66.1656 18.923C65.8787 18.9 65.6147 18.8885 65.3738 18.8885H59.7967V26.5311Z" fill="#FF3B30"/>
<path d="M86.8186 39.8197C84.9137 39.8197 83.2325 39.4123 81.7752 38.5975C80.3293 37.7713 79.1932 36.641 78.367 35.2066C77.5522 33.7607 77.1448 32.1082 77.1448 30.2492C77.1448 28.218 77.5465 26.4508 78.3498 24.9475C79.153 23.4443 80.2604 22.2795 81.6719 21.4533C83.0834 20.6156 84.7071 20.1967 86.5432 20.1967C88.494 20.1967 90.1522 20.6557 91.5178 21.5738C92.8834 22.4918 93.8932 23.7828 94.5473 25.4467C95.2014 27.1107 95.4309 29.0672 95.2358 31.3164H90.6055V29.5951C90.6055 27.7016 90.3014 26.3418 89.6932 25.5156C89.0965 24.6779 88.1153 24.259 86.7498 24.259C85.1547 24.259 83.9784 24.7467 83.2211 25.7221C82.4752 26.6861 82.1022 28.1148 82.1022 30.0082C82.1022 31.741 82.4752 33.0836 83.2211 34.0361C83.9784 34.9771 85.0858 35.4475 86.5432 35.4475C87.4612 35.4475 88.2473 35.2467 88.9014 34.8451C89.5555 34.4434 90.0547 33.8639 90.3989 33.1066L95.0809 34.4492C94.3809 36.1475 93.2735 37.4672 91.7588 38.4082C90.2555 39.3492 88.6088 39.8197 86.8186 39.8197ZM80.6563 31.3164V27.8393H92.9809V31.3164H80.6563Z" fill="#FF3B30"/>
<path d="M106.662 39.8197C104.952 39.8197 103.454 39.3893 102.169 38.5287C100.884 37.668 99.8799 36.4975 99.1569 35.0172C98.4454 33.5369 98.0897 31.8672 98.0897 30.0082C98.0897 28.1148 98.4512 26.4336 99.1741 24.9648C99.9086 23.4844 100.936 22.3197 102.255 21.4705C103.575 20.6213 105.124 20.1967 106.903 20.1967C108.67 20.1967 110.156 20.627 111.361 21.4877C112.566 22.3484 113.478 23.5189 114.098 24.9992C114.718 26.4795 115.027 28.1492 115.027 30.0082C115.027 31.8672 114.712 33.5369 114.081 35.0172C113.461 36.4975 112.532 37.668 111.292 38.5287C110.053 39.3893 108.509 39.8197 106.662 39.8197ZM107.419 35.6541C108.463 35.6541 109.295 35.4189 109.915 34.9484C110.546 34.4779 111 33.818 111.275 32.9689C111.55 32.1197 111.688 31.1328 111.688 30.0082C111.688 28.8836 111.55 27.8967 111.275 27.0475C111 26.1984 110.558 25.5385 109.95 25.068C109.353 24.5975 108.567 24.3623 107.591 24.3623C106.547 24.3623 105.686 24.6205 105.009 25.1369C104.344 25.6418 103.85 26.3246 103.529 27.1852C103.208 28.0344 103.047 28.9754 103.047 30.0082C103.047 31.0525 103.202 32.0049 103.512 32.8656C103.822 33.7148 104.298 34.3918 104.941 34.8967C105.583 35.4016 106.409 35.6541 107.419 35.6541ZM111.688 39.3033V26.5656H111.103V14.5164H115.819V39.3033H111.688Z" fill="#FF3B30"/>
<path d="M125.837 39.3033L118.573 14.5164H123.496L128.144 31.5574L132.791 14.5508L137.714 14.5164L142.362 31.5574L147.009 14.5164H151.932L144.668 39.3033H140.055L135.253 22.5721L130.45 39.3033H125.837Z" fill="white"/>
<path d="M158.313 39.8197C156.982 39.8197 155.851 39.5672 154.922 39.0623C154.004 38.5459 153.304 37.8631 152.822 37.0139C152.351 36.1533 152.116 35.2066 152.116 34.1738C152.116 33.3131 152.248 32.5271 152.512 31.8156C152.776 31.1041 153.2 30.4787 153.786 29.9393C154.382 29.3885 155.18 28.9295 156.178 28.5623C156.867 28.3098 157.687 28.0861 158.64 27.891C159.592 27.6959 160.671 27.5123 161.876 27.3402C163.081 27.1566 164.406 26.9557 165.852 26.7377L164.165 27.6672C164.165 26.5656 163.901 25.7566 163.373 25.2402C162.846 24.7238 161.962 24.4656 160.723 24.4656C160.034 24.4656 159.317 24.632 158.571 24.9648C157.825 25.2975 157.303 25.8885 157.005 26.7377L152.77 25.3951C153.241 23.8574 154.124 22.6066 155.421 21.6426C156.718 20.6787 158.485 20.1967 160.723 20.1967C162.364 20.1967 163.821 20.4492 165.095 20.9541C166.368 21.459 167.332 22.3311 167.987 23.5705C168.354 24.259 168.572 24.9475 168.641 25.6361C168.709 26.3246 168.744 27.0934 168.744 27.9426V39.3033H164.647V35.482L165.232 36.2738C164.326 37.5246 163.345 38.4311 162.289 38.9934C161.245 39.5443 159.919 39.8197 158.313 39.8197ZM159.311 36.1361C160.172 36.1361 160.895 35.9869 161.48 35.6885C162.077 35.3787 162.547 35.0287 162.891 34.6385C163.247 34.2484 163.488 33.9213 163.614 33.6574C163.855 33.1525 163.993 32.5672 164.027 31.9016C164.073 31.2246 164.096 30.6623 164.096 30.2148L165.473 30.559C164.085 30.7885 162.96 30.9836 162.1 31.1443C161.239 31.2934 160.545 31.4311 160.017 31.5574C159.489 31.6836 159.024 31.8213 158.623 31.9705C158.164 32.1541 157.791 32.3549 157.504 32.573C157.228 32.7795 157.022 33.009 156.884 33.2615C156.758 33.5139 156.695 33.7951 156.695 34.1049C156.695 34.5295 156.798 34.8967 157.005 35.2066C157.223 35.5049 157.527 35.7344 157.917 35.8951C158.307 36.0557 158.772 36.1361 159.311 36.1361Z" fill="white"/>
<path d="M173.564 39.3033V14H178.246V39.3033H173.564Z" fill="white"/>
<path d="M183.75 39.3033V14H188.432V39.3033H183.75Z" fill="white"/>
<path d="M202.234 39.8197C200.329 39.8197 198.648 39.4123 197.19 38.5975C195.745 37.7713 194.608 36.641 193.782 35.2066C192.967 33.7607 192.56 32.1082 192.56 30.2492C192.56 28.218 192.962 26.4508 193.765 24.9475C194.568 23.4443 195.676 22.2795 197.087 21.4533C198.499 20.6156 200.122 20.1967 201.958 20.1967C203.909 20.1967 205.567 20.6557 206.933 21.5738C208.299 22.4918 209.308 23.7828 209.963 25.4467C210.617 27.1107 210.846 29.0672 210.651 31.3164H206.021V29.5951C206.021 27.7016 205.717 26.3418 205.108 25.5156C204.512 24.6779 203.531 24.259 202.165 24.259C200.57 24.259 199.394 24.7467 198.636 25.7221C197.89 26.6861 197.517 28.1148 197.517 30.0082C197.517 31.741 197.89 33.0836 198.636 34.0361C199.394 34.9771 200.501 35.4475 201.958 35.4475C202.876 35.4475 203.663 35.2467 204.317 34.8451C204.971 34.4434 205.47 33.8639 205.814 33.1066L210.496 34.4492C209.796 36.1475 208.689 37.4672 207.174 38.4082C205.671 39.3492 204.024 39.8197 202.234 39.8197ZM196.072 31.3164V27.8393H208.396V31.3164H196.072Z" fill="white"/>
<path d="M225.692 39.3033C224.407 39.5443 223.144 39.6475 221.905 39.6131C220.677 39.5902 219.575 39.3779 218.6 38.9762C217.636 38.5631 216.902 37.9033 216.397 36.9967C215.938 36.1475 215.697 35.2869 215.674 34.4148C215.651 33.5311 215.639 32.5328 215.639 31.4197V15.5492H220.321V31.1443C220.321 31.8672 220.327 32.5213 220.339 33.1066C220.362 33.6803 220.482 34.1393 220.7 34.4836C221.113 35.1377 221.773 35.4934 222.68 35.5508C223.586 35.6082 224.59 35.5623 225.692 35.4131V39.3033ZM212.472 24.3279V20.7131H225.692V24.3279H212.472Z" fill="white"/>
<path d="M5 20.1475C5 11.7818 11.7818 5 20.1475 5H31.8525C40.2182 5 47 11.7818 47 20.1475V31.8525C47 40.2182 40.2182 47 31.8525 47H20.1475C11.7818 47 5 40.2182 5 31.8525V20.1475Z" fill="#FF3B30"/>
<path d="M36.1723 25.7209L22.1711 17.6373C21.9852 17.5731 21.8158 17.4686 21.6749 17.3312C21.5342 17.1939 21.4255 17.0272 21.3566 16.8429C21.2878 16.6587 21.2606 16.4616 21.277 16.2656C21.2933 16.0697 21.3527 15.8798 21.4511 15.7095L21.4638 15.6876L36.5948 23.6552L37.3882 22.281C37.5307 22.0899 37.6279 21.8689 37.6725 21.6347C37.717 21.4005 37.7078 21.1592 37.6454 20.9291C37.583 20.699 37.4692 20.486 37.3125 20.3063C37.1557 20.1266 36.9602 19.9848 36.7407 19.8916L22.3684 14.4408C21.8305 14.3476 21.2769 14.4217 20.7825 14.6531C20.2881 14.8845 19.8766 15.262 19.6037 15.7346L12.4217 28.1741C12.1565 28.6335 12.0847 29.1795 12.2221 29.692C12.3595 30.2045 12.6949 30.6414 13.1545 30.9068L28.1723 39.5773C28.6319 39.8427 29.178 39.9146 29.6905 39.7774C30.2031 39.6402 30.64 39.305 30.9052 38.8456L36.9124 28.4408L36.9409 28.3942C37.1973 27.9501 37.2667 27.4223 37.1339 26.9269C37.0011 26.4315 36.6768 26.0091 36.2326 25.7526L36.1707 25.7184L36.1723 25.7209ZM29.7724 32.804C29.3128 32.5385 28.9775 32.1012 28.8402 31.5885C28.7029 31.0759 28.7749 30.5297 29.0404 30.0702C29.3058 29.6108 29.743 29.2756 30.2558 29.1385C30.7685 29.0014 31.3148 29.0736 31.7744 29.3391C32.002 29.4706 32.2015 29.6457 32.3615 29.8542C32.5214 30.0628 32.6387 30.3008 32.7067 30.5546C32.7747 30.8085 32.792 31.0732 32.7577 31.3337C32.7233 31.5943 32.638 31.8454 32.5065 32.073C32.3751 32.3005 32.2001 32.4998 31.9915 32.6597C31.783 32.8196 31.545 32.9368 31.2911 33.0047C31.0372 33.0726 30.7724 33.0898 30.5119 33.0554C30.2513 33.0209 30 32.9355 29.7724 32.804Z" fill="white"/>
</svg>
