<svg width="40" height="40" viewBox="0 0 40 40" fill="none" xmlns="http://www.w3.org/2000/svg">
<rect width="40" height="40" rx="20" fill="#1E293B"/>
<path d="M22.8709 15.8066H18.1172V24.1928H22.8709V15.8066Z" fill="#FF5F00"/>
<path d="M18.4192 20.0003C18.4185 19.1927 18.6049 18.3954 18.9644 17.669C19.3239 16.9425 19.8471 16.3059 20.4943 15.8073C19.6928 15.1888 18.7303 14.8042 17.7167 14.6975C16.7031 14.5907 15.6794 14.766 14.7625 15.2033C13.8456 15.6407 13.0726 16.3225 12.5317 17.1708C11.9909 18.019 11.7041 18.9996 11.7041 20.0003C11.7041 21.001 11.9909 21.9816 12.5317 22.8299C13.0726 23.6781 13.8456 24.3599 14.7625 24.7973C15.6794 25.2347 16.7031 25.41 17.7167 25.3032C18.7303 25.1964 19.6928 24.8118 20.4943 24.1934C19.8471 23.6947 19.3239 23.0581 18.9644 22.3316C18.6049 21.6052 18.4185 20.808 18.4192 20.0003Z" fill="#EB001B"/>
<path d="M29.284 20.0003C29.2841 21.001 28.9973 21.9816 28.4565 22.8298C27.9157 23.6781 27.1427 24.3599 26.2258 24.7973C25.3089 25.2347 24.2852 25.41 23.2716 25.3032C22.2581 25.1964 21.2956 24.8118 20.4941 24.1934C21.1408 23.6942 21.6635 23.0575 22.0229 22.3311C22.3824 21.6048 22.5691 20.8078 22.5691 20.0003C22.5691 19.1928 22.3824 18.3958 22.0229 17.6695C21.6635 16.9431 21.1408 16.3064 20.4941 15.8073C21.2956 15.1888 22.2581 14.8042 23.2716 14.6975C24.2852 14.5907 25.3089 14.766 26.2258 15.2033C27.1427 15.6407 27.9157 16.3225 28.4565 17.1708C28.9973 18.0191 29.2841 18.9996 29.284 20.0003Z" fill="#F79E1B"/>
<path d="M28.7653 23.3056V23.134H28.8358V23.099H28.6562V23.134H28.7268V23.3056H28.7653ZM29.114 23.3056V23.0986H29.059L28.9956 23.241L28.9323 23.0986H28.8772V23.3056H28.9161V23.1495L28.9755 23.2841H29.0158L29.0752 23.1492V23.3056H29.114Z" fill="#F79E1B"/>
</svg>
