<svg width="40" height="40" viewBox="0 0 40 40" fill="none" xmlns="http://www.w3.org/2000/svg">
<rect width="40" height="40" rx="20" fill="#1E293B"/>
<path d="M23.333 15H25.833C26.054 15 26.266 15.0878 26.4223 15.2441C26.5785 15.4004 26.6663 15.6123 26.6663 15.8333V25C26.6663 25.442 26.4907 25.866 26.1782 26.1785C25.8656 26.4911 25.4417 26.6667 24.9997 26.6667C24.5576 26.6667 24.1337 26.4911 23.8212 26.1785C23.5086 25.866 23.333 25.442 23.333 25V14.1667C23.333 13.9457 23.2452 13.7337 23.0889 13.5774C22.9326 13.4211 22.7207 13.3333 22.4997 13.3333H14.1663C13.9453 13.3333 13.7334 13.4211 13.5771 13.5774C13.4208 13.7337 13.333 13.9457 13.333 14.1667V24.1667C13.333 24.8297 13.5964 25.4656 14.0652 25.9344C14.5341 26.4033 15.17 26.6667 15.833 26.6667H24.9997M16.6663 16.6667H19.9997M16.6663 20H19.9997M16.6663 23.3333H19.9997" stroke="#64748B" stroke-width="1.5" stroke-linecap="round" stroke-linejoin="round"/>
</svg>
