<svg width="21" height="20" viewBox="0 0 21 20" fill="none" xmlns="http://www.w3.org/2000/svg">
<path d="M19.2087 16.7248V10.1498C19.2087 5.48316 15.4587 1.6665 10.8753 1.6665C6.29199 1.6665 2.54199 5.48316 2.54199 10.1498V16.7248C2.54199 17.7748 3.16698 18.0582 3.93364 17.3582L4.76698 16.5998C5.07531 16.3165 5.57533 16.3165 5.88367 16.5998L7.55033 18.1248C7.85867 18.4082 8.35864 18.4082 8.66697 18.1248L10.3336 16.5998C10.642 16.3165 11.142 16.3165 11.4503 16.5998L13.117 18.1248C13.4253 18.4082 13.9253 18.4082 14.2337 18.1248L15.9003 16.5998C16.2087 16.3165 16.7087 16.3165 17.017 16.5998L17.8503 17.3582C18.5837 18.0582 19.2087 17.7748 19.2087 16.7248Z" stroke="white" stroke-width="1.5" stroke-linecap="round" stroke-linejoin="round"/>
<path d="M7.54199 11.6665C9.51699 13.1498 12.2337 13.1498 14.2087 11.6665" stroke="white" stroke-width="1.5" stroke-linecap="round" stroke-linejoin="round"/>
<path d="M10.8747 9.16683C11.7951 9.16683 12.5413 8.42064 12.5413 7.50016C12.5413 6.57969 11.7951 5.8335 10.8747 5.8335C9.9542 5.8335 9.20801 6.57969 9.20801 7.50016C9.20801 8.42064 9.9542 9.16683 10.8747 9.16683Z" stroke="white" stroke-width="1.5" stroke-linecap="round" stroke-linejoin="round"/>
</svg>
