<svg width="40" height="40" viewBox="0 0 40 40" fill="none" xmlns="http://www.w3.org/2000/svg">
<rect width="40" height="40" rx="20" fill="#1E293B"/>
<path d="M20.0149 13.1825C17.5324 13.1825 15.5149 15.2 15.5149 17.6825V19.85C15.5149 20.3075 15.3199 21.005 15.0874 21.395L14.2249 22.8275C13.6924 23.7125 14.0599 24.695 15.0349 25.025C18.2674 26.105 21.7549 26.105 24.9874 25.025C25.8949 24.725 26.2924 23.6525 25.7974 22.8275L24.9349 21.395C24.7099 21.005 24.5149 20.3075 24.5149 19.85V17.6825C24.5149 15.2075 22.4899 13.1825 20.0149 13.1825Z" stroke="#64748B" stroke-width="1.5" stroke-miterlimit="10" stroke-linecap="round"/>
<path d="M21.4029 13.4C21.1704 13.3325 20.9304 13.28 20.6829 13.25C19.9629 13.16 19.2729 13.2125 18.6279 13.4C18.8454 12.845 19.3854 12.455 20.0154 12.455C20.6454 12.455 21.1854 12.845 21.4029 13.4Z" stroke="#64748B" stroke-width="1.5" stroke-miterlimit="10" stroke-linecap="round" stroke-linejoin="round"/>
<path d="M22.2646 25.295C22.2646 26.5325 21.2521 27.545 20.0146 27.545C19.3996 27.545 18.8296 27.29 18.4246 26.885C18.0196 26.48 17.7646 25.91 17.7646 25.295" stroke="#64748B" stroke-width="1.5" stroke-miterlimit="10"/>
</svg>
