<svg width="40" height="40" viewBox="0 0 40 40" fill="none" xmlns="http://www.w3.org/2000/svg">
<rect width="40" height="40" rx="20" fill="#334155"/>
<path d="M23.3333 13.5417C23.3333 14.575 22.4916 15.4167 21.4583 15.4167H18.5416C18.025 15.4167 17.5583 15.2084 17.2166 14.8667C16.875 14.525 16.6666 14.0584 16.6666 13.5417C16.6666 12.5084 17.5083 11.6667 18.5416 11.6667H21.4583C21.975 11.6667 22.4416 11.875 22.7833 12.2167C23.125 12.5584 23.3333 13.025 23.3333 13.5417Z" fill="#FF3B30"/>
<path d="M25.6917 14.1917C25.5 14.0334 25.2834 13.9084 25.05 13.8167C24.8084 13.725 24.5667 13.9167 24.5167 14.1667C24.2334 15.5917 22.975 16.6667 21.4584 16.6667H18.5417C17.7084 16.6667 16.925 16.3417 16.3334 15.75C15.9 15.3167 15.6 14.7667 15.4834 14.175C15.4334 13.925 15.1834 13.725 14.9417 13.825C13.975 14.2167 13.3334 15.1 13.3334 16.875V25C13.3334 27.5 14.825 28.3334 16.6667 28.3334H23.3334C25.175 28.3334 26.6667 27.5 26.6667 25V16.875C26.6667 15.5167 26.2917 14.6834 25.6917 14.1917ZM16.6667 20.2084H20C20.3417 20.2084 20.625 20.4917 20.625 20.8334C20.625 21.175 20.3417 21.4584 20 21.4584H16.6667C16.325 21.4584 16.0417 21.175 16.0417 20.8334C16.0417 20.4917 16.325 20.2084 16.6667 20.2084ZM23.3334 24.7917H16.6667C16.325 24.7917 16.0417 24.5084 16.0417 24.1667C16.0417 23.825 16.325 23.5417 16.6667 23.5417H23.3334C23.675 23.5417 23.9584 23.825 23.9584 24.1667C23.9584 24.5084 23.675 24.7917 23.3334 24.7917Z" fill="#FF3B30"/>
</svg>
