<svg width="40" height="40" viewBox="0 0 40 40" fill="none" xmlns="http://www.w3.org/2000/svg">
<rect width="40" height="40" rx="20" fill="#1E293B"/>
<g clip-path="url(#clip0_4006_14145)">
<path d="M24.8751 13.2451C24.1133 12.4037 22.7362 12.043 20.9745 12.043H15.8615C15.6872 12.043 15.5186 12.1032 15.3861 12.2129C15.2535 12.3226 15.1657 12.4745 15.1384 12.6413L13.0094 25.7257C12.9671 25.9837 13.1733 26.2173 13.4431 26.2173H16.5997L17.3925 21.3447L17.3679 21.4973C17.4243 21.1529 17.7283 20.8988 18.0883 20.8988H19.5883C22.535 20.8988 24.8423 19.739 25.5163 16.3838C25.5363 16.2846 25.5537 16.188 25.5687 16.0936C25.4836 16.05 25.4836 16.05 25.5687 16.0936C25.7694 14.8535 25.5673 14.0094 24.8751 13.2451Z" fill="#27346A"/>
<path d="M18.6003 15.6469C18.6866 15.6071 18.781 15.5864 18.8765 15.5865H22.885C23.3597 15.5865 23.8024 15.6164 24.207 15.6795C24.3202 15.697 24.4328 15.7179 24.5447 15.7421C24.7033 15.7761 24.86 15.8176 25.0143 15.8665C25.2132 15.9309 25.3985 16.0058 25.5687 16.0936C25.7694 14.853 25.5673 14.0094 24.8751 13.2451C24.1128 12.4037 22.7362 12.043 20.9745 12.043H15.8611C15.5011 12.043 15.1948 12.297 15.1384 12.6413L13.0094 25.7252C12.9671 25.9836 13.1733 26.217 13.4427 26.217H16.5997L18.2444 16.1099C18.2606 16.0106 18.3014 15.9165 18.3634 15.8359C18.4254 15.7552 18.5067 15.6904 18.6003 15.6469Z" fill="#27346A"/>
<path d="M25.5164 16.3842C24.8424 19.7389 22.5351 20.8992 19.5883 20.8992H18.0879C17.7279 20.8992 17.4239 21.1532 17.368 21.4977L16.3817 27.5562C16.3449 27.782 16.5251 27.9866 16.7608 27.9866H19.4218C19.5742 27.9866 19.7216 27.9338 19.8375 27.8379C19.9534 27.7419 20.0301 27.6091 20.0539 27.4632L20.0798 27.3318L20.5814 24.2517L20.6137 24.0815C20.6375 23.9356 20.7142 23.8027 20.8301 23.7068C20.946 23.6108 21.0934 23.5581 21.2458 23.558H21.644C24.2217 23.558 26.24 22.5433 26.8298 19.6084C27.076 18.3819 26.9486 17.3579 26.2973 16.6386C26.0998 16.4208 25.8545 16.2409 25.5687 16.094C25.5533 16.1888 25.5365 16.2849 25.5164 16.3842Z" fill="#2790C3"/>
<path d="M24.8631 15.8213C24.7581 15.7916 24.652 15.7653 24.5451 15.7424C24.4331 15.7185 24.3205 15.6978 24.2074 15.6802C23.8023 15.6167 23.3599 15.5867 22.8848 15.5867H18.8768C18.7812 15.5865 18.6867 15.6073 18.6006 15.6475C18.5069 15.6909 18.4255 15.7557 18.3635 15.8364C18.3015 15.9171 18.2607 16.0112 18.2447 16.1106L17.3928 21.3449L17.3682 21.4975C17.4242 21.1531 17.7282 20.899 18.0882 20.899H19.5886C22.5354 20.899 24.8426 19.7392 25.5166 16.384C25.5367 16.2848 25.5535 16.1886 25.569 16.0939C25.3983 16.0065 25.2136 15.9311 25.0146 15.8671C24.9644 15.851 24.914 15.8357 24.8632 15.8213" fill="#1F264F"/>
</g>
<defs>
<clipPath id="clip0_4006_14145">
<rect width="14" height="16" fill="white" transform="translate(13 12)"/>
</clipPath>
</defs>
</svg>
