<svg width="159" height="154" viewBox="0 0 159 154" fill="none" xmlns="http://www.w3.org/2000/svg">
<rect x="8" y="1" width="120" height="120" rx="60" fill="#1E293B"/>
<circle cx="7" cy="19" r="2" fill="#D3C4FC"/>
<circle cx="140" cy="35" r="2" fill="#D3C4FC"/>
<circle cx="2" cy="120" r="2" fill="#D3C4FC"/>
<g filter="url(#filter0_d_4006_13512)">
<rect x="27" y="8" width="82" height="105" rx="4" fill="#334155"/>
</g>
<path d="M89.5638 71.6533C89.5602 71.6557 89.5543 71.6593 89.5495 71.6617L89.5638 71.6569C87.7692 75.9105 84.1859 79.4748 79.5174 81.7235C79.5139 81.7235 79.5115 81.7282 79.5091 81.7306C79.5079 81.7342 79.5055 81.7377 79.5055 81.7425V86.2612L74.71 87.1098L70.2864 86.2612V84.2241C70.2864 84.2193 70.284 84.2169 70.284 84.2158C70.2828 84.211 70.2804 84.2098 70.2781 84.2074C70.2769 84.2051 70.2745 84.2039 70.2721 84.2039C70.2697 84.2039 70.2662 84.2015 70.2638 84.2039C69.4794 84.2704 68.6831 84.3037 67.8773 84.3037C67.0727 84.3037 66.2764 84.2704 65.4932 84.2039C65.4908 84.2015 65.4872 84.2039 65.4848 84.2039C65.4813 84.2039 65.4789 84.2051 65.4765 84.2074C65.4753 84.2098 65.4729 84.211 65.4729 84.2158C65.4706 84.2169 65.4706 84.2193 65.4706 84.2241V86.2374L61.0672 87.1834L56.2799 86.2612V81.7401C56.2799 81.7377 56.2775 81.7342 56.2763 81.7306C56.274 81.7282 56.2716 81.7235 56.268 81.7223C51.1515 79.2573 47.3044 75.2117 45.7308 70.4042C45.7296 70.4007 45.7272 70.3971 45.7237 70.3947C45.7189 70.3911 45.7154 70.3911 45.7106 70.3911H41.8171C41.8111 70.3911 41.8076 70.3888 41.804 70.384C41.7993 70.3805 41.7969 70.3745 41.7969 70.3709V61.2195C41.7969 61.2136 41.7993 61.2076 41.804 61.2052C41.8076 61.2017 41.8111 61.1993 41.8171 61.1993H45.5478C45.5513 61.1993 45.5561 61.1981 45.5597 61.1957C45.5644 61.191 45.5656 61.1898 45.568 61.1838C47.05 56.0472 51.1135 51.7305 56.5699 49.1919C56.5747 49.1907 56.577 49.1883 56.5782 49.186C56.5806 49.1848 56.583 49.18 56.583 49.1776L57.4482 44.6518C57.5029 44.363 57.636 44.0944 57.8333 43.8781C58.0306 43.6606 58.2837 43.5014 58.5654 43.4206C58.8459 43.3385 59.1442 43.3338 59.4294 43.411C59.7111 43.4871 59.9678 43.6404 60.1699 43.8544L63.2659 47.1287C63.2683 47.131 63.2719 47.1322 63.2742 47.1322C63.2778 47.1346 63.2825 47.1346 63.2837 47.1346C63.9481 47.0217 64.6196 46.9349 65.3018 46.8767C65.3018 46.8767 69.6909 46.4607 72.7157 47.1774C83.0556 48.9946 90.8106 56.5214 90.8106 65.529C90.8106 67.6326 90.3874 69.7149 89.5638 71.6533Z" fill="#FF3B30"/>
<path d="M60.9972 87.1093L65.4695 86.237L65.5302 84.2391C67.0919 84.3781 68.6595 84.396 70.2224 84.2938L70.2853 86.2607L73.896 87.3363L79.5045 86.2607L79.5794 81.8027C84.2538 79.5528 87.7658 75.9113 89.5628 71.6553L56.2789 81.7278C56.2825 83.217 56.166 84.2831 56.2789 86.2607L60.9972 87.1093Z" fill="#5D25F3"/>
<path d="M50.4127 60.6724C50.9915 60.6724 51.4622 60.2041 51.4622 59.6241C51.4622 59.0442 50.9915 58.5747 50.4127 58.5747C49.8339 58.5747 49.3633 59.0442 49.3633 59.6241C49.3633 60.2041 49.8339 60.6724 50.4127 60.6724Z" fill="#0F172A"/>
<path d="M56.2803 86.2611L65.4709 86.2373V88.0082C65.4709 88.0141 65.4697 88.02 65.465 88.0224C65.4614 88.026 65.4567 88.0284 65.4507 88.0284H56.3005C56.2945 88.0284 56.291 88.026 56.2862 88.0224C56.2827 88.02 56.2803 88.0141 56.2803 88.0082V86.2611Z" fill="#1D377A"/>
<path d="M70.2871 86.2607H79.5063V88.0078C79.5063 88.0114 79.5063 88.0138 79.5063 88.0161C79.5039 88.0173 79.5027 88.0197 79.5003 88.0221C79.498 88.0233 79.4968 88.0257 79.4944 88.028C79.492 88.028 79.4908 88.028 79.4861 88.028H70.3073C70.3037 88.028 70.3014 88.028 70.299 88.028C70.2978 88.0257 70.2954 88.0233 70.2931 88.0221C70.2907 88.0197 70.2895 88.0173 70.2871 88.0161C70.2871 88.0138 70.2871 88.0114 70.2871 88.0078V86.2607Z" fill="#1D377A"/>
<path d="M91.2839 65.7131C96.3338 65.7131 100.425 61.6199 100.425 56.5724C100.425 51.5248 96.3338 47.4316 91.2839 47.4316C86.2363 47.4316 82.1455 51.5248 82.1455 56.5724C82.1455 61.6199 86.2363 65.7131 91.2839 65.7131Z" fill="#FFD023"/>
<path d="M91.2847 63.1874C94.9381 63.1874 97.8999 60.2257 97.8999 56.5722C97.8999 52.9188 94.9381 49.957 91.2847 49.957C87.6336 49.957 84.6719 52.9188 84.6719 56.5722C84.6719 60.2257 87.6336 63.1874 91.2847 63.1874Z" stroke="white" stroke-linecap="round" stroke-linejoin="round"/>
<path d="M89.8027 58.0736C89.874 58.8248 90.1925 59.2241 90.8878 59.337C90.8925 59.337 90.8949 59.337 90.8985 59.337C90.9008 59.3346 90.902 59.3346 90.9044 59.3323C90.908 59.3311 90.9104 59.3287 90.9104 59.3239C90.9127 59.3227 90.9127 59.3204 90.9127 59.3168V57.1775C90.9127 57.1739 90.9127 57.1704 90.908 57.1656C90.9068 57.1621 90.902 57.1597 90.8985 57.1573C89.5103 56.7805 88.1245 56.3432 88.1245 54.5771C88.1245 52.8787 89.3594 52.3486 90.8949 52.1977C90.9008 52.1953 90.9044 52.1929 90.908 52.1894C90.9103 52.187 90.9127 52.1811 90.9127 52.1775V51.1887C90.9127 51.1839 90.9151 51.1827 90.9151 51.1803C90.9163 51.178 90.9163 51.1768 90.9187 51.1744C90.921 51.172 90.9222 51.1708 90.9246 51.1708C90.9282 51.1685 90.9306 51.1685 90.9329 51.1685H91.7601C91.7613 51.1685 91.7637 51.1685 91.7684 51.1708C91.7696 51.1708 91.772 51.172 91.7744 51.1744C91.7756 51.1768 91.7756 51.178 91.778 51.1803C91.778 51.1827 91.7803 51.1839 91.7803 51.1887V52.1775C91.7803 52.1811 91.7815 52.187 91.7839 52.1906C91.7875 52.1929 91.7946 52.1977 91.7982 52.1977C93.2624 52.2559 94.5983 52.9845 94.4877 54.6805C94.4877 54.6864 94.483 54.6912 94.4806 54.6947C94.477 54.6983 94.4711 54.7007 94.4675 54.7007H92.7181C92.7121 54.7007 92.7074 54.6983 92.7038 54.6947C92.7002 54.6924 92.6979 54.6864 92.6979 54.6828C92.6408 54.0648 92.3508 53.7368 91.8041 53.6358C91.8017 53.6334 91.7982 53.6334 91.7958 53.6358C91.7922 53.6358 91.7898 53.6382 91.7875 53.6393C91.7839 53.6417 91.7839 53.6441 91.7815 53.6453C91.7803 53.65 91.7803 53.6512 91.7803 53.656V55.6182C91.7803 55.6229 91.7803 55.6265 91.7839 55.6313C91.7863 55.6348 91.7898 55.6372 91.7946 55.6384C93.222 56.0045 94.6624 56.5203 94.6624 58.2994C94.6624 59.7304 93.6273 60.6646 91.7982 60.8702C91.7946 60.8702 91.7875 60.8714 91.7863 60.8761C91.7815 60.8797 91.7803 60.8844 91.7803 60.8904V61.9636C91.7803 61.9672 91.778 61.9731 91.7744 61.9778C91.7696 61.9814 91.7661 61.9838 91.7601 61.9838H90.9341C90.9306 61.9838 90.9282 61.9814 90.927 61.9814C90.9246 61.979 90.9222 61.979 90.921 61.9778C90.9187 61.9755 90.9163 61.9731 90.9163 61.9695C90.9151 61.9672 90.9151 61.9648 90.9151 61.9636V60.888C90.9151 60.8821 90.9127 60.8761 90.908 60.8737C90.9044 60.8702 90.8985 60.8678 90.8949 60.8678C88.9636 60.7691 87.9569 59.8148 87.9082 58.0736C87.9082 58.0677 87.9106 58.0617 87.9141 58.057C87.9189 58.0534 87.9248 58.0511 87.9284 58.0511C89.7813 58.0511 89.6113 58.051 89.7825 58.0534C89.7884 58.0534 89.7932 58.0558 89.7967 58.0594C89.8015 58.0641 89.8027 58.0677 89.8027 58.0736ZM90.9127 53.6417C90.9127 53.6382 90.9127 53.6358 90.9104 53.631C90.9104 53.6298 90.908 53.6275 90.9068 53.6251C90.902 53.6239 90.9008 53.6215 90.8985 53.6215C90.8949 53.6215 90.8925 53.6215 90.8878 53.6215C90.3113 53.7202 90.0071 54.0173 90.0071 54.5236C90.0071 55.056 90.3209 55.2498 90.8866 55.4209C90.8901 55.4233 90.8925 55.4233 90.8961 55.4233C90.9008 55.4233 90.902 55.4209 90.9044 55.4185C90.908 55.4173 90.9103 55.415 90.9127 55.4114C90.9127 55.409 90.9151 55.4043 90.9127 55.4007V53.6417ZM91.7803 57.42V59.3323C91.7803 59.337 91.7803 59.3382 91.7815 59.3406C91.7815 59.3441 91.7839 59.3465 91.7863 59.3489C91.7898 59.3513 91.7922 59.3525 91.7946 59.3525C91.7982 59.3525 91.8005 59.3525 91.8041 59.3525C92.4233 59.2538 92.7941 58.9555 92.7941 58.3303C92.7941 57.7373 92.4257 57.559 91.8065 57.3998C91.8017 57.3974 91.7982 57.3974 91.7958 57.3998C91.7922 57.3998 91.7898 57.4021 91.7875 57.4045C91.7839 57.4045 91.7815 57.4081 91.7815 57.4105C91.7803 57.414 91.7803 57.4164 91.7803 57.42Z" fill="white"/>
<path d="M72.0694 49.2791C77.117 49.2791 81.2102 45.1883 81.2102 40.1407C81.2102 35.092 77.117 31 72.0694 31C67.0219 31 62.9287 35.092 62.9287 40.1407C62.9287 45.1883 67.0219 49.2791 72.0694 49.2791Z" fill="#FFD023"/>
<path d="M72.0712 46.7534C75.7247 46.7534 78.6864 43.7916 78.6864 40.1406C78.6864 36.4871 75.7247 33.5254 72.0712 33.5254C68.4178 33.5254 65.4561 36.4871 65.4561 40.1406C65.4561 43.7916 68.4178 46.7534 72.0712 46.7534Z" stroke="white" stroke-linecap="round" stroke-linejoin="round"/>
<path d="M71.7 42.8851V40.7458C71.7 40.7399 71.6977 40.7363 71.6953 40.7315C71.6941 40.7304 71.6893 40.7256 71.6858 40.7256C70.2964 40.3465 68.9095 39.9115 68.9095 38.1442C68.9095 36.4446 70.1467 35.9169 71.6822 35.7636C71.6858 35.7636 71.6917 35.7612 71.6941 35.7577C71.6977 35.7529 71.7 35.747 71.7 35.7434V34.7546C71.7 34.7486 71.7024 34.7451 71.706 34.7403C71.7096 34.7368 71.7143 34.7344 71.7202 34.7344H72.5451C72.551 34.7344 72.5558 34.7368 72.5593 34.7403C72.5629 34.7451 72.5653 34.7486 72.5653 34.7546V35.7434C72.5653 35.7494 72.5677 35.7529 72.5712 35.7577C72.576 35.7612 72.5819 35.7636 72.5855 35.7636C74.0497 35.8219 75.3856 36.5504 75.2751 38.2464C75.2751 38.2523 75.2727 38.2571 75.2691 38.2607C75.2644 38.2654 75.2584 38.2666 75.2548 38.2666H73.503C73.4971 38.2666 73.4935 38.2654 73.4887 38.263C73.4852 38.2583 73.4828 38.2523 73.4828 38.2488C73.4269 37.6331 73.1358 37.3027 72.589 37.2017C72.5879 37.1993 72.5831 37.1993 72.5819 37.2017C72.5772 37.2017 72.576 37.2041 72.5736 37.2053C72.5712 37.2076 72.5688 37.21 72.5676 37.2112C72.5653 37.216 72.5653 37.2183 72.5653 37.2219V39.1853C72.5653 39.1889 72.5653 39.1924 72.5688 39.1972C72.5712 39.2008 72.576 39.2031 72.5795 39.2043C74.0093 39.5704 75.4486 40.0862 75.4486 41.8677C75.4486 43.2963 74.4158 44.2305 72.5831 44.4361C72.5772 44.4385 72.5736 44.4397 72.5688 44.4444C72.5676 44.448 72.5653 44.4515 72.5653 44.4563V45.5295C72.5653 45.5354 72.5629 45.5414 72.5593 45.5438C72.5558 45.5473 72.5486 45.5497 72.5451 45.5497H71.7179C71.7143 45.5497 71.7084 45.5473 71.7036 45.5438C71.7024 45.5414 71.7 45.5354 71.7 45.5295V44.4575C71.7 44.4515 71.6977 44.448 71.6941 44.4444C71.6894 44.4397 71.6858 44.4385 71.6798 44.4385C69.7509 44.3386 68.7431 43.3866 68.6943 41.6443C68.6943 41.6384 68.6955 41.6336 68.7003 41.63C68.7038 41.6253 68.7086 41.6241 68.7145 41.6217H70.5686C70.5722 41.6217 70.5781 41.6253 70.5829 41.6277C70.5841 41.6312 70.5864 41.6384 70.5864 41.6419C70.6007 42.481 70.9715 42.796 71.6739 42.9065C71.6775 42.9089 71.6798 42.9089 71.6834 42.9089C71.6882 42.9065 71.6894 42.9065 71.6941 42.9029C71.6953 42.9005 71.6977 42.8982 71.7 42.8946C71.7 42.891 71.7 42.8863 71.7 42.8851ZM71.7 37.2076C71.7 37.2053 71.7001 37.2017 71.6977 37.1993C71.6953 37.1981 71.6941 37.1958 71.6917 37.1934C71.6893 37.191 71.6882 37.1898 71.6834 37.1898C71.6822 37.1874 71.6775 37.1874 71.6763 37.1874C71.0963 37.2861 70.7944 37.5844 70.7944 38.0919C70.7944 38.6243 71.1094 38.8181 71.6739 38.9892C71.6763 38.9916 71.6798 38.9916 71.6822 38.9916C71.6858 38.9892 71.6893 38.9892 71.6917 38.9868C71.6941 38.9844 71.6953 38.9809 71.6977 38.9785C71.7001 38.9749 71.7 38.9726 71.7 38.969V37.2076ZM72.5653 40.9859V42.9005C72.5653 42.9029 72.5676 42.9065 72.5676 42.9089C72.5688 42.9112 72.5712 42.9124 72.5736 42.9148C72.576 42.9172 72.5795 42.9184 72.5819 42.9184C72.5831 42.9208 72.5879 42.9208 72.589 42.9208C73.2106 42.8221 73.5803 42.5238 73.5803 41.8963C73.5803 41.3044 73.2106 41.1273 72.5914 40.9657C72.5879 40.9657 72.5855 40.9657 72.5819 40.9657C72.5795 40.9681 72.576 40.968 72.5736 40.9704C72.5712 40.9716 72.5688 40.974 72.5676 40.9776C72.5676 40.9799 72.5653 40.9847 72.5653 40.9859Z" fill="white"/>
<path d="M45.1407 49.2791C50.1883 49.2791 54.2791 45.1883 54.2791 40.1407C54.2791 35.092 50.1883 31 45.1407 31C40.0908 31 36 35.092 36 40.1407C36 45.1883 40.0908 49.2791 45.1407 49.2791Z" fill="#FFD023"/>
<path d="M45.1415 46.7534C48.7926 46.7534 51.7544 43.7916 51.7544 40.1406C51.7544 36.4871 48.7926 33.5254 45.1415 33.5254C41.4881 33.5254 38.5264 36.4871 38.5264 40.1406C38.5264 43.7916 41.4881 46.7534 45.1415 46.7534Z" stroke="white" stroke-linecap="round" stroke-linejoin="round"/>
<path d="M44.7712 42.8851V40.7458C44.7712 40.7399 44.7688 40.7363 44.7664 40.7315C44.7629 40.7304 44.7581 40.7256 44.7546 40.7256C43.3664 40.3465 41.9806 39.9115 41.9806 38.1442C41.9806 36.4446 43.2155 35.9169 44.7522 35.7636C44.7569 35.7636 44.7605 35.7589 44.7641 35.7577C44.7688 35.7529 44.7712 35.747 44.7712 35.7434V34.7546C44.7712 34.7486 44.7724 34.7451 44.7748 34.7403C44.7783 34.7368 44.7843 34.7344 44.7914 34.7344H45.6162C45.6222 34.7344 45.6257 34.7368 45.6305 34.7403C45.6341 34.7451 45.6364 34.7486 45.6364 34.7546V35.7434C45.6364 35.747 45.6376 35.7529 45.6424 35.7577C45.6447 35.7612 45.6507 35.7636 45.6543 35.7636C47.1185 35.8219 48.4544 36.5504 48.3438 38.2464C48.3438 38.2523 48.3391 38.2571 48.3379 38.2607C48.3331 38.2654 48.3272 38.2666 48.3236 38.2666H46.5742C46.5706 38.2666 46.5646 38.2654 46.5599 38.2607C46.5563 38.2583 46.554 38.2523 46.554 38.2488C46.4981 37.6319 46.2069 37.3027 45.6602 37.2017C45.6578 37.1993 45.6543 37.1993 45.6519 37.2017C45.6507 37.2017 45.6459 37.2041 45.6448 37.2053C45.6424 37.2076 45.64 37.21 45.6376 37.2112C45.6364 37.216 45.6364 37.2183 45.6364 37.2219V39.1853C45.6364 39.1889 45.6376 39.1924 45.64 39.1972C45.6424 39.2008 45.6459 39.2031 45.6507 39.2043C47.0781 39.5704 48.5185 40.0862 48.5185 41.8677C48.5185 43.2963 47.4845 44.2305 45.6543 44.4361C45.6507 44.4385 45.6459 44.4397 45.6424 44.4444C45.6376 44.448 45.6364 44.4515 45.6364 44.4563V45.5295C45.6364 45.5354 45.6341 45.539 45.6317 45.5438C45.6281 45.5473 45.6222 45.5497 45.6162 45.5497H44.7914C44.7843 45.5497 44.7807 45.5473 44.7771 45.5438C44.7724 45.539 44.7712 45.5354 44.7712 45.5295V44.4575C44.7712 44.4515 44.7688 44.448 44.7641 44.4444C44.7605 44.4397 44.7569 44.4385 44.751 44.4385C42.8221 44.3386 41.813 43.3866 41.7667 41.6443C41.7643 41.6419 41.7667 41.6384 41.7667 41.636C41.7691 41.6336 41.7691 41.6312 41.7714 41.63C41.7726 41.6277 41.775 41.6253 41.7786 41.6241C41.7809 41.6241 41.7833 41.6217 41.7869 41.6217H43.6386C43.6445 41.6217 43.6493 41.6241 43.6528 41.6277C43.6576 41.6312 43.6588 41.6384 43.6588 41.6419C43.6552 42.4382 44.0438 42.796 44.7439 42.9065C44.7486 42.9065 44.7522 42.9065 44.7546 42.9065C44.7581 42.9041 44.7605 42.9041 44.7629 42.9029C44.7664 42.8982 44.7688 42.897 44.7688 42.8922C44.7712 42.891 44.7712 42.8863 44.7712 42.8851ZM44.7712 37.2076C44.7688 37.2053 44.7688 37.2017 44.7664 37.1993C44.7664 37.1981 44.7641 37.1958 44.7629 37.1934C44.7581 37.191 44.7569 37.1898 44.7546 37.1898C44.751 37.1874 44.7486 37.1874 44.7439 37.1874C44.1674 37.2861 43.8632 37.5844 43.8632 38.0919C43.8632 38.6243 44.1793 38.8181 44.7427 38.9892C44.7462 38.9916 44.7486 38.9916 44.7522 38.9916C44.7569 38.9892 44.7581 38.9892 44.7629 38.9868C44.7641 38.9844 44.7664 38.9809 44.7688 38.9785C44.7688 38.9749 44.7712 38.9726 44.7712 38.969V37.2076ZM45.6364 40.9859V42.9005C45.6364 42.9029 45.6364 42.9065 45.6376 42.9089C45.64 42.9112 45.6424 42.9124 45.6448 42.9148C45.6459 42.9172 45.6483 42.9184 45.6519 42.9184C45.6543 42.9208 45.6566 42.9208 45.6602 42.9208C46.2794 42.8221 46.6514 42.5238 46.6514 41.8963C46.6514 41.3044 46.2818 41.1273 45.6626 40.9657C45.6578 40.9657 45.6543 40.9657 45.6519 40.9657C45.6483 40.9681 45.6459 40.968 45.6448 40.9704C45.6424 40.9716 45.64 40.974 45.6376 40.9776C45.6364 40.9799 45.6364 40.9847 45.6364 40.9859Z" fill="white"/>
<g filter="url(#filter1_d_4006_13512)">
<circle cx="108" cy="101" r="20" fill="#1DCE5C"/>
<circle cx="108" cy="101" r="20" stroke="url(#paint0_linear_4006_13512)" stroke-width="3"/>
</g>
<path d="M102 101L107 106L117 96" stroke="white" stroke-width="3" stroke-linecap="round" stroke-linejoin="round"/>
<defs>
<filter id="filter0_d_4006_13512" x="11" y="0" width="114" height="137" filterUnits="userSpaceOnUse" color-interpolation-filters="sRGB">
<feFlood flood-opacity="0" result="BackgroundImageFix"/>
<feColorMatrix in="SourceAlpha" type="matrix" values="0 0 0 0 0 0 0 0 0 0 0 0 0 0 0 0 0 0 127 0" result="hardAlpha"/>
<feOffset dy="8"/>
<feGaussianBlur stdDeviation="8"/>
<feColorMatrix type="matrix" values="0 0 0 0 0.0588235 0 0 0 0 0.0901961 0 0 0 0 0.164706 0 0 0 0.08 0"/>
<feBlend mode="normal" in2="BackgroundImageFix" result="effect1_dropShadow_4006_13512"/>
<feBlend mode="normal" in="SourceGraphic" in2="effect1_dropShadow_4006_13512" result="shape"/>
</filter>
<filter id="filter1_d_4006_13512" x="62.3" y="57.5" width="95.8" height="95.8" filterUnits="userSpaceOnUse" color-interpolation-filters="sRGB">
<feFlood flood-opacity="0" result="BackgroundImageFix"/>
<feColorMatrix in="SourceAlpha" type="matrix" values="0 0 0 0 0 0 0 0 0 0 0 0 0 0 0 0 0 0 127 0" result="hardAlpha"/>
<feOffset dx="2.2" dy="4.4"/>
<feGaussianBlur stdDeviation="13.2"/>
<feComposite in2="hardAlpha" operator="out"/>
<feColorMatrix type="matrix" values="0 0 0 0 0.0588235 0 0 0 0 0.0901962 0 0 0 0 0.164706 0 0 0 0.08 0"/>
<feBlend mode="normal" in2="BackgroundImageFix" result="effect1_dropShadow_4006_13512"/>
<feBlend mode="normal" in="SourceGraphic" in2="effect1_dropShadow_4006_13512" result="shape"/>
</filter>
<linearGradient id="paint0_linear_4006_13512" x1="108" y1="81" x2="108" y2="121" gradientUnits="userSpaceOnUse">
<stop stop-color="#280000"/>
<stop offset="0.560034" stop-color="#090000"/>
</linearGradient>
</defs>
</svg>
