<svg width="12" height="12" viewBox="0 0 12 12" fill="none" xmlns="http://www.w3.org/2000/svg">
<path d="M6 11C8.76142 11 11 8.76142 11 6C11 3.23858 8.76142 1 6 1C3.23858 1 1 3.23858 1 6C1 8.76142 3.23858 11 6 11Z" stroke="#475569" stroke-linecap="round" stroke-linejoin="round"/>
<path d="M4.00488 7.25497C4.09488 7.40497 4.20488 7.54498 4.32988 7.66998C5.24988 8.58998 6.74488 8.58998 7.66988 7.66998C8.04488 7.29498 8.25988 6.81996 8.32988 6.33496" stroke="#475569" stroke-linecap="round" stroke-linejoin="round"/>
<path d="M3.66992 5.66516C3.73992 5.17516 3.95493 4.70514 4.32993 4.33014C5.24993 3.41014 6.74492 3.41014 7.66992 4.33014C7.79992 4.46014 7.90492 4.60015 7.99492 4.74515" stroke="#475569" stroke-linecap="round" stroke-linejoin="round"/>
<path d="M3.91016 8.58987V7.25488H5.24515" stroke="#475569" stroke-linecap="round" stroke-linejoin="round"/>
<path d="M8.08987 3.41016V4.74515H6.75488" stroke="#475569" stroke-linecap="round" stroke-linejoin="round"/>
</svg>
