<svg width="40" height="40" viewBox="0 0 40 40" fill="none" xmlns="http://www.w3.org/2000/svg">
<rect width="40" height="40" rx="20" fill="#1E293B"/>
<path d="M20 12.5C21.9466 14.2221 24.4871 15.1188 27.0834 15C27.4614 16.2858 27.577 17.6346 27.4235 18.966C27.2699 20.2974 26.8503 21.5844 26.1895 22.7504C25.5288 23.9165 24.6404 24.9378 23.5771 25.7537C22.5138 26.5696 21.2973 27.1635 20 27.5C18.7027 27.1635 17.4863 26.5696 16.423 25.7537C15.3597 24.9378 14.4713 23.9165 13.8105 22.7504C13.1498 21.5844 12.7301 20.2974 12.5766 18.966C12.423 17.6346 12.5387 16.2858 12.9167 15C15.513 15.1188 18.0535 14.2221 20 12.5" stroke="#64748B" stroke-width="1.5" stroke-linecap="round" stroke-linejoin="round"/>
<path d="M20.0003 20C20.4606 20 20.8337 19.6269 20.8337 19.1666C20.8337 18.7064 20.4606 18.3333 20.0003 18.3333C19.5401 18.3333 19.167 18.7064 19.167 19.1666C19.167 19.6269 19.5401 20 20.0003 20Z" stroke="#64748B" stroke-width="1.5" stroke-linecap="round" stroke-linejoin="round"/>
<path d="M20 20V22.0833" stroke="#64748B" stroke-width="1.5" stroke-linecap="round" stroke-linejoin="round"/>
</svg>
