<svg width="44" height="44" viewBox="0 0 44 44" fill="none" xmlns="http://www.w3.org/2000/svg">
<path fill-rule="evenodd" clip-rule="evenodd" d="M22 44C9.9 44 0 34.1002 0 21.8905C0.11 9.79071 9.9 -0.10909 22.11 0.000907874C34.21 0.110906 44 9.9007 44 22.2205C43.89 34.2102 34.1 44 22 44" fill="#E42D04"/>
<path fill-rule="evenodd" clip-rule="evenodd" d="M22.4283 38.1336C24.0251 38.1336 28.1212 37.4137 31.7314 34.5342C35.8827 31.2231 36.2738 29.3766 36.5261 28.1859C36.548 28.0823 36.5689 27.9836 36.5912 27.8893C36.6333 27.7109 36.6579 27.4686 36.6663 27.1807C35.7943 27.0395 34.5722 26.9586 33.1459 27.1279C30.8131 27.4048 28.9803 28.9968 28.3555 29.7582C28.0083 28.0278 26.3143 24.5669 22.3154 24.5669C18.3164 24.5669 16.1596 28.0278 15.581 29.7582C15.2107 29.1121 13.8315 27.6817 11.2766 27.1279C9.69688 26.7856 8.31891 26.9548 7.33301 27.2429C7.41085 28.5296 7.8338 29.9021 8.9595 31.3502C10.8965 33.8421 13.902 35.3808 15.2429 36.0673C15.3919 36.1436 15.5203 36.2093 15.6244 36.2647C16.6658 36.8184 19.5123 38.1336 22.4283 38.1336Z" fill="white"/>
<path fill-rule="evenodd" clip-rule="evenodd" d="M36.663 27.1299C35.7915 26.9891 34.5701 26.9085 33.1446 27.0773C30.8132 27.3534 28.9814 28.9408 28.357 29.7001C28.01 27.9746 26.317 24.5236 22.3204 24.5236C18.3237 24.5236 16.1682 27.9746 15.5899 29.7001C15.2199 29.0558 13.8414 27.6295 11.288 27.0773C9.70923 26.7359 8.33206 26.9046 7.34673 27.192C7.27579 26.0219 7.49167 24.9229 7.72333 23.9024C8.11189 22.1907 9.08792 19.9223 9.52737 19.002C9.13417 18.0588 8.22291 15.3854 7.72333 12.2381C7.22375 9.09081 8.07026 6.96961 8.55596 6.30242C9.34233 6.50948 11.2204 7.15826 12.4416 8.09693C13.6628 9.03559 15.5408 11.1108 16.3272 12.031C17.3449 11.755 19.963 11.2028 22.2944 11.2028C24.6258 11.2028 26.8739 11.755 27.7065 12.031C28.4004 11.2028 30.1073 9.25646 31.384 8.09693C32.6607 6.9374 34.7376 6.37144 35.6165 6.2334C35.8477 6.53248 36.3382 7.40673 36.4492 8.51105C36.5879 9.89144 36.1716 12.7903 35.6165 14.7228C35.1725 16.2688 34.5988 18.0818 34.3676 18.795C34.4832 19.048 34.881 19.8717 35.5472 21.1416C36.2535 22.4883 36.7101 25.5237 36.663 27.1299Z" fill="#FFAA35"/>
<path d="M25.2768 33.272C25.1118 33.4928 24.933 33.916 24.8643 34.0999V34.0309L24.658 32.3751C24.2685 32.421 23.2555 32.5131 22.3205 32.5131C21.3855 32.5131 20.2809 32.421 19.8455 32.3751L19.7768 34.0309C19.7309 33.9619 19.6118 33.7688 19.5018 33.548C19.3643 33.272 18.883 32.858 18.883 32.6511C18.883 32.4855 18.6538 32.1221 18.5393 31.9611L18.333 31.6851H19.5705L19.8455 31.8921C20.0747 31.8691 20.6568 31.8507 21.1518 31.9611C21.6468 32.0715 21.9538 31.6392 22.0455 31.4091V30.3052C21.8393 30.1672 21.3305 29.8499 20.9455 29.6843C20.4643 29.4773 19.983 28.6494 20.1205 27.8214C20.258 26.9935 20.6705 26.7175 20.9455 26.7865C21.2205 26.8555 23.008 26.7175 23.283 26.7865C23.558 26.8555 24.0393 26.9935 24.2455 27.3385C24.4518 27.6834 24.3143 29.0633 23.9018 29.5463C23.5718 29.9327 22.9393 30.2132 22.6643 30.3052V31.4091C22.6643 31.5471 23.1455 31.8921 23.2143 31.9611C23.283 32.0301 24.3143 31.9611 24.5205 31.9611C24.6855 31.9611 24.8185 31.8231 24.8643 31.7541H26.033V32.0301C26.033 32.1681 25.8268 32.789 25.758 32.858C25.6893 32.927 25.483 32.996 25.2768 33.272Z" fill="black"/>
<path d="M23.0645 32.8166L22.3661 33.3666L21.8074 32.8166L21.3185 33.0611L20.8994 32.6333H23.8327L23.4137 33.1222L23.0645 32.8166Z" fill="black"/>
<path d="M15.5479 21.5345C14.7296 21.1961 13.8432 20.9704 13.5023 20.8999C13.4113 20.9469 13.2295 21.0973 13.2295 21.323C13.2295 21.605 13.1613 21.8871 13.2295 22.4512C13.2977 23.0153 13.8432 23.3679 14.7978 23.7909C15.7524 24.214 17.3889 24.5666 18.548 24.5666C19.7072 24.5666 18.6162 23.3679 18.2071 23.0858C17.798 22.8037 16.5706 21.9576 15.5479 21.5345Z" fill="black"/>
<path d="M16.6682 19.6634C16.0567 19.7727 15.209 19.8001 14.8615 19.8001C14.5141 19.7545 13.7775 19.5404 13.6108 19.0483C13.4023 18.4332 13.9582 17.7498 14.6531 17.4081C15.3479 17.0663 16.2512 17.203 16.8071 18.0231C17.363 18.8433 17.4325 19.5267 16.6682 19.6634Z" fill="white"/>
<path d="M29.184 21.1678C30.0023 20.8294 30.8887 20.6037 31.2296 20.5332C31.3206 20.5802 31.5024 20.7306 31.5024 20.9563C31.5024 21.2383 31.5706 21.5204 31.5024 22.0845C31.4342 22.6486 30.8887 23.0012 29.9341 23.4242C28.9795 23.8473 27.343 24.1999 26.1839 24.1999C25.0247 24.1999 26.1157 23.0012 26.5248 22.7191C26.9339 22.437 28.1613 21.5909 29.184 21.1678Z" fill="black"/>
<path d="M26.9643 19.6634C27.5758 19.7727 28.4235 19.8001 28.771 19.8001C29.1184 19.7545 29.8549 19.5404 30.0217 19.0483C30.2302 18.4332 29.6743 17.7498 28.9794 17.4081C28.2846 17.0663 27.3812 17.203 26.8254 18.0231C26.2695 18.8433 26.2 19.5267 26.9643 19.6634Z" fill="white"/>
<path d="M11.8905 14.5475C11.3909 15.0933 10.4332 16.3212 10.0168 16.8669C9.73918 16.2757 9.12847 14.6976 8.9064 13.115C8.68432 11.5323 8.86014 9.09015 8.9758 8.06689C9.27653 8.08964 10.1556 8.33976 11.2659 9.15837C12.3763 9.97697 13.9956 11.5005 14.6665 12.1599C13.9493 12.7284 12.3902 14.0018 11.8905 14.5475Z" fill="#FF8C30"/>
<path fill-rule="evenodd" clip-rule="evenodd" d="M8.7998 9.36633C9.89118 9.82176 11.3278 10.5179 11.9298 11.1472C12.5405 11.7855 13.0778 12.6304 13.3967 13.2002C13.8756 12.8032 14.3514 12.4218 14.6665 12.1739C13.9882 11.5122 12.3508 9.98351 11.2281 9.1621C10.1054 8.3407 9.21652 8.08972 8.91244 8.06689C8.87614 8.38563 8.83398 8.84158 8.7998 9.36633Z" fill="#FF9A32"/>
<path d="M31.7418 14.5475C32.2414 15.0933 33.1991 16.3212 33.6155 16.8669C33.8931 16.2757 34.5038 14.6976 34.7259 13.115C34.948 11.5323 34.7721 9.09015 34.6565 8.06689C34.3557 8.08964 33.4767 8.33976 32.3664 9.15837C31.256 9.97697 29.6366 11.5005 28.9658 12.1599C29.683 12.7284 31.2421 14.0018 31.7418 14.5475Z" fill="#FF8C30"/>
<path fill-rule="evenodd" clip-rule="evenodd" d="M34.8325 9.36633C33.7411 9.82176 32.3045 10.5179 31.7025 11.1472C31.0917 11.7855 30.5545 12.6304 30.2356 13.2002C29.7568 12.8032 29.2809 12.4218 28.9658 12.1739C29.6441 11.5122 31.2814 9.98351 32.4042 9.1621C33.5269 8.3407 34.4157 8.08972 34.7198 8.06689C34.7561 8.38563 34.7982 8.84158 34.8325 9.36633Z" fill="#FF9A32"/>
</svg>
