<svg width="40" height="40" viewBox="0 0 40 40" fill="none" xmlns="http://www.w3.org/2000/svg">
<g clip-path="url(#clip0_4094_4168)">
<path d="M28.2518 14.92C28.1118 15.06 27.9238 15.14 27.7278 15.14H9.14785C8.49185 15.14 8.15985 14.34 8.61585 13.864L11.6638 10.708C11.8038 10.564 11.9958 10.48 12.1958 10.48H30.8438C31.5038 10.48 31.8358 11.288 31.3679 11.764L28.2518 14.92ZM28.2518 29.024C28.1118 29.16 27.9238 29.24 27.7278 29.24H9.14785C8.49185 29.24 8.15985 28.46 8.61585 27.996L11.6638 24.916C11.8038 24.776 11.9958 24.696 12.1958 24.696H30.8438C31.5038 24.696 31.8358 25.484 31.3679 25.948L28.2518 29.024ZM27.7278 17.588C27.9238 17.588 28.1118 17.664 28.2518 17.804L31.3679 20.884C31.8358 21.344 31.5038 22.136 30.8438 22.136H12.1958C11.9958 22.136 11.8038 22.056 11.6638 21.916L8.61585 18.836C8.15585 18.372 8.48785 17.592 9.14785 17.592L27.7278 17.588Z" fill="#00FFAD"/>
<path d="M20 0C31.044 0 40 8.956 40 20C40 31.044 31.044 40 20 40C8.956 40 0 31.044 0 20C0 8.956 8.956 0 20 0Z" fill="black"/>
<path fill-rule="evenodd" clip-rule="evenodd" d="M9.24787 18.092H27.7559C27.9879 18.092 28.2079 18.184 28.3679 18.348L31.2959 21.296C31.8359 21.84 31.4519 22.768 30.6839 22.768H12.1759C11.9439 22.768 11.7239 22.676 11.5639 22.512L8.63587 19.564C8.09187 19.02 8.47987 18.092 9.24787 18.092ZM8.63587 14.184L11.5639 11.236C11.7279 11.072 11.9479 10.98 12.1759 10.98H30.6799C31.4479 10.98 31.8359 11.908 31.2919 12.452L28.3679 15.4C28.2039 15.564 27.9839 15.656 27.7559 15.656H9.24787C8.47987 15.656 8.09187 14.728 8.63587 14.184ZM31.2919 26.676L28.3639 29.624C28.1999 29.788 27.9799 29.88 27.7519 29.88H9.24787C8.47987 29.88 8.09187 28.952 8.63587 28.408L11.5639 25.46C11.7279 25.296 11.9479 25.204 12.1759 25.204H30.6799C31.4479 25.204 31.8359 26.132 31.2919 26.676Z" fill="url(#paint0_linear_4094_4168)"/>
</g>
<defs>
<linearGradient id="paint0_linear_4094_4168" x1="9.70066" y1="30.6932" x2="30.2271" y2="10.1668" gradientUnits="userSpaceOnUse">
<stop stop-color="#CB4EE8"/>
<stop offset="1" stop-color="#10F4B1"/>
</linearGradient>
<clipPath id="clip0_4094_4168">
<rect width="40" height="40" fill="white"/>
</clipPath>
</defs>
</svg>
