<svg width="40" height="40" viewBox="0 0 40 40" fill="none" xmlns="http://www.w3.org/2000/svg">
<rect width="40" height="40" rx="8" fill="#7A4DF5"/>
<path d="M28.3337 26.7248V20.1498C28.3337 15.4832 24.5837 11.6665 20.0003 11.6665C15.417 11.6665 11.667 15.4832 11.667 20.1498V26.7248C11.667 27.7748 12.292 28.0582 13.0586 27.3582L13.892 26.5998C14.2003 26.3165 14.7003 26.3165 15.0087 26.5998L16.6753 28.1248C16.9837 28.4082 17.4836 28.4082 17.792 28.1248L19.4586 26.5998C19.767 26.3165 20.267 26.3165 20.5753 26.5998L22.242 28.1248C22.5503 28.4082 23.0503 28.4082 23.3587 28.1248L25.0253 26.5998C25.3337 26.3165 25.8337 26.3165 26.142 26.5998L26.9753 27.3582C27.7087 28.0582 28.3337 27.7748 28.3337 26.7248Z" stroke="white" stroke-width="1.5" stroke-linecap="round" stroke-linejoin="round"/>
<path d="M16.667 21.6665C18.642 23.1498 21.3587 23.1498 23.3337 21.6665" stroke="white" stroke-width="1.5" stroke-linecap="round" stroke-linejoin="round"/>
<path d="M19.9997 19.1668C20.9201 19.1668 21.6663 18.4206 21.6663 17.5002C21.6663 16.5797 20.9201 15.8335 19.9997 15.8335C19.0792 15.8335 18.333 16.5797 18.333 17.5002C18.333 18.4206 19.0792 19.1668 19.9997 19.1668Z" stroke="white" stroke-width="1.5" stroke-linecap="round" stroke-linejoin="round"/>
</svg>
