<svg width="40" height="40" viewBox="0 0 40 40" fill="none" xmlns="http://www.w3.org/2000/svg">
<rect width="40" height="40" rx="20" fill="#1E293B"/>
<path d="M26.2503 20.4167C26.2503 19.2667 27.1837 18.3333 28.3337 18.3333V17.5C28.3337 14.1667 27.5003 13.3333 24.167 13.3333H15.8337C12.5003 13.3333 11.667 14.1667 11.667 17.5V17.9167C12.817 17.9167 13.7503 18.85 13.7503 20C13.7503 21.15 12.817 22.0833 11.667 22.0833V22.5C11.667 25.8333 12.5003 26.6667 15.8337 26.6667H24.167C27.5003 26.6667 28.3337 25.8333 28.3337 22.5C27.1837 22.5 26.2503 21.5667 26.2503 20.4167Z" stroke="#64748B" stroke-width="1.5" stroke-linecap="round" stroke-linejoin="round"/>
<path d="M17.5 22.2917L22.5 17.2917" stroke="#64748B" stroke-width="1.5" stroke-linecap="round" stroke-linejoin="round"/>
<path d="M22.4951 22.2917H22.5026" stroke="#64748B" stroke-width="2" stroke-linecap="round" stroke-linejoin="round"/>
<path d="M17.4951 17.7083H17.5026" stroke="#64748B" stroke-width="2" stroke-linecap="round" stroke-linejoin="round"/>
</svg>
