<svg width="20" height="20" viewBox="0 0 20 20" fill="none" xmlns="http://www.w3.org/2000/svg">
<path d="M16.2503 10.4166C16.2503 9.26659 17.1837 8.33325 18.3337 8.33325V7.49992C18.3337 4.16659 17.5003 3.33325 14.167 3.33325H5.83366C2.50033 3.33325 1.66699 4.16659 1.66699 7.49992V7.91659C2.81699 7.91659 3.75033 8.84992 3.75033 9.99992C3.75033 11.1499 2.81699 12.0833 1.66699 12.0833V12.4999C1.66699 15.8333 2.50033 16.6666 5.83366 16.6666H14.167C17.5003 16.6666 18.3337 15.8333 18.3337 12.4999C17.1837 12.4999 16.2503 11.5666 16.2503 10.4166Z" stroke="#F8F9FD" stroke-width="1.5" stroke-linecap="round" stroke-linejoin="round"/>
<path d="M7.5 12.2917L12.5 7.29175" stroke="#F8F9FD" stroke-width="1.5" stroke-linecap="round" stroke-linejoin="round"/>
<path d="M12.4951 12.2917H12.5026" stroke="#F8F9FD" stroke-width="2" stroke-linecap="round" stroke-linejoin="round"/>
<path d="M7.4951 7.70841H7.50258" stroke="#F8F9FD" stroke-width="2" stroke-linecap="round" stroke-linejoin="round"/>
</svg>
