<svg width="375" height="332" viewBox="0 0 375 332" fill="none" xmlns="http://www.w3.org/2000/svg">
<path d="M125.832 187.061C115.635 191.337 111.762 201.819 118.427 207.803C132.139 220.117 188.59 214.034 191.246 205.687C193.863 197.464 147.11 178.135 125.832 187.061Z" stroke="url(#paint0_radial_3024_26060)" stroke-miterlimit="10"/>
<path d="M151.099 159.672C174.392 151.5 213.502 209.679 197.358 223.414C187.433 231.86 163.405 230.805 143.81 228.029C125.415 225.424 99.1309 214.771 92.6462 197.078C89.2126 187.686 91.2738 174.304 98.5459 169.618C104.174 165.992 111.772 167.623 113.448 167.02C121.438 170.339 122.611 171.63 128.977 172.408C137.298 173.427 144.694 161.918 151.099 159.672Z" stroke="url(#paint1_radial_3024_26060)" stroke-miterlimit="10"/>
<path d="M174.732 131.057C201.784 135.382 231.181 220.359 201.836 239.916C183.147 252.37 150.566 246.871 127.856 240.286C106.995 234.238 72.2592 214.054 65.2315 185.128C61.1462 168.32 66.1103 144.676 80.3335 137.836C91.6712 132.386 106.28 137.073 108.852 137.434C124.055 145.625 125.284 149.792 136.605 152.598C151.593 156.308 163.427 129.24 174.732 131.057Z" stroke="url(#paint2_radial_3024_26060)" stroke-miterlimit="10"/>
<path d="M196.652 102.632C226.521 110.606 247.147 231.161 204.601 256.604C177.142 273.024 135.997 263.174 110.19 252.731C86.8429 243.287 43.8003 213.567 36.1036 173.365C31.4605 149.12 39.209 115.265 60.4056 106.243C77.438 98.9911 99.1901 106.433 102.537 108.035C125.938 119.239 126.235 128.142 142.526 132.975C164.167 139.411 181.01 98.4647 196.652 102.632Z" stroke="url(#paint3_radial_3024_26060)" stroke-miterlimit="10"/>
<path d="M217.254 75.5C250.332 87.0033 261.741 243.134 206.047 274.589C169.781 294.889 120.091 280.798 91.2071 266.474C65.3475 253.653 14.0529 214.4 5.64775 162.895C0.481261 131.235 10.9796 87.1566 39.1522 75.9375C61.8892 66.891 90.6122 77.5021 94.8999 79.9219C125.065 96.947 125.845 107.823 147.103 114.647C175.401 123.81 197.455 68.6163 217.254 75.5Z" stroke="url(#paint4_radial_3024_26060)" stroke-miterlimit="10"/>
<path d="M16.9731 45.9928C45.4048 35.1543 81.0815 48.9193 86.3368 52.172C123.184 74.981 124.546 87.7819 150.764 96.6628C185.725 108.505 213.12 38.9237 236.913 48.7116C273.461 63.747 275.512 255.653 206.551 292.916C161.553 317.231 103.221 298.782 71.2792 280.558C42.9117 264.376 -16.598 215.589 -25.7313 152.771C-31.4088 113.698 -18.1803 59.3919 16.9731 45.9928Z" stroke="url(#paint5_radial_3024_26060)" stroke-miterlimit="10"/>
<path d="M324.632 26.2191C313.433 26.1252 300.002 6.67532 310.046 3.4275C315.847 1.549 331.206 4.51999 337.239 9.80697C345.735 17.2468 332.339 26.2858 324.632 26.2191Z" stroke="url(#paint6_radial_3024_26060)" stroke-miterlimit="10"/>
<path d="M294.196 6.15129C295.292 3.54117 300.424 2.38195 305.107 -0.79667C314.605 -7.24783 315.968 -10.3127 322.714 -14.2032C325.346 -15.7233 328.885 -17.7205 332.341 -16.8059C337.634 -15.4045 338.954 -9.33889 345.671 1.34384C354.38 15.2249 357.678 18.8139 355.189 26.1697C354.609 27.8801 353.859 33.4192 349.665 36.798C343.857 41.4695 337.049 37.8608 328.537 40.953C318.315 44.6605 313.248 51.26 308.812 48.3434C305.687 46.2894 305.571 40.6637 303.231 30.8684C301.449 23.4063 300.328 18.5098 298.16 14.5156C295.561 9.75999 292.977 9.05307 294.196 6.15129Z" stroke="url(#paint7_radial_3024_26060)" stroke-miterlimit="10"/>
<path d="M277.077 11.5915C277.267 6.96449 284.525 4.72514 290.506 -1.96083C302.772 -15.6763 297.089 -25.4767 306.921 -35.497C311.093 -39.7508 317.639 -43.8711 324.2 -43.0728C333.511 -41.9382 336.639 -32.306 350.973 -12.777C369.714 12.7557 377.697 17.756 375.947 31.3627C375.589 34.136 375.241 44.7841 367.917 51.1932C358.149 59.7404 346.441 51.9644 331.149 58.3884C314.062 65.5563 307.676 80.8809 301.915 77.7097C297.914 75.5074 299.447 66.6389 296.371 49.3419C294.194 37.0476 292.848 29.8624 288.496 23.9773C283.004 16.5547 276.872 16.6165 277.077 11.5915Z" stroke="url(#paint8_radial_3024_26060)" stroke-miterlimit="10"/>
<path d="M259.941 16.9724C259.201 10.3408 268.598 7.0065 275.888 -3.18682C290.896 -24.1716 277.956 -40.5739 291.111 -56.8525C296.741 -63.8178 306.398 -70.049 316.042 -69.3989C329.409 -68.4992 334.348 -55.3745 356.278 -26.9572C385.11 10.1728 397.526 16.7104 396.711 36.4964C396.551 40.3548 396.625 56.0847 386.176 65.5365C372.446 77.9519 355.814 65.9938 333.771 75.7694C309.802 86.3978 302.12 110.44 295.016 107.024C290.14 104.661 293.263 92.5597 289.509 67.7611C286.917 50.6346 285.354 41.1952 278.827 33.3846C270.415 23.3198 260.734 24.1157 259.941 16.9724Z" stroke="url(#paint9_radial_3024_26060)" stroke-miterlimit="10"/>
<path d="M242.766 22.3385C241.104 13.7098 252.615 9.26812 261.23 -4.42514C278.948 -32.6916 258.724 -55.6315 275.263 -78.2205C282.333 -87.8848 295.124 -96.2293 307.847 -95.7399C325.279 -95.0676 331.951 -78.4058 361.533 -41.1498C400.365 7.64174 417.264 15.6995 417.414 41.6179C417.444 46.5613 417.933 67.3582 404.371 79.8651C386.662 96.1338 365.137 80.001 336.328 93.1381C305.472 107.212 296.494 139.994 288.077 136.326C282.325 133.81 287.04 118.466 282.607 86.1679C279.593 64.2068 277.823 52.5255 269.122 42.7796C257.781 30.0849 244.553 31.6173 242.766 22.3385Z" stroke="url(#paint10_radial_3024_26060)" stroke-miterlimit="10"/>
<path d="M225.558 27.7021C228.34 39.1214 245.111 36.8474 259.376 52.172C270.255 63.8558 272.232 77.774 275.668 104.572C280.77 144.367 274.471 162.956 281.098 165.623C290.842 169.546 301.113 128.021 338.861 110.504C374.421 94.0032 400.883 114.345 422.541 94.1911C439.238 78.6514 438.31 52.7875 438.093 46.7343C436.942 14.691 415.588 5.10576 366.754 -55.3473C329.517 -101.442 321.12 -121.636 299.612 -122.083C283.814 -122.412 267.88 -111.949 259.376 -99.5908C239.463 -70.6719 267.011 -41.1819 246.54 -5.66595C236.619 11.5445 222.969 17.0787 225.558 27.7021Z" stroke="url(#paint11_radial_3024_26060)" stroke-miterlimit="10"/>
<path d="M367.877 211.498C364.955 210.015 358.818 212.873 358.275 217.324C357.66 222.374 364.604 226.551 367.655 225.253C371.264 223.716 371.755 213.461 367.877 211.498Z" stroke="url(#paint12_radial_3024_26060)" stroke-miterlimit="10"/>
<path d="M376.112 238.329C381.093 233.665 383.271 225.105 385.761 210.433C388.23 195.885 387.842 185.469 385.672 184.712C384.49 184.305 381.14 187.496 378.267 189.834C372.888 194.199 363.681 193.714 361.321 194.186C352.681 195.917 350.144 199.13 346.532 205.284C344.861 208.127 340.964 214.43 339.248 221.845C336.631 233.074 324.904 236.534 326.333 241.035C327.535 244.792 339.154 245.704 346.688 245.811C357.485 245.964 368.41 245.531 376.112 238.329Z" stroke="url(#paint13_radial_3024_26060)" stroke-miterlimit="10"/>
<path d="M384.747 250.868C392.935 242.533 396.156 228.546 401.118 202.388C406.158 176.103 406.126 158.075 403.643 157.402C401.779 156.888 395.744 163.386 390.614 168.031C380.945 176.823 363.636 175.377 360.07 175.94C343.802 178.456 339.794 184.485 333.489 195.88C330.863 200.625 323.657 212.193 320.374 225.854C315.321 246.782 291.365 252.262 293.347 260.02C295.003 266.481 317.219 267.473 331.198 266.941C350.936 266.172 370.911 264.956 384.747 250.868Z" stroke="url(#paint14_radial_3024_26060)" stroke-miterlimit="10"/>
<path d="M393.334 263.325C404.736 251.322 408.965 231.897 416.425 194.261C424 156.233 424.353 130.634 421.564 129.996C419.009 129.403 410.293 139.191 402.922 146.154C388.988 159.395 363.555 156.96 358.779 157.598C334.889 160.791 329.387 169.722 320.406 186.381C316.822 193.027 306.314 209.862 301.458 229.762C293.976 260.391 257.789 267.885 260.319 278.904C262.432 288.069 295.25 289.179 315.669 287.966C344.343 286.347 373.397 284.315 393.334 263.325Z" stroke="url(#paint15_radial_3024_26060)" stroke-miterlimit="10"/>
<path d="M401.895 275.775C416.518 260.104 421.749 235.239 431.707 186.124C441.827 136.358 442.568 103.195 439.463 102.58C436.214 101.93 424.812 114.968 415.205 124.254C396.978 141.915 363.451 138.516 357.465 139.245C325.953 143.074 318.915 154.928 307.299 176.87C302.742 185.412 288.946 207.519 282.523 233.66C272.605 273.988 224.186 283.499 227.271 297.778C229.836 309.642 273.256 310.826 300.118 308.982C337.715 306.444 375.865 303.673 401.895 275.775Z" stroke="url(#paint16_radial_3024_26060)" stroke-miterlimit="10"/>
<path d="M356.14 120.885C317.007 125.335 308.498 140.165 294.181 167.354C288.677 177.806 271.565 205.171 263.572 237.55C251.23 287.582 190.573 299.108 194.209 316.645C197.23 331.228 251.25 332.464 284.554 329.992C331.09 326.532 378.329 323.027 410.446 288.22C428.29 268.879 434.521 238.581 446.979 177.982C459.625 116.476 460.753 75.7571 457.347 75.1589C453.397 74.4668 439.327 90.7307 427.478 102.348C404.956 124.425 363.338 120.067 356.14 120.885Z" stroke="url(#paint17_radial_3024_26060)" stroke-miterlimit="10"/>
<path d="M37.955 1.99634C42.3982 19.0511 74.2908 11.0403 112.256 49.4531C125.859 63.2181 134.98 77.6158 152.985 79.8551C154.802 80.0801 172.839 82.055 185.569 70.4626C201.584 55.8796 191.809 35.6486 210.5 7.4341C217.385 -2.95943 218.53 0.0585288 223.583 -8.13765C245.148 -43.1247 212.258 -78.6431 231.236 -114.174C239.971 -130.529 252.958 -134.284 251.724 -136.419C246.397 -145.582 25.9484 -43.9601 37.955 1.99634Z" stroke="url(#paint18_radial_3024_26060)" stroke-miterlimit="10"/>
<path d="M157.922 56.5395C159.013 56.3912 170.906 57.281 179.065 49.0848C189.38 38.7358 182.027 24.4864 193.846 5.24913C198.195 -1.83478 198.8 0.0857331 201.895 -5.51763C215.102 -29.4289 191.4 -53.4836 203.006 -76.8907C208.378 -87.7266 216.857 -90.2107 215.595 -91.2686C209.891 -96.0934 64.3823 -24.8167 75.8113 6.19825C80.0966 17.8301 103.49 13.7024 130.258 38.7556C139.991 47.8589 146.582 58.0794 157.922 56.5395Z" stroke="url(#paint19_radial_3024_26060)" stroke-miterlimit="10"/>
<path d="M162.859 33.2214C163.17 32.4379 168.986 32.4552 172.56 27.7071C177.201 21.5476 172.259 13.3415 177.191 3.06661C179 -0.70522 179.074 0.100556 180.21 -2.89763C185.085 -15.7925 170.521 -28.3093 174.779 -39.6099C176.771 -44.929 180.474 -45.8361 179.487 -46.1204C172.269 -45.0946 102.964 -5.60415 113.655 10.4002C117.829 16.6536 132.771 16.3545 148.248 28.058C154.131 32.5071 157.981 35.7648 162.859 33.2214Z" stroke="url(#paint20_radial_3024_26060)" stroke-miterlimit="10"/>
<path d="M167.796 9.90582C163.965 -1.30337 148.883 -5.11475 143.358 -0.9697C135.212 5.15025 142.161 13.119 151.504 14.6021C158.488 15.702 172.18 22.734 167.796 9.90582Z" stroke="url(#paint21_radial_3024_26060)" stroke-miterlimit="10"/>
<defs>
<radialGradient id="paint0_radial_3024_26060" cx="0" cy="0" r="1" gradientUnits="userSpaceOnUse" gradientTransform="translate(368 97) rotate(156.59) scale(320.915 333.258)">
<stop stop-color="white" stop-opacity="0.04"/>
<stop offset="1" stop-color="white" stop-opacity="0"/>
</radialGradient>
<radialGradient id="paint1_radial_3024_26060" cx="0" cy="0" r="1" gradientUnits="userSpaceOnUse" gradientTransform="translate(368 97) rotate(156.59) scale(320.915 333.258)">
<stop stop-color="white" stop-opacity="0.04"/>
<stop offset="1" stop-color="white" stop-opacity="0"/>
</radialGradient>
<radialGradient id="paint2_radial_3024_26060" cx="0" cy="0" r="1" gradientUnits="userSpaceOnUse" gradientTransform="translate(368 97) rotate(156.59) scale(320.915 333.258)">
<stop stop-color="white" stop-opacity="0.04"/>
<stop offset="1" stop-color="white" stop-opacity="0"/>
</radialGradient>
<radialGradient id="paint3_radial_3024_26060" cx="0" cy="0" r="1" gradientUnits="userSpaceOnUse" gradientTransform="translate(368 97) rotate(156.59) scale(320.915 333.258)">
<stop stop-color="white" stop-opacity="0.04"/>
<stop offset="1" stop-color="white" stop-opacity="0"/>
</radialGradient>
<radialGradient id="paint4_radial_3024_26060" cx="0" cy="0" r="1" gradientUnits="userSpaceOnUse" gradientTransform="translate(368 97) rotate(156.59) scale(320.915 333.258)">
<stop stop-color="white" stop-opacity="0.04"/>
<stop offset="1" stop-color="white" stop-opacity="0"/>
</radialGradient>
<radialGradient id="paint5_radial_3024_26060" cx="0" cy="0" r="1" gradientUnits="userSpaceOnUse" gradientTransform="translate(368 97) rotate(156.59) scale(320.915 333.258)">
<stop stop-color="white" stop-opacity="0.04"/>
<stop offset="1" stop-color="white" stop-opacity="0"/>
</radialGradient>
<radialGradient id="paint6_radial_3024_26060" cx="0" cy="0" r="1" gradientUnits="userSpaceOnUse" gradientTransform="translate(368 97) rotate(156.59) scale(320.915 333.258)">
<stop stop-color="white" stop-opacity="0.04"/>
<stop offset="1" stop-color="white" stop-opacity="0"/>
</radialGradient>
<radialGradient id="paint7_radial_3024_26060" cx="0" cy="0" r="1" gradientUnits="userSpaceOnUse" gradientTransform="translate(368 97) rotate(156.59) scale(320.915 333.258)">
<stop stop-color="white" stop-opacity="0.04"/>
<stop offset="1" stop-color="white" stop-opacity="0"/>
</radialGradient>
<radialGradient id="paint8_radial_3024_26060" cx="0" cy="0" r="1" gradientUnits="userSpaceOnUse" gradientTransform="translate(368 97) rotate(156.59) scale(320.915 333.258)">
<stop stop-color="white" stop-opacity="0.04"/>
<stop offset="1" stop-color="white" stop-opacity="0"/>
</radialGradient>
<radialGradient id="paint9_radial_3024_26060" cx="0" cy="0" r="1" gradientUnits="userSpaceOnUse" gradientTransform="translate(368 97) rotate(156.59) scale(320.915 333.258)">
<stop stop-color="white" stop-opacity="0.04"/>
<stop offset="1" stop-color="white" stop-opacity="0"/>
</radialGradient>
<radialGradient id="paint10_radial_3024_26060" cx="0" cy="0" r="1" gradientUnits="userSpaceOnUse" gradientTransform="translate(368 97) rotate(156.59) scale(320.915 333.258)">
<stop stop-color="white" stop-opacity="0.04"/>
<stop offset="1" stop-color="white" stop-opacity="0"/>
</radialGradient>
<radialGradient id="paint11_radial_3024_26060" cx="0" cy="0" r="1" gradientUnits="userSpaceOnUse" gradientTransform="translate(368 97) rotate(156.59) scale(320.915 333.258)">
<stop stop-color="white" stop-opacity="0.04"/>
<stop offset="1" stop-color="white" stop-opacity="0"/>
</radialGradient>
<radialGradient id="paint12_radial_3024_26060" cx="0" cy="0" r="1" gradientUnits="userSpaceOnUse" gradientTransform="translate(368 97) rotate(156.59) scale(320.915 333.258)">
<stop stop-color="white" stop-opacity="0.04"/>
<stop offset="1" stop-color="white" stop-opacity="0"/>
</radialGradient>
<radialGradient id="paint13_radial_3024_26060" cx="0" cy="0" r="1" gradientUnits="userSpaceOnUse" gradientTransform="translate(368 97) rotate(156.59) scale(320.915 333.258)">
<stop stop-color="white" stop-opacity="0.04"/>
<stop offset="1" stop-color="white" stop-opacity="0"/>
</radialGradient>
<radialGradient id="paint14_radial_3024_26060" cx="0" cy="0" r="1" gradientUnits="userSpaceOnUse" gradientTransform="translate(368 97) rotate(156.59) scale(320.915 333.258)">
<stop stop-color="white" stop-opacity="0.04"/>
<stop offset="1" stop-color="white" stop-opacity="0"/>
</radialGradient>
<radialGradient id="paint15_radial_3024_26060" cx="0" cy="0" r="1" gradientUnits="userSpaceOnUse" gradientTransform="translate(368 97) rotate(156.59) scale(320.915 333.258)">
<stop stop-color="white" stop-opacity="0.04"/>
<stop offset="1" stop-color="white" stop-opacity="0"/>
</radialGradient>
<radialGradient id="paint16_radial_3024_26060" cx="0" cy="0" r="1" gradientUnits="userSpaceOnUse" gradientTransform="translate(368 97) rotate(156.59) scale(320.915 333.258)">
<stop stop-color="white" stop-opacity="0.04"/>
<stop offset="1" stop-color="white" stop-opacity="0"/>
</radialGradient>
<radialGradient id="paint17_radial_3024_26060" cx="0" cy="0" r="1" gradientUnits="userSpaceOnUse" gradientTransform="translate(368 97) rotate(156.59) scale(320.915 333.258)">
<stop stop-color="white" stop-opacity="0.04"/>
<stop offset="1" stop-color="white" stop-opacity="0"/>
</radialGradient>
<radialGradient id="paint18_radial_3024_26060" cx="0" cy="0" r="1" gradientUnits="userSpaceOnUse" gradientTransform="translate(368 97) rotate(156.59) scale(320.915 333.258)">
<stop stop-color="white" stop-opacity="0.04"/>
<stop offset="1" stop-color="white" stop-opacity="0"/>
</radialGradient>
<radialGradient id="paint19_radial_3024_26060" cx="0" cy="0" r="1" gradientUnits="userSpaceOnUse" gradientTransform="translate(368 97) rotate(156.59) scale(320.915 333.258)">
<stop stop-color="white" stop-opacity="0.04"/>
<stop offset="1" stop-color="white" stop-opacity="0"/>
</radialGradient>
<radialGradient id="paint20_radial_3024_26060" cx="0" cy="0" r="1" gradientUnits="userSpaceOnUse" gradientTransform="translate(368 97) rotate(156.59) scale(320.915 333.258)">
<stop stop-color="white" stop-opacity="0.04"/>
<stop offset="1" stop-color="white" stop-opacity="0"/>
</radialGradient>
<radialGradient id="paint21_radial_3024_26060" cx="0" cy="0" r="1" gradientUnits="userSpaceOnUse" gradientTransform="translate(368 97) rotate(156.59) scale(320.915 333.258)">
<stop stop-color="white" stop-opacity="0.04"/>
<stop offset="1" stop-color="white" stop-opacity="0"/>
</radialGradient>
</defs>
</svg>
