<svg width="40" height="40" viewBox="0 0 40 40" fill="none" xmlns="http://www.w3.org/2000/svg">
<rect width="40" height="40" rx="20" fill="#1E293B"/>
<g clip-path="url(#clip0_2970_10915)">
<path d="M25.6944 15.7784L25.3611 16.087L25.75 17.3492L24.6111 16.7321L24.2222 17.0407L25.4722 17.7419L24.1389 18.8359L23.7778 18.359L24.25 17.9663L23.9167 17.5175L23.4444 17.9102L23.0556 17.3773L23.5278 16.9846L23.1944 16.5077L20.7778 18.5554L23.1111 20.4348L23.5556 19.9018C23.8611 19.9018 24.0833 20.1543 24.1944 20.4348L23.75 20.9677L24 21.1921C24.5556 20.6592 25.3333 20.3226 26.1111 20.3226C27.75 20.3226 29 21.669 29 23.324C29 23.8569 28.8611 24.446 28.5556 24.9229L29 25.2595C29 25.568 28.6944 25.9046 28.3889 25.9888L27.9444 25.6522C27.3889 26.2132 26.6111 26.5217 25.8333 26.5217C24.1944 26.5217 22.9444 25.2034 22.9444 23.5764C22.9444 23.0435 23.1111 22.4825 23.3333 22.0056L23.0556 21.7812L22.6111 22.3422C22.3056 22.2861 22.0556 22.0898 21.9722 21.7812L22.4167 21.3043L20.4722 19.6494V22.2581H21.1111C21.1944 22.3983 21.25 22.5105 21.25 22.6508C21.25 22.791 21.1944 22.9593 21.1111 23.0996H20.4722V23.4081C21.8889 23.6606 23.1111 24.8948 23.1111 26.3534C23.1111 27.8682 21.9444 29.1024 20.4722 29.3548V29.8878C20.3333 29.9719 20.1667 30.028 20 30.028C19.8333 30.028 19.6111 29.9719 19.4722 29.8878V29.3548C18 29.1304 16.8889 27.8682 16.8889 26.3534C16.8889 24.8668 18 23.6606 19.4722 23.4362V23.0996H18.7778C18.6944 22.9593 18.6389 22.8471 18.6389 22.6508C18.6389 22.4544 18.6944 22.3422 18.7778 22.202H19.4722V19.5933L17.5 21.2482L17.9444 21.7251C17.8611 22.0337 17.6111 22.2581 17.3056 22.2861L16.8611 21.7251L16.6111 21.9776C16.8611 22.4544 17.0556 22.9874 17.0556 23.5484C17.0556 25.2034 15.75 26.4937 14.1667 26.4937C13.3889 26.4937 12.6111 26.1851 12.0556 25.6241L11.6111 25.9888C11.3611 25.9046 11.0556 25.54 11 25.2595L11.4444 24.9229C11.1667 24.446 11 23.885 11 23.2959C11 21.641 12.25 20.2945 13.8889 20.2945C14.6667 20.2945 15.4444 20.6311 16 21.1641L16.25 20.9958L15.8056 20.4628C15.8889 20.2104 16.1389 19.986 16.4444 19.9299L16.8889 20.4628L19.2222 18.5834L16.8056 16.5358L16.4722 17.0126L16.9444 17.4053L16.6111 17.8822L16.1389 17.4895L15.8056 17.9383L16.1944 18.2468L15.8611 18.7237L14.5556 17.6297L15.75 16.9285L15.4167 16.6199L14.3056 17.237L14.6389 16.0589L14.3056 15.7503L13.8611 17.0968L12.5278 16.0028L12.8611 15.6101L13.3333 16.0028L13.7222 15.554L13.25 15.1052L13.5833 14.6564L14.0556 15.0491L14.3889 14.6003L13.3611 13.8149C13.4444 13.4783 13.6667 13.1978 14 13.0014L19.4722 17.5175V14.5161H18.9167V15.0771H18.3611V14.5161H17.8056V15.0771H17.25V13.3941L18.5556 13.9551V13.4783L17.3611 12.9453L18.5556 12.4684V12.0477L17.25 12.5806V10.8135H17.8056V11.4306H18.3611V10.8135H18.9167V11.4306H19.4722V10.0842C19.6667 10.0561 19.8333 10 20 10C20.1667 10 20.3333 10.0561 20.4722 10.0842V17.5175L25.9444 13.0014C26.25 13.2258 26.4722 13.4783 26.5833 13.8149L25.5556 14.6283L25.8889 15.0771L26.3611 14.7405L26.6944 15.1893L26.25 15.6101L26.5833 16.0589L27.0556 15.6662L27.3889 16.115L26.0556 17.209C26.0833 17.1809 25.6944 15.7784 25.6944 15.7784ZM14.5278 23.9691C14.5278 24.446 14.8611 24.7546 15.3056 24.7826L14.6111 25.3156C14.1389 25.1473 13.6944 24.5863 13.6944 24.0533C13.6944 23.885 13.75 23.8008 13.7778 23.6606H13.6667C13.0278 23.6606 12.5 23.0435 12.3611 22.4544L13.0833 21.8934V22.1178C13.0833 22.5105 13.4722 22.8471 13.8611 22.8471C14.3056 22.8471 14.6667 22.5105 14.6667 22.0617C14.6667 21.5288 14.2778 21.1921 13.75 21.1921C12.8056 21.1921 11.8611 22.1459 11.8611 23.3801C11.8611 23.7167 11.9444 24.0813 12.0833 24.3899L12.5278 24.0533C12.8333 24.1935 13.0556 24.5021 13.1389 24.8387L12.6944 25.1753C13.1389 25.5119 13.6389 25.7083 14.1667 25.7083C15.2778 25.7083 16.1389 24.7826 16.1389 24.0252C16.1389 23.5484 15.8333 23.1557 15.3611 23.1557C14.8889 23.1837 14.5278 23.5203 14.5278 23.9691ZM20.3889 25.7083C20.3889 26.1571 20.7222 26.4937 21.1667 26.4937C21.4722 26.4937 21.6111 26.3534 21.8056 26.1851V27.1108C21.5833 27.2511 21.3611 27.2791 21.1111 27.2791C20.6389 27.2791 20.25 27.1388 20 26.7181C19.75 27.1669 19.3056 27.2791 18.8333 27.2791C18.6111 27.2791 18.3611 27.223 18.1389 27.1108V26.1851C18.3611 26.4095 18.4722 26.4937 18.7778 26.4937C19.2222 26.4937 19.5556 26.1571 19.5556 25.7083C19.5556 25.2595 19.3056 24.9229 18.8333 24.9229C18.0278 24.9229 17.6667 25.7083 17.6667 26.4376C17.6667 27.4755 18.4444 28.4011 19.4444 28.5694V28.0365C19.6111 27.9523 19.7778 27.9523 19.9167 27.9523C20.0833 27.9523 20.25 27.9523 20.4444 28.0365V28.5694C21.3889 28.4292 22.2222 27.4474 22.2222 26.4376C22.2222 25.7083 21.9167 24.9229 21.0556 24.9229C20.6944 24.8668 20.3889 25.2595 20.3889 25.7083ZM25.3056 22.0898C25.3056 22.4825 25.75 22.8752 26.1111 22.8752C26.4722 22.8752 26.8889 22.5386 26.8889 22.1459V21.9215L27.5833 22.4825C27.4444 23.1837 26.8333 23.7447 26.1667 23.6886C26.2222 23.8289 26.2222 23.9411 26.2222 24.0813C26.2222 24.6143 25.7778 25.1753 25.3056 25.3436L24.6667 24.7826C25.1111 24.7265 25.4444 24.446 25.4444 23.9691C25.4444 23.4923 25.0556 23.1837 24.6389 23.1837C24.1667 23.1837 23.8611 23.5764 23.8611 24.0533C23.8611 24.6143 24.5556 25.7363 25.8889 25.7363C26.4167 25.7363 26.9167 25.568 27.3056 25.2034L26.8333 24.8668C26.9167 24.5302 27.1389 24.2216 27.4444 24.0813L27.8889 24.418C28.0556 24.1094 28.1389 23.7728 28.1389 23.4081C28.1389 22.4544 27.4167 21.2202 26.25 21.2202C25.7222 21.2763 25.3056 21.5568 25.3056 22.0898Z" fill="white"/>
</g>
<defs>
<clipPath id="clip0_2970_10915">
<rect width="18" height="20" fill="white" transform="translate(11 10)"/>
</clipPath>
</defs>
</svg>
