<svg width="40" height="40" viewBox="0 0 40 40" fill="none" xmlns="http://www.w3.org/2000/svg">
<rect width="40" height="40" rx="20" fill="#1E293B"/>
<path d="M20.0003 19.1667C21.8413 19.1667 23.3337 17.6743 23.3337 15.8333C23.3337 13.9924 21.8413 12.5 20.0003 12.5C18.1594 12.5 16.667 13.9924 16.667 15.8333C16.667 17.6743 18.1594 19.1667 20.0003 19.1667Z" stroke="#64748B" stroke-width="1.5" stroke-linecap="round" stroke-linejoin="round"/>
<path d="M15 27.5V25.8333C15 24.9493 15.3512 24.1014 15.9763 23.4763C16.6014 22.8512 17.4493 22.5 18.3333 22.5H21.6667C22.5507 22.5 23.3986 22.8512 24.0237 23.4763C24.6488 24.1014 25 24.9493 25 25.8333V27.5" stroke="#64748B" stroke-width="1.5" stroke-linecap="round" stroke-linejoin="round"/>
</svg>
