<svg width="12" height="12" viewBox="0 0 12 12" fill="none" xmlns="http://www.w3.org/2000/svg">
<path d="M10.7804 5.36978L10.1004 4.57979C9.97043 4.42979 9.86543 4.14979 9.86543 3.94979V3.09979C9.86543 2.56979 9.43043 2.13479 8.90043 2.13479H8.05043C7.85543 2.13479 7.57043 2.02979 7.42043 1.89979L6.63043 1.21979C6.28543 0.924785 5.72043 0.924785 5.37043 1.21979L4.58543 1.90479C4.43543 2.02979 4.15043 2.13479 3.95543 2.13479H3.09043C2.56043 2.13479 2.12543 2.56979 2.12543 3.09979V3.95479C2.12543 4.14979 2.02043 4.42979 1.89543 4.57979L1.22043 5.37478C0.93043 5.71978 0.93043 6.27979 1.22043 6.62478L1.89543 7.41979C2.02043 7.56979 2.12543 7.84978 2.12543 8.04479V8.89978C2.12543 9.42978 2.56043 9.86479 3.09043 9.86479H3.95543C4.15043 9.86479 4.43543 9.96979 4.58543 10.0998L5.37543 10.7798C5.72043 11.0748 6.28543 11.0748 6.63543 10.7798L7.42543 10.0998C7.57543 9.96979 7.85543 9.86479 8.05543 9.86479H8.90543C9.43543 9.86479 9.87043 9.42978 9.87043 8.89978V8.04979C9.87043 7.85478 9.97543 7.56979 10.1054 7.41979L10.7854 6.62979C11.0754 6.28479 11.0754 5.71478 10.7804 5.36978ZM8.08043 5.05478L5.66543 7.46978C5.59543 7.53978 5.50043 7.57978 5.40043 7.57978C5.30043 7.57978 5.20543 7.53978 5.13543 7.46978L3.92543 6.25979C3.78043 6.11479 3.78043 5.87478 3.92543 5.72978C4.07043 5.58478 4.31043 5.58478 4.45543 5.72978L5.40043 6.67479L7.55043 4.52479C7.69543 4.37979 7.93543 4.37979 8.08043 4.52479C8.22543 4.66979 8.22543 4.90978 8.08043 5.05478Z" fill="#1BC256"/>
</svg>
