<svg width="40" height="40" viewBox="0 0 40 40" fill="none" xmlns="http://www.w3.org/2000/svg">
<rect width="40" height="40" rx="20" fill="#1E293B"/>
<g clip-path="url(#clip0_4094_4468)">
<path d="M23.9305 16.0127C22.0863 16.0127 20.4381 16.9186 20.4381 18.5923C20.4381 20.5117 23.3611 20.6443 23.3611 21.6085C23.3611 22.0145 22.8702 22.378 22.0316 22.378C20.8415 22.378 19.952 21.8701 19.952 21.8701L19.5714 23.5591C19.5714 23.5591 20.5961 23.9881 21.9565 23.9881C23.9728 23.9881 25.5595 23.0377 25.5595 21.3354C25.5595 19.3072 22.6243 19.1785 22.6243 18.2835C22.6243 17.9655 23.0273 17.617 23.8635 17.617C24.807 17.617 25.5767 17.9863 25.5767 17.9863L25.9492 16.3551C25.9492 16.3551 25.1117 16.0127 23.9305 16.0127ZM7.05735 16.1358L7.0127 16.382C7.0127 16.382 7.78858 16.5166 8.48738 16.785C9.38716 17.0928 9.45125 17.272 9.60279 17.8286L11.2541 23.8611H13.4676L16.8778 16.1358H14.6693L12.4781 21.3883L11.5839 16.936C11.5019 16.4265 11.0866 16.1358 10.5781 16.1358H7.05735ZM17.7658 16.1358L16.0334 23.8611H18.1393L19.8657 16.1358H17.7658ZM29.5116 16.1358C29.0038 16.1358 28.7347 16.3935 28.5373 16.8437L25.4519 23.8611H27.6604L28.0876 22.6915H30.7782L31.038 23.8611H32.9867L31.2867 16.1358H29.5116ZM29.7988 18.2229L30.4534 21.1219H28.6996L29.7988 18.2229Z" fill="#1434CB"/>
</g>
<defs>
<clipPath id="clip0_4094_4468">
<rect width="26" height="8" fill="white" transform="translate(7 16)"/>
</clipPath>
</defs>
</svg>
