<svg width="40" height="40" viewBox="0 0 40 40" fill="none" xmlns="http://www.w3.org/2000/svg">
<rect width="40" height="40" rx="20" fill="#1E293B"/>
<path d="M12.5 27.5L13.875 24.3333C12.8231 22.8401 12.3522 21.0142 12.5509 19.1984C12.7495 17.3827 13.604 15.7018 14.9539 14.4713C16.3039 13.2408 18.0565 12.5452 19.8828 12.5151C21.7092 12.485 23.4837 13.1224 24.8735 14.3078C26.2632 15.4932 27.1726 17.145 27.431 18.9532C27.6893 20.7615 27.2789 22.6018 26.2768 24.129C25.2746 25.6561 23.7495 26.765 21.9878 27.2476C20.2261 27.7302 18.3489 27.5532 16.7083 26.75L12.5 27.5Z" stroke="#64748B" stroke-width="1.5" stroke-linecap="round" stroke-linejoin="round"/>
<path d="M17.5 18.3333C17.5 18.4439 17.5439 18.5498 17.622 18.628C17.7002 18.7061 17.8062 18.75 17.9167 18.75C18.0272 18.75 18.1332 18.7061 18.2113 18.628C18.2894 18.5498 18.3333 18.4439 18.3333 18.3333V17.5C18.3333 17.3895 18.2894 17.2835 18.2113 17.2054C18.1332 17.1272 18.0272 17.0833 17.9167 17.0833C17.8062 17.0833 17.7002 17.1272 17.622 17.2054C17.5439 17.2835 17.5 17.3895 17.5 17.5V18.3333ZM17.5 18.3333C17.5 19.4384 17.939 20.4982 18.7204 21.2796C19.5018 22.061 20.5616 22.5 21.6667 22.5H22.5C22.6105 22.5 22.7165 22.4561 22.7946 22.378C22.8728 22.2998 22.9167 22.1939 22.9167 22.0833C22.9167 21.9728 22.8728 21.8669 22.7946 21.7887C22.7165 21.7106 22.6105 21.6667 22.5 21.6667H21.6667C21.5562 21.6667 21.4502 21.7106 21.372 21.7887C21.2939 21.8669 21.25 21.9728 21.25 22.0833C21.25 22.1939 21.2939 22.2998 21.372 22.378C21.4502 22.4561 21.5562 22.5 21.6667 22.5" stroke="#64748B" stroke-width="1.5" stroke-linecap="round" stroke-linejoin="round"/>
</svg>
